<?xml version="1.0" standalone="no"?>
<!DOCTYPE svg PUBLIC "-//W3C//DTD SVG 1.1//EN" "http://www.w3.org/Graphics/SVG/1.1/DTD/svg11.dtd" >
<svg xmlns="http://www.w3.org/2000/svg" xmlns:xlink="http://www.w3.org/1999/xlink" version="1.1">
<metadata>
Created by FontForge 20170731 at Tue Mar 12 17:14:34 2019
 By Aleksey,,,
Copyright 2012 The B612 Project Authors (https://github.com/polarsys/b612)
</metadata>
<defs>
<font id="B612Mono-BoldItalic" horiz-adv-x="1300" >
  <font-face 
    font-family="B612 Mono"
    font-weight="700"
    font-style="italic"
    font-stretch="normal"
    units-per-em="2000"
    panose-1="2 11 6 9 5 0 0 2 0 4"
    ascent="1600"
    descent="-400"
    x-height="1100"
    cap-height="1500"
    bbox="-400.657 -710 2731 1966"
    underline-thickness="100"
    underline-position="-400"
    slope="-10"
    unicode-range="U+0020-FB06"
  />
<missing-glyph 
d="M272 1500h1020l-265 -1500h-1019zM243 200h620l193 1100h-620z" />
    <glyph glyph-name=".notdef" 
d="M272 1500h1020l-265 -1500h-1019zM243 200h620l193 1100h-620z" />
    <glyph glyph-name=".null" horiz-adv-x="0" 
 />
    <glyph glyph-name="nonmarkingreturn" horiz-adv-x="666" 
 />
    <glyph glyph-name="NULL" horiz-adv-x="0" 
 />
    <glyph glyph-name="NULL" horiz-adv-x="0" 
 />
    <glyph glyph-name="space" unicode=" " 
 />
    <glyph glyph-name="exclam" unicode="!" 
d="M785 1500l-186 -1056l-306 -35l192 1091h300zM233 149q6 34 23.5 63.5t44 52t58.5 35.5t66 13t61 -13t45.5 -35.5t26 -52t1.5 -63.5q-6 -33 -24 -63.5t-43.5 -53t-57.5 -36t-66 -13.5q-33 0 -61 13.5t-47 36t-26 53t-1 63.5z" />
    <glyph glyph-name="quotedbl" unicode="&#x22;" 
d="M893 1500l-23 -133q-3 -18 -7.5 -42.5t-10.5 -51.5t-13 -54.5t-14 -50.5l-50 -155h-180l4 155q1 23 3.5 50.5t6.5 54.5t8 51.5t7 42.5l23 133h246zM593 1500l-23 -133q-3 -18 -7.5 -42.5t-10.5 -51.5t-13 -54.5t-14 -50.5l-50 -155h-180l4 155q1 23 3.5 50.5t6.5 54.5
t8 51.5t7 42.5l23 133h246z" />
    <glyph glyph-name="numbersign" unicode="#" 
d="M1074 885q-12 -40 -23 -76t-22 -71t-22.5 -72t-23.5 -79h233l-64 -214h-230q-13 -44 -27.5 -92t-29.5 -96.5t-29 -95.5t-27 -89l-309 -17l119 390h-166q-13 -44 -28 -92t-30 -96.5t-29.5 -95.5t-27.5 -89l-308 -17l122 390h-151l36 214h177l90 298h-223l65 215h222
q11 35 20.5 67.5t20.5 67.5l46 265l341 20l-127 -420h167q13 44 29 96t32.5 105.5t32 105t27.5 93.5l312 20l-131 -420h161l-38 -215h-187zM771 885h-164q-12 -40 -23 -76t-21.5 -71t-22 -72t-23.5 -79h164z" />
    <glyph glyph-name="dollar" unicode="$" 
d="M412 -14q-104 8 -190 42t-169 93l178 227q19 -15 44.5 -32t55 -33t61.5 -29.5t64 -20.5l84 479q-63 33 -123 69t-104.5 81t-66 102.5t-8.5 132.5q15 82 56 148.5t100.5 117.5t133 85.5t151.5 51.5l32 181l307 38l-39 -220q140 -33 267 -130l-184 -191q-75 48 -127 74
l-68 -386q60 -31 115 -69t95 -87.5t58.5 -113.5t3.5 -148q-15 -85 -55 -154.5t-97.5 -123.5t-129 -92.5t-149.5 -61.5l-37 -206h-290zM850 430q9 54 -17 94t-71 72l-61 -347q26 9 50 23.5t43.5 36t34 51.5t21.5 70zM549 1125q-5 -29 0 -52t18.5 -41.5t33 -33t43.5 -26.5
l52 296q-26 -8 -50 -19.5t-44 -29t-34 -41t-19 -53.5z" />
    <glyph glyph-name="percent" unicode="%" 
d="M331 746q-86 0 -141 28.5t-84 78.5t-34 119t9 149q14 79 42 146.5t74 116.5t111 77t154 28q85 0 140 -28t84.5 -77t34.5 -116.5t-9 -146.5q-6 -35 -15 -68l263 420h304l-503 -803q26 17 55 29q66 28 155 28q85 0 140 -27.5t84 -77t34.5 -117t-8.5 -146.5
q-14 -80 -42.5 -149t-74 -119t-111 -78.5t-153.5 -28.5q-86 0 -141 28.5t-84 78.5t-34 119t9 149q5 29 12 57l-261 -416h-304l505 806q-27 -18 -58 -32q-65 -28 -153 -28zM458 1165q4 25 7 48t0 40t-12.5 27.5t-28.5 10.5q-17 0 -28.5 -9t-19 -24.5t-12 -36t-8.5 -43.5
l-16 -94q-5 -26 -7.5 -49t0 -40.5t11.5 -28t29 -10.5q16 0 27.5 9t19 24.5t12.5 35.5t9 43zM967 404q4 25 7 47.5t0 40t-12.5 27.5t-28.5 10q-17 0 -28 -9t-18.5 -24.5t-12.5 -36t-9 -42.5l-16 -94q-5 -26 -7.5 -49.5t0.5 -41t12.5 -28t29.5 -10.5q16 0 26.5 9t18 24.5
t12.5 35.5t9 43z" />
    <glyph glyph-name="ampersand" unicode="&#x26;" 
d="M1258 740q-17 -98 -47.5 -180.5t-69.5 -150t-84.5 -120t-93.5 -89.5h77l126 -217h-379l-56 117l-51 -89q-24 -6 -48.5 -11t-51 -8.5t-56 -6t-65.5 -2.5q-113 0 -197 38.5t-136.5 103t-72.5 150t-3 179.5q13 78 46.5 143t77.5 117t94 90t98 63q-12 29 -23.5 63t-18.5 69.5
t-9.5 70t3.5 64.5q13 74 47 140.5t92 116.5t140.5 79.5t192.5 29.5q77 0 132.5 -17.5t96 -47t70.5 -68t57 -81.5l-174 -186q-21 37 -41.5 65.5t-44 47t-52 28t-66.5 9.5q-36 0 -60 -11.5t-39.5 -28.5t-23.5 -37.5t-11 -39.5q-5 -26 -2 -49q2 -19 10.5 -46.5t27 -72
t48 -111.5t73.5 -166q13 -31 22 -50.5t18.5 -39.5t21 -46.5t31.5 -71.5q19 20 30.5 47t23 94t17.5 99zM450 694l-17 -98q-43 -54 -58 -133q-10 -58 -0.5 -101t32 -71.5t54.5 -43t65 -14.5q42 0 70.5 10.5t50.5 25.5z" />
    <glyph glyph-name="quotesingle" unicode="'" 
d="M300 1500h270l-24 -133q-6 -36 -19 -68.5t-35.5 -67t-56.5 -74t-83 -89.5h-139q17 80 34.5 156.5t28.5 142.5z" />
    <glyph glyph-name="parenleft" unicode="(" 
d="M449 1158q16 93 40.5 173.5t70 140.5t119.5 94t188 34q25 0 52.5 -3.5t54.5 -10.5t52 -17.5t43 -23.5l-110 -114q-18 0 -43.5 -5t-51 -25.5t-48 -61.5t-34.5 -112l-225 -1273q-13 -73 -4.5 -113.5t26.5 -59.5t39.5 -22.5t36.5 -3.5l77 -120q-23 -13 -51 -23.5t-58 -17.5
t-59 -10.5t-54 -3.5q-114 0 -175 36.5t-85 99.5t-20 146t21 176z" />
    <glyph glyph-name="parenright" unicode=")" 
d="M824 38q-17 -93 -41.5 -176t-71 -146t-120.5 -99.5t-188 -36.5q-25 0 -52.5 3.5t-54.5 10.5t-52 17.5t-43 23.5l119 120q15 0 38 3.5t48 22.5t47 59.5t35 113.5l225 1273q12 71 4 112t-26 61.5t-41.5 25.5t-41.5 5l-70 114q23 13 51 23.5t58 17.5t59 10.5t54 3.5
q114 0 175.5 -34t86 -94t20.5 -140.5t-20 -173.5z" />
    <glyph glyph-name="asterisk" unicode="*" 
d="M884 926l70 -121l-194 -151l-87 146l-21 190l-84 -190l-126 -144l-177 125l152 169l177 91h-210l-143 49l83 219l176 -50l135 -139l-33 195l23 131l233 24l-28 -161l-111 -192l170 130l152 47l57 -211l-146 -46h-223z" />
    <glyph glyph-name="plus" unicode="+" 
d="M205 700h360l73 417h220l-73 -417h360l-36 -200h-360l-70 -400h-220l70 400h-360z" />
    <glyph glyph-name="comma" unicode="," 
d="M152 156q6 35 25.5 66.5t48.5 54.5t64 37.5t71 14.5q35 0 64 -12.5t50 -36.5t29.5 -61t0.5 -83q-12 -64 -30.5 -123.5t-53.5 -120.5t-92 -124.5t-144 -132.5l-57 28q37 53 68 109q27 47 51.5 102.5t34.5 108.5q-30 1 -57 13t-46 33t-26.5 53.5t-0.5 73.5z" />
    <glyph glyph-name="hyphen" unicode="-" 
d="M339 624h627l-39 -224h-627z" />
    <glyph glyph-name="period" unicode="." 
d="M103 183q7 41 29 77t53.5 63t70 42.5t79.5 15.5t74 -15.5t55.5 -42.5t31.5 -63t2 -77q-8 -41 -29.5 -77.5t-53 -63.5t-70 -43t-79.5 -16t-74.5 16t-55.5 43t-31.5 63.5t-1.5 77.5z" />
    <glyph glyph-name="slash" unicode="/" 
d="M331 -100h-331l977 1700h323z" />
    <glyph glyph-name="zero" unicode="0" 
d="M512 -16q-93 0 -165 32.5t-124.5 88.5t-85.5 131t-49.5 160t-16 176t16.5 178q16 90 45 181.5t72.5 177t101 159.5t129.5 129.5t158.5 87t188.5 31.5q93 0 165 -32.5t124.5 -88.5t86 -131t49.5 -160t15.5 -176t-15.5 -178q-16 -90 -45.5 -181.5t-73 -177t-101 -159.5
t-129.5 -129.5t-159 -87t-188 -31.5zM422 791q-9 -51 -15.5 -113t-7 -124.5t7 -121.5t26 -105t49.5 -73.5t79 -27.5q42 0 79 20.5t68 56t57 83t46.5 101.5t35 110.5t24.5 111.5q9 51 15.5 113t7 124.5t-7 121.5t-26 104.5t-50 73t-79.5 27.5q-42 0 -79 -20.5t-68 -56
t-56.5 -83t-46 -101t-35.5 -110.5t-24 -111z" />
    <glyph glyph-name="one" unicode="1" 
d="M616 880l138 363l-275 -271l-97 -74l-123 185l558 437l239 -20l-229 -1300h243l-36 -200h-817l36 200h243z" />
    <glyph glyph-name="two" unicode="2" 
d="M49 0l32 190q60 74 136 155.5t154.5 160t153 148.5t130.5 121q65 58 109.5 98t74 74t46 68.5t24.5 81.5q7 37 1 73.5t-24 65.5t-47.5 46.5t-70.5 17.5q-82 0 -154 -55t-136 -149l-218 87q43 77 99.5 138.5t126.5 105t154 67t181 23.5q114 0 196.5 -37.5t133 -98.5
t69 -138.5t4.5 -156.5q-12 -70 -44.5 -129t-79 -113.5t-103 -108.5t-117.5 -114q-60 -60 -124.5 -122t-123 -118t-106.5 -103t-75 -78h642l-35 -200h-1009z" />
    <glyph glyph-name="three" unicode="3" 
d="M361 938q33 21 79 51t99 66t108.5 75.5t107 81t96 83t75.5 79.5l-274 -74h-331l57 200h842l-31 -173q-45 -79 -114.5 -145t-151.5 -130l-171 -83q105 0 186.5 -27.5t133.5 -78.5t72.5 -124.5t4.5 -165.5q-18 -99 -73 -180t-136.5 -144.5t-184 -110.5t-215.5 -77.5
t-230 -45.5t-228 -15l36 200q118 4 235 31t213 73.5t161 112t80 146.5q10 58 -7.5 97.5t-55.5 64t-91.5 35t-115.5 10.5q-15 0 -44 -1.5t-60.5 -3t-60 -3t-43.5 -2.5z" />
    <glyph glyph-name="four" unicode="4" 
d="M1155 300h-178l-53 -300h-321l53 300h-560l36 200l673 1020l277 -20l-461 -737l-220 -263h291l49 280l325 20l-53 -300h199z" />
    <glyph glyph-name="five" unicode="5" 
d="M619 1046q25 6 54 9.5t64 3.5q116 0 201.5 -34t139 -93t73 -137.5t3.5 -168.5q-18 -103 -74.5 -189t-139 -155.5t-186 -122t-216 -88t-229 -53.5t-224.5 -18l40 226q72 2 149 16t151 38t142 58t122 75.5t89 90t45 102.5q7 41 0 80t-27 69t-52 48.5t-75 18.5q-38 0 -72 -6
t-62.5 -15.5t-51.5 -20.5t-39 -21h-225l131 741h866l-36 -200h-517z" />
    <glyph glyph-name="six" unicode="6" 
d="M1132 1280q-23 14 -53.5 17t-54.5 3q-69 0 -148.5 -33.5t-155.5 -97.5t-141 -157t-104 -212l191 145q58 11 103 11q97 0 183 -24.5t147 -77t88.5 -134t7.5 -195.5q-20 -111 -77 -209.5t-143 -172.5t-195.5 -117t-232.5 -43q-108 0 -185 32t-129 84.5t-82 120t-43 139
t-11.5 141.5t11.5 127q21 118 66 230t111 210.5t151 181.5t185.5 142.5t214 92.5t236.5 33q18 0 51 -2.5t81 -16.5zM720 756q-36 0 -75.5 -15t-77 -38t-70.5 -50.5t-57 -51.5q-5 -26 -8 -47.5t-4.5 -41t-1.5 -38.5t2 -40q4 -47 15.5 -89.5t32 -74.5t48.5 -51t65 -19
q54 0 99 28.5t79 74t56.5 102t32.5 111.5q9 50 3 94t-24 76.5t-47.5 51t-67.5 18.5z" />
    <glyph glyph-name="seven" unicode="7" 
d="M179 1500h1007l-29 -161q-5 -27 -26 -65t-53.5 -84.5t-74.5 -101t-88 -112.5q-54 -70 -114 -149t-114.5 -161t-98 -163.5t-65.5 -156.5q-11 -36 -21 -80t-19 -90.5t-17 -91.5t-15 -84h-337q6 32 16 86t23 114t28 118.5t31 99.5q34 89 84.5 179.5t108.5 176.5t118.5 165
t114.5 147q45 57 82 105t55 81h-636z" />
    <glyph glyph-name="eight" unicode="8" 
d="M810 1517q103 0 186 -26.5t138 -76t78.5 -120.5t7.5 -160q-9 -51 -36.5 -94t-65.5 -79t-83 -65t-90 -52q61 -32 111 -74.5t84 -95t47.5 -114.5t1.5 -133q-21 -115 -84 -199t-152 -138.5t-195.5 -80.5t-212.5 -26q-104 0 -196 29.5t-157 87.5t-95.5 143.5t-10.5 197.5
q12 71 44.5 132.5t80 112.5t107.5 91.5t128 70.5q-41 27 -75 57.5t-57 64.5t-33 72t-2 82q12 68 42.5 124t72.5 99.5t93.5 75.5t106.5 53t110.5 31t105.5 10zM863 422q9 54 -6 98t-45.5 79.5t-71 63t-81.5 48.5q-47 -21 -88.5 -48.5t-75 -63.5t-56.5 -80t-33 -98
q-8 -48 4 -89t38 -70t62 -45.5t75 -16.5q45 0 91 15t84 43.5t66 69.5t37 94zM605 1156q-6 -34 3 -62.5t28.5 -52.5t46 -43t56.5 -34q60 29 106.5 77t57.5 111q7 38 -2.5 66t-27.5 46t-41 27t-43 9q-28 0 -58.5 -11t-56.5 -30.5t-45 -46t-24 -56.5z" />
    <glyph glyph-name="nine" unicode="9" 
d="M190 200q69 2 139.5 23t136.5 56t124.5 82.5t105.5 102t79 114.5t44 122l-205 -152q-16 -2 -33 -3t-34 -1q-109 0 -198 33.5t-148 95.5t-83.5 149.5t-5.5 194.5q19 111 73.5 203t136.5 158t188.5 102.5t230.5 36.5q110 0 188.5 -31t131 -82.5t81.5 -118.5t41.5 -138.5
t10.5 -142.5t-13 -131q-31 -177 -114.5 -332.5t-211.5 -274t-296 -193t-369 -90.5v217zM594 761q34 0 72.5 16t75.5 42t69.5 59t54.5 67q9 63 3.5 126.5t-25 114.5t-53.5 82.5t-82 31.5q-47 0 -90.5 -21.5t-79 -57.5t-60.5 -84.5t-34 -102.5q-10 -54 -5.5 -103t23.5 -87
t51.5 -60.5t79.5 -22.5z" />
    <glyph glyph-name="colon" unicode=":" 
d="M137 183q7 41 29 77t54 63t70 42.5t79 15.5t74.5 -15.5t55.5 -42.5t31 -63t2 -77t-29 -77.5t-53.5 -63.5t-69.5 -43t-79 -16t-75 16t-56 43t-31 63.5t-2 77.5zM228 700q7 41 29 77t54 63t70 42.5t79 15.5t74.5 -15.5t55.5 -42.5t31 -63t2 -77t-29 -77.5t-53 -63.5
t-69.5 -43t-79.5 -16t-74.5 16t-56 43t-31.5 63.5t-2 77.5z" />
    <glyph glyph-name="semicolon" unicode=";" 
d="M191 156q6 35 25.5 66.5t48 54.5t64 37.5t71.5 14.5q35 0 64 -12.5t50 -36.5t29.5 -61t-0.5 -83q-11 -64 -29.5 -123.5t-53.5 -120.5t-92 -124.5t-144 -132.5l-57 28q36 53 68 109q27 47 51.5 102.5t34.5 108.5q-30 1 -57 13t-46 33t-26.5 53.5t-0.5 73.5zM268 700
q7 41 29 77t53.5 63t70 42.5t79.5 15.5t74 -15.5t55.5 -42.5t31.5 -63t2 -77t-29 -77.5t-53.5 -63.5t-69.5 -43t-79 -16t-75 16t-56 43t-31 63.5t-2 77.5z" />
    <glyph glyph-name="less" unicode="&#x3c;" 
d="M1219 1277l-47 -268l-730 -355l605 -352l-47 -268l-917 511l40 225z" />
    <glyph glyph-name="equal" unicode="=" 
d="M304 800h800l-39 -219h-800zM234 400h800l-39 -219h-800z" />
    <glyph glyph-name="greater" unicode="&#x3e;" 
d="M1217 770l-40 -225l-1097 -511l47 268l729 352l-604 355l47 269z" />
    <glyph glyph-name="question" unicode="?" 
d="M1146 1124q-11 -60 -39 -109.5t-68 -92.5t-88.5 -81t-98.5 -76q-34 -25 -68.5 -56.5t-65 -71.5t-54 -90t-34.5 -113l-317 -35q16 87 42 163t66.5 143t98 125.5t137.5 111.5q26 19 50.5 39t44.5 42.5t34.5 49t20.5 59.5q7 40 -2.5 68.5t-31 47t-52 27t-64.5 8.5
q-26 0 -65 -8.5t-84.5 -28t-93.5 -51.5t-91 -78l-155 151q70 76 143.5 124.5t145.5 76t139.5 38t126.5 10.5q95 0 179.5 -23.5t144.5 -72t88.5 -122.5t10.5 -175zM273 149q6 34 23.5 63.5t44 52t58 35.5t65.5 13t61.5 -13t46 -35.5t26 -52t1.5 -63.5q-6 -33 -24 -63.5
t-44 -53t-58 -36t-66 -13.5q-33 0 -61 13.5t-46.5 36t-25.5 53t-1 63.5z" />
    <glyph glyph-name="at" unicode="@" 
d="M728 636l55 138q-24 -6 -57 -24t-67 -54.5t-66 -94.5t-55 -144q-20 -76 -26.5 -128t-3 -85t15.5 -50t27.5 -22.5t33.5 -2t34 11.5zM1052 570q16 82 25 164t8.5 157.5t-12.5 140t-37.5 112.5t-67 75.5t-100.5 27.5q-60 0 -121.5 -23.5t-120.5 -64t-113 -96t-99 -119
t-79.5 -133t-53.5 -138.5q-25 -89 -41 -186t-19 -190t9.5 -176.5t45 -146t87.5 -99.5t136 -37q15 0 41.5 5.5t57 17t63 29.5t61.5 44l-66 -247q-16 -17 -43.5 -30t-57.5 -21.5t-58.5 -13t-46.5 -4.5q-108 0 -187 41.5t-133 112t-84.5 164t-42.5 196.5t-7.5 210t21.5 205
q22 126 65.5 243t105 218.5t139 184.5t167.5 142.5t191 92t209 32.5q101 0 174.5 -36t123 -100.5t77 -153t35 -193t-2.5 -221.5t-35 -237q-30 -144 -77.5 -248t-112 -171.5t-145.5 -99.5t-178 -32q-25 0 -46 7.5t-38 20t-29.5 28.5t-18.5 33l-66 -74q-51 0 -98.5 14
t-82.5 53t-52.5 109t-7.5 181q10 107 39.5 196.5t72.5 161t95 124.5t107 88.5t108.5 53t99.5 17.5q60 0 100.5 -8t64.5 -21l-166 -703q-8 -39 -7.5 -59.5t23.5 -20.5q17 0 43.5 27t55.5 78.5t56.5 126t45.5 169.5z" />
    <glyph glyph-name="A" unicode="A" 
d="M35 0l581 1284l64 216l392 20l162 -1520h-334l-28 427h-342l-177 -427h-318zM862 1331l-99 -341l-136 -344h224l-11 344z" />
    <glyph glyph-name="B" unicode="B" 
d="M612 1130l-41 -230h29q47 0 96.5 13t93 40.5t75 70.5t42.5 104q10 55 -7 90t-49.5 54t-75 26t-83.5 7q-14 0 -32 -1t-34 -3zM63 0l221 1262v227q44 6 97 11t106 9t100.5 6t80.5 2q120 0 227.5 -18t185 -62t115 -117t18.5 -182t-84.5 -188t-175.5 -124q61 -22 110.5 -56
t82 -80.5t45 -105.5t0.5 -129q-24 -132 -80 -219.5t-141 -140t-197 -74t-247 -21.5h-464zM453 228h57q75 0 136 11.5t106 39.5t74.5 73t41.5 113q11 65 -2 108.5t-45.5 70t-81.5 38t-109 11.5h-95z" />
    <glyph glyph-name="C" unicode="C" 
d="M1058 133q-115 -81 -234 -115.5t-249 -34.5q-103 0 -187.5 28.5t-149 80t-109.5 123.5t-68.5 159t-26.5 187.5t16 207.5q18 101 46 195.5t71 177.5t103.5 152t143.5 118.5t191 77t245 27.5q64 0 124.5 -11.5t114.5 -33.5t100 -54t82 -74l-180 -184q-29 22 -62 42
t-67.5 35t-70 24t-69.5 9q-95 0 -166 -39t-121.5 -106.5t-83.5 -158.5t-51 -194q-11 -61 -13.5 -124.5t4.5 -123.5t25 -113t48.5 -92.5t75 -62.5t103.5 -23q34 0 68 5.5t73 18t85.5 33t105.5 50.5z" />
    <glyph glyph-name="D" unicode="D" 
d="M223 1500q50 5 107 8t112 5t104 3t82 1q93 0 183 -17.5t169 -55t143 -94.5t104.5 -136t53.5 -180.5t-9 -226.5q-38 -218 -109.5 -371.5t-183 -250t-266.5 -141t-360 -44.5h-351l221 1262v238zM549 1121l-153 -871q105 0 182.5 25.5t134 68t93.5 97.5t61 113.5t37 116.5
t22 107q20 112 18.5 205t-37.5 160t-114.5 103.5t-213.5 36.5q-3 0 -6.5 -0.5t-7.5 -0.5h-8z" />
    <glyph glyph-name="E" unicode="E" 
d="M1066 228l-67 -228h-960l58 231l182 1032v237h975l-40 -228h-597l-10 -138l-38 -218h516l-38 -213h-516l-60 -343l-32 -132h627z" />
    <glyph glyph-name="F" unicode="F" 
d="M383 0h-351l223 1263v237h1009l-67 -228h-604l-10 -138l-38 -218h513l-38 -213h-513z" />
    <glyph glyph-name="G" unicode="G" 
d="M1157 221q-54 -50 -117.5 -93.5t-137 -75.5t-156 -50.5t-174.5 -18.5q-155 0 -267 62.5t-178.5 169.5t-87 250t7.5 304q27 151 92 287t167.5 238.5t242.5 162.5t316 60q129 0 238.5 -44.5t182.5 -128.5l-178 -174q-29 22 -62 42t-67.5 35t-70 24t-70.5 9
q-95 0 -168.5 -40.5t-127.5 -110t-90 -162t-54 -195.5q-11 -61 -13.5 -125.5t4 -126t24.5 -115.5t48.5 -95t74 -65t103.5 -24q25 0 52.5 6t53.5 15.5t50 21.5t42 25l58 327l-291 19l36 205h626z" />
    <glyph glyph-name="H" unicode="H" 
d="M672 0l122 688h-316l-122 -688h-346l222 1263v237l393 20l-107 -604h316l103 584l350 20l-269 -1520h-346z" />
    <glyph glyph-name="I" unicode="I" 
d="M347 1500h878l-40 -228h-273l-185 -1044h301l-75 -228h-878l40 228h278l185 1044h-306z" />
    <glyph glyph-name="J" unicode="J" 
d="M471 1500h772l-186 -1054q-16 -94 -59.5 -174.5t-113.5 -150.5q-33 -33 -76.5 -58.5t-95 -43t-108.5 -27t-115 -9.5q-97 0 -167.5 17.5t-121.5 47.5t-86.5 69t-63.5 83l189 200q12 -18 31.5 -44.5t50 -51t75.5 -42.5t108 -18q30 0 61.5 9.5t59.5 32.5t49.5 61.5
t31.5 96.5l121 688l44 134h-421z" />
    <glyph glyph-name="K" unicode="K" 
d="M8 0l222 1263v237l397 20l-86 -485l383 465h368l-515 -600l-250 -100l208 -84l403 -716h-380l-304 540l-96 -540h-350z" />
    <glyph glyph-name="L" unicode="L" 
d="M507 228h690l-68 -228h-1025l63 232l182 1031v237l394 20l-205 -1160z" />
    <glyph glyph-name="M" unicode="M" 
d="M717 0l80 449l239 751h-10l-225 -500l-108 -225h-191l-25 225l-51 500h-10l-20 -751l-80 -449h-311l222 1263v237l325 20l93 -441l-3 -279l83 282l244 418l330 20l-269 -1520h-313z" />
    <glyph glyph-name="N" unicode="N" 
d="M739 0l-296 950h-10l9 -301l-115 -649h-322l222 1263v237l339 20l295 -920h10l-14 252l114 648l326 20l-269 -1520h-289z" />
    <glyph glyph-name="O" unicode="O" 
d="M514 -17q-98 0 -175.5 27.5t-135 78t-95.5 120.5t-57 155.5t-19 183t19 202.5q18 105 52 202.5t82 183t110 155.5t137 120.5t163.5 78t189.5 27.5q147 0 248 -61t158 -165t71 -244t-14 -297q-19 -105 -52.5 -202.5t-81.5 -183t-110 -155.5t-137.5 -120.5t-164 -78
t-188.5 -27.5zM892 721q11 62 19 127t9.5 126.5t-6.5 116t-29 95t-57 64.5t-92 24q-52 0 -94 -21.5t-75.5 -58t-59 -85t-45 -103t-33.5 -112t-23 -111.5q-11 -63 -19 -128.5t-9 -127.5t7 -116.5t29 -95.5t57 -65t91 -24q77 0 133 47t95 120t63.5 160t38.5 168z" />
    <glyph glyph-name="P" unicode="P" 
d="M360 0h-332l222 1262v222q46 7 100.5 13.5t109 10.5t105 6.5t88.5 2.5q157 0 277 -34t198.5 -94.5t113.5 -144.5t21 -183q-18 -132 -77.5 -221.5t-160 -145t-241 -81.5t-321.5 -30zM557 1121l-54 -308q105 4 181.5 19.5t129 46t83 79.5t43.5 120q9 54 -13.5 94.5
t-64.5 67t-96.5 39.5t-108.5 13h-24q-10 0 -19 -0.5t-19.5 -1t-23.5 -1.5z" />
    <glyph glyph-name="Q" unicode="Q" 
d="M1035 -180q-96 0 -165.5 10.5t-121.5 40.5t-91 85t-73 144l-19 -111q-26 -3 -50 -4.5t-49 -1.5q-91 0 -162 29t-123 81t-85.5 123.5t-49.5 157t-14.5 181t18.5 195.5q18 105 52 202.5t82 183t110 155.5t137 120.5t163.5 78t189.5 27.5q147 0 248.5 -56t159.5 -154.5
t73 -233.5t-13 -293q-16 -92 -49 -187.5t-80.5 -182.5t-109 -160.5t-134.5 -122.5q13 -30 35 -46t48.5 -22.5t56 -7.5t56.5 -1zM398 783q-9 -60 -18 -123.5t-12.5 -124t1.5 -114.5t24 -94.5t54.5 -64t93.5 -23.5q-8 23 -20 59.5t-24.5 75.5t-24.5 73l-17 53l245 101l97 -301
l35 200q18 48 38.5 109.5t34.5 141.5q11 62 17.5 125t5 121.5t-12 110t-33 89.5t-58.5 60t-88 22q-49 0 -90.5 -21.5t-76 -58.5t-62 -86.5t-48.5 -104.5t-36.5 -113t-24.5 -112z" />
    <glyph glyph-name="R" unicode="R" 
d="M491 600l-106 -600h-324l221 1262v226l94 10q50 6 100 10t99 6.5t93 2.5q127 0 235 -31.5t183 -91t110 -144t16 -189.5q-15 -89 -55 -159.5t-100 -124.5t-138.5 -92t-172.5 -61l88 -24l302 -600h-365zM582 1121l-56 -321h36q68 0 124.5 21.5t99 58t69.5 85t36 101.5
q12 70 -6 115t-54.5 70.5t-84 35t-93.5 9.5q-16 0 -30 -0.5t-26 -1.5z" />
    <glyph glyph-name="S" unicode="S" 
d="M1048 1178q-42 27 -76 45t-64 29.5t-57.5 16.5t-55.5 5q-37 0 -74.5 -7t-69.5 -24t-55.5 -45.5t-30.5 -72.5q-8 -41 7.5 -70.5t44.5 -52.5t68.5 -42t80.5 -39q93 -45 164 -95.5t115.5 -112t60.5 -139t-2 -176.5q-20 -116 -82 -195t-150 -128t-195 -70.5t-217 -21.5
q-63 0 -119 9t-107 26.5t-99 43.5t-96 59l178 227q24 -18 57.5 -36t71.5 -33t78.5 -24t78.5 -9q44 0 88.5 8t82 28.5t64.5 56t37 91.5q10 54 -7.5 93t-52 68.5t-80.5 53.5t-93 48q-66 34 -126 77t-102.5 96t-63 118t-6.5 143q18 101 73 174.5t133.5 121.5t173 71t190.5 23
q117 0 218.5 -37t199.5 -111z" />
    <glyph glyph-name="T" unicode="T" 
d="M246 0l225 1272h-403l40 228h1134l-40 -228h-398l-225 -1272h-333z" />
    <glyph glyph-name="U" unicode="U" 
d="M1261 1500l-170 -966q-24 -139 -79.5 -242.5t-137.5 -172t-188.5 -102.5t-232.5 -34q-136 0 -222.5 43t-131 122t-51 189.5t17.5 244.5l120 681v237l377 20l-169 -956q-14 -81 -19 -145t6.5 -108t43.5 -67t91 -23q91 0 152.5 73.5t87.5 221.5l173 984h332z" />
    <glyph glyph-name="V" unicode="V" 
d="M1283 1500l-642 -1300l-66 -217l-349 17l-209 1500l326 20l108 -820l-24 -440l147 440l389 800h320z" />
    <glyph glyph-name="W" unicode="W" 
d="M319 1520l14 -561l-102 -559h10l107 301l104 299h226l4 -299l-1 -301h10l96 557l198 543h291l-533 -1500h-253l-8 300l22 350l-103 -350l-115 -300h-256l1 1500z" />
    <glyph glyph-name="X" unicode="X" 
d="M856 0l-214 613l-40 -186l-250 -427h-322l522 824l-269 676l332 20l181 -470l52 181l165 269h287l-421 -645l317 -855h-340z" />
    <glyph glyph-name="Y" unicode="Y" 
d="M518 1143l42 -370l123 370l245 357h335l-583 -850l-115 -650h-351l115 650l-279 850l343 20z" />
    <glyph glyph-name="Z" unicode="Z" 
d="M1100 228l-13 -228h-1039l-18 86l735 1101l157 113l-135 -28h-458l13 228h914l31 -58l-746 -1128l-154 -114l137 28h576z" />
    <glyph glyph-name="bracketleft" unicode="[" 
d="M459 1288l15 232h700l-39 -218h-350l-11 -148l-209 -1185l-41 -148h350l-39 -219h-700l67 232z" />
    <glyph glyph-name="backslash" unicode="\" 
d="M287 1600h322l407 -1700h-333z" />
    <glyph glyph-name="bracketright" unicode="]" 
d="M862 -166l-15 -232h-700l39 219h349l11 148l209 1185l41 148h-349l39 218h700l-67 -232z" />
    <glyph glyph-name="asciicircum" unicode="^" 
d="M1242 866h-300l-241 334l-359 -332h-299l595 632l212 20z" />
    <glyph glyph-name="underscore" unicode="_" 
d="M112 -200h1100l-45 -255h-1100z" />
    <glyph glyph-name="grave" unicode="`" 
d="M1101 1200h-215l-228 320l333 -20z" />
    <glyph glyph-name="a" unicode="a" 
d="M840 885q-20 3 -37 5t-24 3q-75 0 -132.5 -31t-98.5 -83t-65.5 -121.5t-32.5 -147.5q-6 -61 -3.5 -115.5t13.5 -96t31.5 -65.5t49.5 -24q34 0 64.5 11.5t57 29.5t47 39t35.5 40zM484 -16q-77 1 -134 24.5t-97.5 63.5t-65 93.5t-36 115t-12 128.5t8.5 133q9 72 33 143
t63.5 135t94 118.5t125 94t158 62t191.5 22.5q61 -1 123 -9q54 -7 117 -22t121 -43l-143 -834l-14 -209h-322l28 162l-155 -172q-11 -2 -29 -4.5t-55 -1.5z" />
    <glyph glyph-name="b" unicode="b" 
d="M454 212q29 -5 61 -8.5t62 -3.5q63 0 110 37.5t81 96t56 129t33 135.5q15 82 13.5 139.5t-15 93.5t-37 52.5t-51.5 16.5q-61 0 -110.5 -21t-93.5 -53zM337 1398v203l368 31l-116 -658l118 122q31 8 64.5 14.5t61.5 6.5q92 0 166.5 -34.5t123 -101t66 -164.5t-4.5 -224
q-24 -137 -85 -249.5t-148 -192.5t-195 -124t-226 -44q-64 0 -128.5 6.5t-122 16.5t-104.5 23t-75 25z" />
    <glyph glyph-name="c" unicode="c" 
d="M1007 772q-37 61 -91 87t-131 26q-61 0 -121.5 -23.5t-111 -66.5t-87 -104.5t-49.5 -137.5q-12 -69 4.5 -127.5t53 -100.5t88 -65.5t109.5 -23.5q52 0 96 9.5t81 26t66 37.5t51 44l86 -216q-21 -16 -61 -42t-97.5 -51t-132.5 -43t-166 -18q-133 0 -233.5 46t-164 124.5
t-87 182.5t-3.5 219q12 69 36.5 138t63.5 131.5t94 116t127.5 92.5t164.5 61.5t205 22.5q134 0 237.5 -37.5t166.5 -122.5z" />
    <glyph glyph-name="d" unicode="d" 
d="M796 900h-69q-66 0 -120.5 -31t-95.5 -84t-69 -123t-41 -147q-13 -74 -11.5 -132t15.5 -99t39.5 -62.5t60.5 -21.5q36 0 65 10.5t52 27t40.5 37.5t30.5 41zM637 0l29 162l-156 -172q-8 -2 -15 -3t-17 -2t-23.5 -1.5t-34.5 -0.5q-92 0 -164.5 40.5t-119 113.5t-63 172.5
t4.5 218.5t80.5 223.5t149 182t205 122t248.5 44.5h70l94 532l320 -32l-245 -1391l-15 -209h-348z" />
    <glyph glyph-name="e" unicode="e" 
d="M1078 158q-46 -37 -98 -68.5t-112 -55t-130 -37t-152 -13.5q-144 0 -245.5 47t-161.5 125.5t-79.5 180.5t0.5 213q12 71 38 140.5t65.5 132.5t93.5 116.5t122.5 93t151.5 62t181 22.5q120 0 208 -35.5t141.5 -99.5t72 -153t-0.5 -197q-5 -27 -16 -71t-25 -95h-737
q-8 -54 -1.5 -101t34.5 -81.5t80 -54t136 -19.5q52 0 92.5 11.5t71.5 27t54 32.5t39 29zM886 672q8 46 2 87t-27 72.5t-56.5 50t-86.5 18.5t-88.5 -15t-65 -37.5t-45.5 -47.5t-29 -44l-109 -103l176 18z" />
    <glyph glyph-name="f" unicode="f" 
d="M487 876h-256l39 224h256l25 142q19 97 52.5 170t85.5 121t125 69t171 15q52 -3 97.5 -15.5t82.5 -29t66.5 -35.5t50.5 -36l-164 -160q-29 20 -63 33.5t-78 18.5q-26 3 -47 -3.5t-36.5 -25.5t-27 -51t-19.5 -80l-24 -133h297l-66 -224h-256l-154 -876
q-20 -112 -48 -195.5t-75.5 -137.5t-121 -78t-185.5 -17q-37 2 -69 8.5t-57.5 14t-43.5 15.5t-28 14l90 197l3 -1q19 -8 42.5 -16t49.5 -6q28 3 49 18t36 41.5t26 62.5t21 80z" />
    <glyph glyph-name="g" unicode="g" 
d="M727 16q-35 -14 -85 -23.5t-108 -9.5q-101 0 -186.5 44.5t-143.5 121t-82.5 179t-4.5 217.5q21 117 78.5 221t143.5 182t197.5 123.5t240.5 45.5q18 0 30 -0.5t22 -2.5l63 -156l29 162l322 -20l-201 -1141q-17 -99 -70 -185.5t-135 -151t-188 -102t-230 -37.5
q-66 0 -118 10.5t-95.5 30.5t-79 49.5t-68.5 67.5l173 167q13 -14 36.5 -31t52.5 -33t62.5 -26.5t67.5 -10.5q42 0 86 20.5t81.5 56.5t65 84.5t37.5 104.5zM868 820q-23 32 -56 56t-78 24q-60 0 -109.5 -36t-86.5 -90.5t-61.5 -118.5t-34.5 -121q-12 -71 -4.5 -132
t28.5 -106t53 -70.5t69 -25.5q59 0 103.5 25t82.5 62z" />
    <glyph glyph-name="h" unicode="h" 
d="M409 0h-317l237 1339v229l363 32l-106 -600l94 100q46 10 98 13.5t116 3.5q177 0 252 -103t41 -296l-127 -718h-326l124 698q9 52 3.5 89t-20 60.5t-36 34t-43.5 10.5q-42 0 -73 -7.5t-55.5 -19.5t-44 -27t-37.5 -30z" />
    <glyph glyph-name="i" unicode="i" 
d="M588 1501h337l-46 -261h-337zM570 920l-164 -44h-194v224h642l-125 -677q-7 -39 -1.5 -73.5t21 -59.5t39.5 -39.5t54 -14.5q33 0 61.5 5.5t56 16.5t55 29t57.5 43l18 -232q-15 -11 -40 -30t-62.5 -38t-90 -33t-123.5 -14q-115 0 -192.5 36t-121 97.5t-55.5 143t4 172.5
l64 368z" />
    <glyph glyph-name="j" unicode="j" 
d="M855 1501h337l-46 -261h-337zM834 920l-164 -44h-195l1 224h641l-206 -1168q-16 -91 -57 -172.5t-106 -143t-155 -97.5t-205 -36q-71 0 -119 14t-79 33t-48.5 38t-29.5 30l100 232q43 -50 89 -72t112 -22q30 0 57 14t49.5 38.5t39 59t23.5 75.5l155 877z" />
    <glyph glyph-name="k" unicode="k" 
d="M103 0l246 1397v203l347 31l-152 -862l324 331h341l-433 -400l-217 -73l178 -63l379 -564h-348l-279 458l-80 -458h-306z" />
    <glyph glyph-name="l" unicode="l" 
d="M646 1386l-164 -44h-195v224h632l-208 -1178q-9 -51 -4.5 -85.5t17 -55.5t32 -30t40.5 -9q28 0 53 8.5t47 21.5t41.5 29.5t35.5 32.5l74 -193q-12 -9 -35.5 -29.5t-61 -41.5t-90 -37t-122.5 -16q-108 0 -180 34t-113 92t-51.5 136t4.5 165l151 856z" />
    <glyph glyph-name="m" unicode="m" 
d="M286 0h-314l193 1100l318 20l-21 -120l95 100q5 3 15 6t22 5.5t24.5 4t21.5 1.5q48 0 82 -3.5t58.5 -12.5t41.5 -24t32 -38q22 13 50.5 26.5t60 25t64.5 19t64 7.5q97 0 148.5 -27t71.5 -76.5t15.5 -120t-20.5 -157.5l-129 -736h-315l128 727q7 41 11.5 70.5t3.5 49
t-9 29t-26 9.5q-17 0 -33.5 -7t-31.5 -19t-26 -27.5t-17 -33.5q-1 -7 -2.5 -19.5t-4 -25t-4 -23.5t-2.5 -15l-126 -715h-304l125 708q7 42 11 75t3 55.5t-8 34.5t-23 12q-29 0 -57 -19t-45 -62z" />
    <glyph glyph-name="n" unicode="n" 
d="M412 0h-317l194 1100l320 20l-21 -120l95 100q39 10 83.5 13.5t102.5 3.5q91 0 159 -27t110 -76.5t56.5 -120t-1.5 -157.5l-129 -736h-317l129 736q7 41 0.5 70.5t-23.5 48.5t-41.5 28t-52.5 9q-63 0 -110.5 -20.5t-94.5 -63.5z" />
    <glyph glyph-name="o" unicode="o" 
d="M556 -17q-120 0 -212.5 43.5t-151 120t-80.5 180.5t-1 226q21 121 78.5 224.5t142.5 179t193.5 118t231.5 42.5q120 0 211.5 -42.5t148.5 -118t77.5 -179t-0.5 -224.5q-21 -122 -77 -226t-139.5 -180.5t-190.5 -120t-231 -43.5zM863 528q12 68 12 134t-16.5 118.5
t-52 84.5t-93.5 32q-56 0 -101 -27.5t-79.5 -73.5t-57.5 -104.5t-34 -120.5q-12 -69 -11 -135t19 -117.5t54.5 -83.5t95.5 -32q54 0 98 27.5t77.5 73.5t55.5 104t33 120z" />
    <glyph glyph-name="p" unicode="p" 
d="M486 200h78q67 0 131.5 29.5t118 80.5t91 119.5t51.5 146.5q15 81 9 142t-28.5 101.5t-58.5 60.5t-81 20q-27 0 -55 -8t-54.5 -20.5t-50.5 -28.5t-43 -32zM37 -500l282 1600l329 20l-31 -176l154 166q21 3 44 5t47 2q93 0 174 -39t136.5 -111.5t78.5 -174.5t1 -228
q-21 -123 -88 -226.5t-166 -178.5t-224 -117t-262 -42h-61l-88 -500h-326z" />
    <glyph glyph-name="q" unicode="q" 
d="M861 891q-29 4 -57 6.5t-66 2.5q-42 0 -80 -16t-71 -43t-61 -63.5t-50 -78t-37 -86t-23 -87.5q-15 -84 -7.5 -145t29.5 -101.5t56.5 -60t73.5 -19.5q36 0 63 5.5t48 16t38.5 24.5t35.5 32zM728 136l-142 -144q-50 -9 -94 -9q-92 0 -174 37.5t-139 107.5t-82 171t-2 227
q24 137 89.5 246.5t158 186t205.5 117.5t232 41q64 0 130.5 -9t125.5 -21.5t106 -26t71 -22.5l-271 -1538h-326z" />
    <glyph glyph-name="r" unicode="r" 
d="M559 1000l95 100q56 15 107 16t98 1q81 0 139.5 -9t99.5 -22.5t66.5 -28t40.5 -25.5v-297l-289 -35l-18 176q-19 3 -38.5 6t-39.5 3q-96 0 -172 -35.5t-133 -99.5l-132 -750h-317l194 1100l320 20z" />
    <glyph glyph-name="s" unicode="s" 
d="M1089 822q-25 18 -58 32t-70 23.5t-77 15t-79 5.5q-56 0 -104 -4t-83.5 -14.5t-58 -29t-27.5 -46.5q-5 -26 19 -44.5t62.5 -32.5t85.5 -24t89 -19q66 -15 134.5 -43t122 -70.5t82 -101t15.5 -134.5q-18 -100 -74.5 -167.5t-143 -108.5t-197.5 -58.5t-237 -17.5
q-60 0 -117.5 8.5t-109 23.5t-94.5 35.5t-73 44.5l135 210q61 -42 134.5 -69.5t165.5 -27.5q22 0 53 2t65 7t68 14.5t62 24.5t47.5 36.5t24.5 51.5q5 27 -16 48t-55.5 36.5t-77 27t-80.5 19.5q-82 18 -154 48t-124 73.5t-77 101.5t-12 134t63 130t127 88.5t177 50.5t215 16
q56 0 111 -8.5t103.5 -22t88 -30.5t63.5 -34z" />
    <glyph glyph-name="t" unicode="t" 
d="M602 388q-9 -51 -9 -84.5t8.5 -53.5t24 -28t37.5 -8q54 0 96 10t75 25t58.5 33t46.5 34l72 -181q-15 -11 -52 -36t-95.5 -51t-138.5 -45.5t-180 -19.5q-108 0 -167.5 34t-84 92t-21.5 136t18 165l82 466h-242l40 224h242l37 210l331 110l-56 -320h459l-67 -224h-428z" />
    <glyph glyph-name="u" unicode="u" 
d="M892 1100l321 20l-198 -1120h-317l18 100l-99 -100q-29 -8 -59.5 -12.5t-64.5 -4.5q-134 0 -217.5 38t-126.5 101.5t-51.5 145.5t6.5 170l117 662l320 20l-121 -682q-9 -52 -7.5 -93.5t17 -71t47.5 -45t83 -15.5q33 0 63 10t54.5 26t44 34t32.5 35z" />
    <glyph glyph-name="v" unicode="v" 
d="M509 700l3 -400l143 400l201 400l317 20l-574 -1137l-313 17l-157 1100l318 20z" />
    <glyph glyph-name="w" unicode="w" 
d="M766 600v-300h10l57 400l144 400l296 20l-416 -1120h-266l-29 400l20 200l-52 -200l-166 -400h-285v1100l291 20l-2 -420l-83 -400h10l105 300l117 300h235z" />
    <glyph glyph-name="x" unicode="x" 
d="M677 272l-31 202l-93 -202l-216 -272h-338l503 585l-265 515l345 20l102 -220l27 -200l95 200l165 200l358 20l-464 -539l306 -581h-361z" />
    <glyph glyph-name="y" unicode="y" 
d="M592 670l4 -470l142 470l239 430l333 20l-604 -1112q-45 -83 -93 -169.5t-107 -157.5t-133.5 -116t-171.5 -45q-67 0 -122.5 28t-104.5 78l155 180q20 -15 44 -27.5t51 -12.5q44 0 86.5 49.5t95.5 137.5l-217 1147l319 20z" />
    <glyph glyph-name="z" unicode="z" 
d="M683 200h373l-8 -200h-903l-18 85l518 672l241 168l-256 -25h-274l8 200h796l18 -83l-515 -678l-236 -164z" />
    <glyph glyph-name="braceleft" unicode="{" 
d="M1078 1260q-30 20 -71.5 32.5t-76.5 12.5q-30 -2 -50.5 -16.5t-34.5 -40.5t-23.5 -63.5t-17.5 -85.5l-42 -235q-10 -56 -34 -105t-55 -88.5t-65.5 -70t-64.5 -50.5q24 -20 47.5 -50t40.5 -70t24 -88.5t-3 -103.5l-43 -240q-8 -48 -12 -86t0.5 -65t20 -41t45.5 -14
q35 0 80.5 12.5t83.5 32.5l63 -185q-35 -15 -68 -28.5t-68.5 -23t-77 -15t-93.5 -5.5q-113 0 -182.5 32t-104 88t-39.5 132.5t10 165.5l43 240q16 89 9.5 141.5t-50.5 62.5l-135 20l32 178l141 20q48 11 73 63.5t40 140.5l42 235q16 89 47.5 165.5t86.5 132.5t135.5 88
t193.5 32q52 0 91.5 -5.5t71.5 -15t60.5 -22.5t58.5 -29z" />
    <glyph glyph-name="bar" unicode="|" 
d="M983 1520l-335 -1900h-332l331 1880z" />
    <glyph glyph-name="braceright" unicode="}" 
d="M409 1445q35 16 68 29t68.5 22.5t77 15t93.5 5.5q113 0 182.5 -32t104.5 -88t40 -132.5t-11 -165.5l-42 -235q-15 -88 -9 -140.5t50 -63.5l135 -20l-32 -178l-141 -20q-48 -10 -72.5 -62.5t-40.5 -141.5l-43 -240q-15 -89 -47 -165.5t-86.5 -132.5t-135 -88t-193.5 -32
q-52 0 -91.5 5.5t-72 15t-61 23t-58.5 28.5l129 185q30 -20 71.5 -32.5t76.5 -12.5q30 0 50.5 14t34.5 41t23.5 65t17.5 86l43 240q10 55 34 103.5t54.5 88.5t65 70t65.5 50q-23 20 -46.5 50.5t-41 70t-24.5 88.5t3 105l42 235q8 48 12 85.5t-1 63.5t-20 40.5t-45 16.5
q-35 0 -80.5 -12.5t-83.5 -32.5z" />
    <glyph glyph-name="asciitilde" unicode="~" 
d="M0 441q18 67 56.5 137t98.5 127t141.5 93.5t185.5 36.5q54 0 92.5 -10t67 -24.5t50.5 -31.5t44 -31.5t46.5 -24.5t58.5 -10q69 0 118.5 38t69.5 97l269 -36q-18 -73 -53 -145t-92 -129t-138.5 -92.5t-191.5 -35.5q-50 0 -85.5 10t-62.5 24.5t-48.5 31.5t-44.5 31.5
t-50.5 24.5t-66.5 10q-29 0 -55.5 -10t-48.5 -26.5t-39.5 -38.5t-27.5 -47z" />
    <glyph glyph-name="nonbreakingspace" unicode="&#xa0;" 
 />
    <glyph glyph-name="exclamdown" unicode="&#xa1;" 
d="M227 -400l186 1056l306 35l-192 -1091h-300zM779 951q-6 -34 -23.5 -63.5t-44 -52t-58.5 -35.5t-66 -13t-61 13t-45.5 35.5t-26 52t-1.5 63.5q6 33 24 63.5t43.5 53t57.5 36t66 13.5q33 0 61 -13.5t47 -36t26 -53t1 -63.5z" />
    <glyph glyph-name="cent" unicode="&#xa2;" 
d="M981 814q-20 23 -39.5 38t-37.5 25l-116 -654q35 13 69 29.5t65 35.5l78 -195q-58 -35 -120.5 -60.5t-131.5 -37.5l-32 -185h-290l34 196q-88 28 -148 84.5t-93.5 132t-41 166t9.5 186.5q15 87 52 169.5t95.5 152t138 121t179.5 77.5l37 207l296 38l-41 -235
q64 -15 116.5 -49.5t97.5 -94.5zM468 563q-22 -127 -1 -209.5t81 -121.5l113 641q-71 -33 -120.5 -108t-72.5 -202z" />
    <glyph glyph-name="sterling" unicode="&#xa3;" 
d="M683 216h321l-38 -216h-949l67 216h133q2 2 6 8.5t13 24.5q13 28 51.5 129t98.5 287h-128l38 218h159l86 267q25 79 62 146.5t90 116.5t123.5 76.5t163.5 27.5q54 0 95.5 -6.5t76 -21t65 -38t62.5 -56.5l-160 -167q-42 45 -72 60t-60 15q-23 0 -42 -13.5t-34.5 -38
t-29.5 -59t-27 -76.5l-75 -233h195l-65 -218h-198q-19 -64 -33 -109t-26 -81.5t-25 -70t-30 -73.5l-173 -174z" />
    <glyph glyph-name="currency" unicode="&#xa4;" 
d="M1106 232l-207 -177l-137 166q-86 -33 -180 -33q-48 0 -91.5 8t-79.5 25l-194 -166l-146 177l179 151q-20 48 -26 96t2 94q8 45 30.5 93t60.5 96l-126 151l208 179l136 -167q43 17 88.5 24.5t93.5 7.5q47 0 89.5 -7.5t79.5 -24.5l197 167l143 -179l-177 -151
q19 -48 24.5 -96t-2.5 -93q-8 -46 -30.5 -94.5t-58.5 -95.5zM484 573q-8 -48 1.5 -81.5t30 -53.5t48.5 -29t55 -9t58 9t58.5 29t48.5 53.5t29 81.5q9 48 -0.5 81t-30 53t-48 28.5t-54.5 8.5t-58 -8.5t-59 -28.5t-49 -53t-30 -81z" />
    <glyph glyph-name="yen" unicode="&#xa5;" 
d="M39 589h309l11 61l-18 50h-283l34 189h187l-201 611l345 20l125 -377l41 -370l124 370l245 357h335l-419 -611h218l-34 -189h-315l-33 -50l-11 -61h340l-33 -189h-340l-71 -400h-351l71 400h-309z" />
    <glyph glyph-name="brokenbar" unicode="&#xa6;" 
d="M1010 1520l-145 -820h-342l141 800zM806 362l-135 -762h-342l135 762h342z" />
    <glyph glyph-name="section" unicode="&#xa7;" 
d="M1059 1249q-38 23 -69 36.5t-57 21t-49 9.5t-44 2q-31 0 -60.5 -7.5t-53.5 -24.5t-41.5 -44.5t-24.5 -67.5q-7 -39 3 -69t31.5 -55t51 -47.5t61.5 -44.5q53 -37 106 -78t92.5 -92t59 -114.5t4.5 -146.5q-9 -48 -31.5 -93.5t-55 -83.5t-73 -68t-84.5 -48q32 -29 58 -61
t43 -67t23.5 -73t-0.5 -79q-15 -82 -57 -147.5t-109 -111.5t-155.5 -70.5t-196.5 -24.5q-47 0 -90 5t-84 17t-81 31t-81 48l136 170q38 -23 69 -37t57.5 -21.5t49 -10t43.5 -2.5q31 0 60.5 8t53.5 25.5t41 45.5t24 67t-2.5 69t-30.5 55.5t-50.5 47.5t-61.5 45
q-53 37 -106 77.5t-92.5 91.5t-59 114.5t-4.5 146.5q9 52 31.5 96t54.5 80t72 64.5t84 51.5q-32 30 -57.5 62t-42.5 67t-23.5 73t1.5 79q14 82 56 147t108.5 110.5t155.5 69.5t197 24q92 0 173 -20.5t162 -77.5zM631 747l-14 -10q-12 -9 -26.5 -22.5t-27.5 -31t-23.5 -39.5
t-14.5 -49q-6 -34 2 -63t25.5 -54.5t40.5 -48t47 -42.5l20 -15l14 11q25 18 53.5 53.5t38.5 88.5q6 33 -2.5 62t-25.5 54.5t-40 47.5t-47 42z" />
    <glyph glyph-name="dieresis" unicode="&#xa8;" 
d="M485 1566h276l-47 -266h-276zM885 1566h276l-47 -266h-276z" />
    <glyph glyph-name="copyright" unicode="&#xa9;" 
d="M732 1517q97 0 176 -37t132 -101t75 -149.5t5 -182.5q-17 -98 -69.5 -183.5t-127.5 -149t-167 -100.5t-189 -37t-176 37t-131.5 100.5t-74.5 149t-5 183.5q17 97 69 182.5t127 149.5t167 101t189 37zM588 701q70 0 137.5 27.5t123.5 74.5t95 110t52 134q12 72 -4 135
t-54.5 110t-96.5 74t-130 27t-139.5 -27t-123 -74t-94 -110t-50.5 -135q-12 -70 4 -132.5t54.5 -110t96.5 -75.5t129 -28zM805 1165q-26 26 -49.5 32.5t-47.5 6.5q-29 0 -52 -12.5t-39.5 -33.5t-27 -48.5t-15.5 -57.5q-5 -31 -5 -60.5t9 -52t28.5 -36.5t51.5 -14
q26 0 60 11.5t63 28.5l40 -88q-41 -23 -87.5 -36.5t-100.5 -13.5q-67 0 -113.5 22.5t-74 59.5t-36 85t0.5 100q8 47 32 91t64 78t95 54.5t125 20.5q54 0 94 -16.5t72 -54.5z" />
    <glyph glyph-name="ordfeminine" unicode="&#xaa;" 
d="M387 951q-39 0 -67.5 12t-48.5 32t-32.5 46.5t-18 57.5t-6 64.5t4.5 66.5q4 36 16 71.5t32 67.5t47 59t62.5 47t79 31t95.5 11q31 0 62 -4q27 -4 58.5 -11.5t60.5 -21.5l-72 -417l-7 -104h-161l14 81l-77 -86l-15 -3q-9 -1 -27 0zM189 810h442l-21 -120h-442zM565 1401
q-10 2 -18.5 3t-12.5 1q-37 0 -66 -15.5t-49.5 -41.5t-32.5 -60.5t-16 -73.5q-3 -31 -2 -58t6.5 -48t16 -33t24.5 -12q17 0 32.5 6t28.5 15t23.5 19.5t17.5 19.5z" />
    <glyph glyph-name="guillemotleft" unicode="&#xab;" 
d="M710 1106l49 -226l-383 -297l-82 -33l69 -33l283 -293l-136 -237l-469 489l25 144zM1210 1106l49 -226l-383 -297l-82 -33l69 -33l283 -293l-136 -237l-469 489l25 144z" />
    <glyph glyph-name="logicalnot" unicode="&#xac;" 
d="M1271 827l-62 -241l-58 -328h-342l36 201l37 141h-850l40 227h1199z" />
    <glyph glyph-name="sfthyphen" unicode="&#xad;" horiz-adv-x="0" 
 />
    <glyph glyph-name="registered" unicode="&#xae;" 
d="M732 1517q97 0 176 -37t132 -101t75 -149.5t5 -182.5q-17 -98 -69.5 -183.5t-127.5 -149t-167 -100.5t-189 -37t-176 37t-131.5 100.5t-74.5 149t-5 183.5q17 97 69 182.5t127 149.5t167 101t189 37zM588 701q70 0 137.5 27.5t123.5 74.5t95 110t52 134q12 72 -4 135
t-54.5 110t-96.5 74t-130 27t-139.5 -27t-123 -74t-94 -110t-50.5 -135q-12 -70 4 -132.5t54.5 -110t96.5 -75.5t129 -28zM629 1174l-19 -109h20q43 0 68 26.5t31 61.5q4 23 -0.5 38.5t-15 24.5t-24.5 12.5t-29 3.5h-16.5t-10.5 -1zM611 987q-3 4 -7.5 5t-6.5 1l-34 -193
h-113l74 418l1 73q14 1 32.5 3t38 3t37.5 2t32 1q88 0 135.5 -36t35.5 -106q-6 -36 -21.5 -61.5t-37 -43.5t-47.5 -30t-53 -19l43 -11l105 -193h-117z" />
    <glyph glyph-name="macron" unicode="&#xaf;" 
d="M319 1500h700l-39 -218h-700z" />
    <glyph glyph-name="degree" unicode="&#xb0;" 
d="M547 1517q61 0 111.5 -21t84 -58t48.5 -86t5 -105t-42 -105t-78.5 -85.5t-104.5 -58t-119 -21.5q-62 0 -112 21.5t-83.5 58t-48 85.5t-4.5 105t41.5 105t78 86t104 58t119.5 21zM482 1145q23 0 45 8t39.5 22t29.5 32.5t16 39.5q3 21 -2.5 39.5t-18.5 32.5t-32 22t-42 8
t-45 -8t-39.5 -22t-29.5 -32.5t-15 -39.5q-4 -21 1.5 -39.5t18.5 -32.5t32 -22t42 -8z" />
    <glyph glyph-name="plusminus" unicode="&#xb1;" 
d="M239 862h360l73 334h220l-73 -334h360l-36 -160h-360l-70 -320h-220l70 320h-360zM159 290h900l-39 -202h-900z" />
    <glyph glyph-name="twosuperior" unicode="&#xb2;" 
d="M123 720l16 95q30 37 68 77.5t77.5 80t76.5 74.5t65 60q33 29 55 49t37 37t23 34.5t12 40.5q4 19 1 37t-12 32.5t-24 23.5t-35 9q-41 0 -77 -27.5t-68 -74.5l-109 43q21 39 49.5 69.5t63.5 52.5t77 33.5t90 11.5q57 0 98.5 -18.5t66.5 -49t34.5 -69.5t2.5 -78
q-6 -35 -22.5 -64.5t-39.5 -57t-51.5 -54.5t-58.5 -57t-62.5 -61t-61.5 -59t-53 -51.5t-38 -38.5h321l-17 -100h-505z" />
    <glyph glyph-name="threesuperior" unicode="&#xb3;" 
d="M279 1189q17 10 40 25t49.5 33t54 38t53.5 40.5t48 41.5t38 40l-137 -37h-166l29 100h421l-16 -87q-22 -39 -57 -72t-76 -65l-85 -42q52 0 93 -13.5t67 -39t36 -62.5t2 -83q-9 -49 -36.5 -89.5t-68 -72.5t-92 -55.5t-108 -38.5t-115 -22.5t-113.5 -7.5l18 100
q59 2 117.5 15.5t106.5 36.5t80.5 56t39.5 73q5 29 -3.5 49t-27.5 32t-46 17.5t-58 5.5q-7 0 -21.5 -1t-30.5 -1.5t-30 -1.5t-22 -1z" />
    <glyph glyph-name="acute" unicode="&#xb4;" 
d="M592 1500l341 20l-342 -320h-215z" />
    <glyph glyph-name="mu" unicode="&#xb5;" 
d="M1282 51q-17 -14 -36.5 -26t-46 -21.5t-61 -15t-82.5 -5.5q-34 0 -65 12t-55.5 37t-42 64t-23.5 94l-68 -118q-20 -16 -46.5 -32t-59 -28.5t-70 -20.5t-80.5 -8q-20 0 -48 5t-56 13.5t-51.5 18.5t-33.5 20l29 -206l-59 -334h-310l282 1600l314 20l-134 -758
q-7 -38 0.5 -68.5t24 -51.5t40 -32t50.5 -11q43 0 83 20.5t75 48.5l147 832l314 20l-133 -755q-17 -92 -4.5 -129t47.5 -37q27 0 45.5 5.5t45.5 18.5z" />
    <glyph glyph-name="paragraph" unicode="&#xb6;" 
d="M934 1298h-134l-299 -1698h-269l177 1004q-75 10 -144.5 39t-118.5 81.5t-71 132.5t-2 193q15 87 49 154.5t81 117.5t103.5 84t117.5 55t123 30t120 9h570l-335 -1900h-267z" />
    <glyph glyph-name="periodcentered" unicode="&#xb7;" 
d="M103 683q7 41 29 77t53.5 63t70 42.5t79.5 15.5t74 -15.5t55.5 -42.5t31.5 -63t2 -77q-8 -41 -29.5 -77.5t-53 -63.5t-70 -43t-79.5 -16t-74.5 16t-55.5 43t-31.5 63.5t-1.5 77.5z" />
    <glyph glyph-name="cedilla" unicode="&#xb8;" 
d="M719 0q24 -20 42 -46q15 -23 24.5 -54.5t2.5 -70.5q-9 -50 -40 -93t-76 -74.5t-100.5 -50t-112.5 -18.5q-60 0 -114.5 18t-98.5 40q-51 26 -96 59l143 159q29 -20 58 -35q24 -13 51.5 -23.5t49.5 -10.5q23 0 45.5 12.5t27.5 40.5q4 21 -4 44.5t-20 44.5t-25 36.5
t-19 21.5h262z" />
    <glyph glyph-name="onesuperior" unicode="&#xb9;" 
d="M422 1160l69 181l-138 -135l-48 -37l-62 92l279 219l120 -10l-115 -650h122l-18 -100h-409l18 100h122z" />
    <glyph glyph-name="ordmasculine" unicode="&#xba;" 
d="M200 810h442l-21 -120h-442zM467 950q-60 0 -106.5 22t-75.5 60t-40 90t-1 113q11 61 39.5 112.5t71 89.5t97 59t115.5 21q60 0 106 -21t74.5 -59t38.5 -89.5t0 -112.5q-11 -61 -39 -113t-69.5 -90t-95 -60t-115.5 -22zM620 1223q6 34 6 67t-8 59t-26 42t-47 16
q-28 0 -50.5 -13.5t-39.5 -36.5t-28.5 -52.5t-17.5 -60.5q-6 -34 -5.5 -67t9.5 -59t27.5 -42t47.5 -16q27 0 49 14t39 37t28 52t16 60z" />
    <glyph glyph-name="guillemotright" unicode="&#xbb;" 
d="M789 619l-25 -143l-642 -489l-52 237l385 293l80 33l-69 32l-279 298l129 226zM1289 619l-25 -143l-642 -489l-52 237l385 293l80 33l-69 32l-279 298l129 226z" />
    <glyph glyph-name="onequarter" unicode="&#xbc;" 
d="M261 0h-185l1040 1500h176zM300 1160l69 181l-138 -135l-48 -37l-62 92l279 219l120 -10l-115 -650h122l-18 -100h-409l18 100h122zM1191 150h-89l-26 -150h-161l27 150h-280l18 100l336 510l139 -10l-231 -369l-110 -131h146l24 140l163 10l-27 -150h100z" />
    <glyph glyph-name="onehalf" unicode="&#xbd;" 
d="M251 0h-185l1040 1500h176zM676 0l16 95q30 37 68 77.5t77.5 80t76.5 74.5t65 60q33 29 55 49t37 37t23 34.5t12 40.5q4 19 1 37t-12 32.5t-24 23.5t-35 9q-41 0 -77 -27.5t-68 -74.5l-109 43q21 39 49.5 69.5t63.5 52.5t77 33.5t90 11.5q57 0 98.5 -18.5t66.5 -49
t34.5 -69.5t2.5 -78q-6 -35 -22.5 -64.5t-39.5 -57t-51.5 -54.5t-58.5 -57t-62.5 -61t-61.5 -59t-53 -51.5t-38 -38.5h321l-17 -100h-505zM300 1160l69 181l-138 -135l-48 -37l-62 92l279 219l120 -10l-115 -650h122l-18 -100h-409l18 100h122z" />
    <glyph glyph-name="threequarters" unicode="&#xbe;" 
d="M261 0h-185l1040 1500h176zM1169 150h-89l-26 -150h-161l27 150h-280l18 100l336 510l139 -10l-231 -369l-110 -131h146l24 140l163 10l-27 -150h100zM239 1189q17 10 40 25t49.5 33t54 38t53.5 40.5t48 41.5t38 40l-137 -37h-166l29 100h421l-16 -87q-22 -39 -57 -72
t-76 -65l-85 -42q52 0 93 -13.5t67 -39t36 -62.5t2 -83q-9 -49 -36.5 -89.5t-68 -72.5t-92 -55.5t-108 -38.5t-115 -22.5t-113.5 -7.5l18 100q59 2 117.5 15.5t106.5 36.5t80.5 56t39.5 73q5 29 -3.5 49t-27.5 32t-46 17.5t-58 5.5q-7 0 -21.5 -1t-30.5 -1.5t-30 -1.5
t-22 -1z" />
    <glyph glyph-name="questiondown" unicode="&#xbf;" 
d="M141 -24q11 60 39 109.5t68 92.5t88.5 81t98.5 76q34 25 68.5 56.5t65 71.5t54 90t34.5 113l317 35q-16 -87 -42 -163t-66.5 -143t-98 -125.5t-137.5 -111.5q-26 -19 -50.5 -39t-44.5 -42.5t-34.5 -49t-20.5 -59.5q-7 -40 2.5 -68.5t31 -47t52 -27t64.5 -8.5q26 0 65 8.5
t84.5 28t93.5 51.5t91 78l155 -151q-70 -76 -143.5 -124.5t-145.5 -76t-139.5 -38t-126.5 -10.5q-95 0 -179.5 23.5t-144.5 72t-88.5 122.5t-10.5 175zM1014 951q-6 -34 -23.5 -63.5t-44 -52t-58 -35.5t-65.5 -13t-61.5 13t-46 35.5t-26 52t-1.5 63.5q6 33 24 63.5t44 53
t58 36t66 13.5q33 0 61 -13.5t46.5 -36t25.5 -53t1 -63.5z" />
    <glyph glyph-name="Agrave" unicode="&#xc0;" 
d="M35 0l581 1284l64 216l392 20l162 -1520h-334l-28 427h-342l-177 -427h-318zM862 1331l-99 -341l-136 -344h224l-11 344zM1001 1600h-215l-228 320l333 -20z" />
    <glyph glyph-name="Aacute" unicode="&#xc1;" 
d="M35 0l581 1284l64 216l392 20l162 -1520h-334l-28 427h-342l-177 -427h-318zM862 1331l-99 -341l-136 -344h224l-11 344zM960 1900l341 20l-342 -320h-215z" />
    <glyph glyph-name="Acircumflex" unicode="&#xc2;" 
d="M35 0l581 1284l64 216l392 20l162 -1520h-334l-28 427h-342l-177 -427h-318zM862 1331l-99 -341l-136 -344h224l-11 344zM1231 1620h-220l-52 103l-7 127l-53 -127l-99 -103h-239l244 280l294 20z" />
    <glyph glyph-name="Atilde" unicode="&#xc3;" 
d="M35 0l581 1284l64 216l392 20l162 -1520h-334l-28 427h-342l-177 -427h-318zM862 1331l-99 -341l-136 -344h224l-11 344zM507 1627q11 40 35 85.5t61 83.5t87 63t113 25q49 0 80.5 -12.5t55.5 -27.5t46.5 -27.5t53.5 -12.5q21 0 36.5 7t26.5 19t19 28t14 34l166 -10
q-11 -44 -33 -90.5t-57 -84.5t-84.5 -62.5t-116.5 -24.5q-46 0 -75 12.5t-53 27.5t-48 27.5t-59 12.5q-18 0 -31 -7t-23.5 -18t-18.5 -25.5t-14 -29.5z" />
    <glyph glyph-name="Adieresis" unicode="&#xc4;" 
d="M35 0l581 1284l64 216l392 20l162 -1520h-334l-28 427h-342l-177 -427h-318zM862 1331l-99 -341l-136 -344h224l-11 344zM625 1866h276l-47 -266h-276zM1025 1866h276l-47 -266h-276z" />
    <glyph glyph-name="Aring" unicode="&#xc5;" 
d="M974 1927q59 0 107 -22.5t79.5 -61t44.5 -90.5t3 -111q-11 -59 -42 -111.5t-76 -92.5q-4 -3 -9 -7l153 -1431h-334l-28 427h-342l-177 -427h-318l581 1284l53 179q-19 31 -28 67q-14 53 -3 112q10 59 42 111t77.5 90.5t101.5 61t115 22.5zM862 1331l-99 -341l-136 -344
h224l-11 344zM907 1542q20 0 39 8t34.5 21.5t26 31.5t14.5 38q3 20 -1.5 37.5t-15 31t-27 21t-36.5 7.5t-39 -7.5t-34.5 -21t-26.5 -31t-14 -37.5q-4 -20 0.5 -38t15.5 -31.5t27.5 -21.5t36.5 -8z" />
    <glyph glyph-name="AE" unicode="&#xc6;" 
d="M1177 228l-67 -228h-630l59 231l35 196h-171l-222 -427h-263l651 1284l84 216h712l-40 -228h-332l-4 -70q-2 -35 -5 -69l-38 -217h249l-38 -213h-249l-60 -343l-31 -132h360zM710 1250l-120 -399l-109 -252h123z" />
    <glyph glyph-name="Ccedilla" unicode="&#xc7;" 
d="M1048 133q-115 -81 -234 -116q-47 -13 -96 -21q21 -19 37 -42q15 -23 24.5 -54.5t2.5 -70.5q-9 -50 -40 -93t-76 -74.5t-100.5 -50t-112.5 -18.5q-60 0 -114.5 18t-98.5 40q-51 26 -96 59l143 159q29 -20 58 -35q24 -13 51.5 -23.5t49.5 -10.5q23 0 45.5 12.5t27.5 40.5
q4 21 -4 44.5t-20 44.5t-25 37q-6 7 -11 12q-43 8 -82 20q-84 29 -148.5 80.5t-109.5 123.5t-68.5 159t-26.5 187.5t16 207.5q18 101 46 195.5t71 177.5t103.5 152t143.5 118.5t191 77t245 27.5q64 0 124.5 -11.5t114.5 -33.5t100 -54t82 -74l-180 -184q-29 22 -62 42
t-67.5 35t-70 24t-69.5 9q-95 0 -166 -39t-121.5 -106.5t-83.5 -158.5t-51 -194q-11 -61 -13.5 -124.5t4.5 -123.5t25 -113t48.5 -92.5t75 -62.5t103.5 -23q34 0 68 5.5t73 18t85.5 33t105.5 50.5z" />
    <glyph glyph-name="Egrave" unicode="&#xc8;" 
d="M1066 228l-67 -228h-960l58 231l182 1032v237h975l-40 -228h-597l-10 -138l-38 -218h516l-38 -213h-516l-60 -343l-32 -132h627zM1001 1600h-215l-228 320l333 -20z" />
    <glyph glyph-name="Eacute" unicode="&#xc9;" 
d="M1066 228l-67 -228h-960l58 231l182 1032v237h975l-40 -228h-597l-10 -138l-38 -218h516l-38 -213h-516l-60 -343l-32 -132h627zM777 1900l341 20l-342 -320h-215z" />
    <glyph glyph-name="Ecircumflex" unicode="&#xca;" 
d="M1066 228l-67 -228h-960l58 231l182 1032v237h975l-40 -228h-597l-10 -138l-38 -218h516l-38 -213h-516l-60 -343l-32 -132h627zM1143 1620h-220l-52 103l-7 127l-53 -127l-99 -103h-239l244 280l294 20z" />
    <glyph glyph-name="Edieresis" unicode="&#xcb;" 
d="M1066 228l-67 -228h-960l58 231l182 1032v237h975l-40 -228h-597l-10 -138l-38 -218h516l-38 -213h-516l-60 -343l-32 -132h627zM486 1866h276l-47 -266h-276zM886 1866h276l-47 -266h-276z" />
    <glyph glyph-name="Igrave" unicode="&#xcc;" 
d="M353 1500h878l-40 -228h-273l-185 -1044h301l-75 -228h-878l40 228h278l185 1044h-306zM996 1600h-215l-228 320l333 -20z" />
    <glyph glyph-name="Iacute" unicode="&#xcd;" 
d="M353 1500h878l-40 -228h-273l-185 -1044h301l-75 -228h-878l40 228h278l185 1044h-306zM957 1900l341 20l-342 -320h-215z" />
    <glyph glyph-name="Icircumflex" unicode="&#xce;" 
d="M353 1500h878l-40 -228h-273l-185 -1044h301l-75 -228h-878l40 228h278l185 1044h-306zM1178 1624h-220l-52 103l-7 127l-53 -127l-99 -103h-239l244 280l294 20z" />
    <glyph glyph-name="Idieresis" unicode="&#xcf;" 
d="M353 1500h878l-40 -228h-273l-185 -1044h301l-75 -228h-878l40 228h278l185 1044h-306zM514 1966h276l-47 -266h-276zM914 1966h276l-47 -266h-276z" />
    <glyph glyph-name="Eth" unicode="&#xd0;" 
d="M2 888h160l66 375v237q50 5 107 8t112 5t104 3t82 1q168 0 303.5 -40.5t224.5 -126.5t124 -220.5t2 -322.5q-26 -145 -75.5 -261.5t-117.5 -206t-152.5 -154t-179 -105.5t-197 -60.5t-207.5 -19.5h-352l117 665h-159zM585 1289h-10.5t-11.5 -1l-8 -161l-42 -239h180
l-39 -223h-180l-77 -435q106 6 185 36t135.5 74.5t93.5 100t61 114.5t37 116.5t22 106.5q20 112 19 206t-37.5 162t-114.5 105.5t-213 37.5z" />
    <glyph glyph-name="Ntilde" unicode="&#xd1;" 
d="M739 0l-296 950h-10l9 -301l-115 -649h-322l222 1263v237l339 20l295 -920h10l-14 252l114 648l326 20l-269 -1520h-289zM441 1627q11 40 35 85.5t61 83.5t87 63t113 25q49 0 80.5 -12.5t55.5 -27.5t46.5 -27.5t53.5 -12.5q21 0 36.5 7t26.5 19t19 28t14 34l166 -10
q-11 -44 -33 -90.5t-57 -84.5t-84.5 -62.5t-116.5 -24.5q-46 0 -75 12.5t-53 27.5t-48 27.5t-59 12.5q-18 0 -31 -7t-23.5 -18t-18.5 -25.5t-14 -29.5z" />
    <glyph glyph-name="Ograve" unicode="&#xd2;" 
d="M488 -17q-98 0 -175.5 27.5t-135 78t-95.5 120.5t-57 155.5t-19 183t19 202.5q18 105 52 202.5t82 183t110 155.5t137 120.5t163.5 78t189.5 27.5q147 0 248 -61t158 -165t71 -244t-14 -297q-19 -105 -52.5 -202.5t-81.5 -183t-110 -155.5t-137.5 -120.5t-164 -78
t-188.5 -27.5zM866 721q11 62 19 127t9.5 126.5t-6.5 116t-29 95t-57 64.5t-92 24q-52 0 -94 -21.5t-75.5 -58t-59 -85t-45 -103t-33.5 -112t-23 -111.5q-11 -63 -19 -128.5t-9 -127.5t7 -116.5t29 -95.5t57 -65t91 -24q77 0 133 47t95 120t63.5 160t38.5 168zM1001 1600
h-215l-228 320l333 -20z" />
    <glyph glyph-name="Oacute" unicode="&#xd3;" 
d="M488 -17q-98 0 -175.5 27.5t-135 78t-95.5 120.5t-57 155.5t-19 183t19 202.5q18 105 52 202.5t82 183t110 155.5t137 120.5t163.5 78t189.5 27.5q147 0 248 -61t158 -165t71 -244t-14 -297q-19 -105 -52.5 -202.5t-81.5 -183t-110 -155.5t-137.5 -120.5t-164 -78
t-188.5 -27.5zM866 721q11 62 19 127t9.5 126.5t-6.5 116t-29 95t-57 64.5t-92 24q-52 0 -94 -21.5t-75.5 -58t-59 -85t-45 -103t-33.5 -112t-23 -111.5q-11 -63 -19 -128.5t-9 -127.5t7 -116.5t29 -95.5t57 -65t91 -24q77 0 133 47t95 120t63.5 160t38.5 168zM792 1900
l341 20l-342 -320h-215z" />
    <glyph glyph-name="Ocircumflex" unicode="&#xd4;" 
d="M487 -17q-98 0 -175.5 27.5t-135 78t-95.5 120.5t-57 155.5t-19 183t19 202.5q18 105 52 202.5t82 183t110 155.5t137 120.5t163.5 78t189.5 27.5q147 0 248 -61t158 -165t71 -244t-14 -297q-19 -105 -52.5 -202.5t-81.5 -183t-110 -155.5t-137.5 -120.5t-164 -78
t-188.5 -27.5zM865 721q11 62 19 127t9.5 126.5t-6.5 116t-29 95t-57 64.5t-92 24q-52 0 -94 -21.5t-75.5 -58t-59 -85t-45 -103t-33.5 -112t-23 -111.5q-11 -63 -19 -128.5t-9 -127.5t7 -116.5t29 -95.5t57 -65t91 -24q77 0 133 47t95 120t63.5 160t38.5 168zM1125 1620
h-220l-52 103l-7 127l-53 -127l-99 -103h-239l244 280l294 20z" />
    <glyph glyph-name="Otilde" unicode="&#xd5;" 
d="M514 -17q-98 0 -175.5 27.5t-135 78t-95.5 120.5t-57 155.5t-19 183t19 202.5q18 105 52 202.5t82 183t110 155.5t137 120.5t163.5 78t189.5 27.5q147 0 248 -61t158 -165t71 -244t-14 -297q-19 -105 -52.5 -202.5t-81.5 -183t-110 -155.5t-137.5 -120.5t-164 -78
t-188.5 -27.5zM892 721q11 62 19 127t9.5 126.5t-6.5 116t-29 95t-57 64.5t-92 24q-52 0 -94 -21.5t-75.5 -58t-59 -85t-45 -103t-33.5 -112t-23 -111.5q-11 -63 -19 -128.5t-9 -127.5t7 -116.5t29 -95.5t57 -65t91 -24q77 0 133 47t95 120t63.5 160t38.5 168zM455 1627
q11 40 35 85.5t61 83.5t87 63t113 25q49 0 80.5 -12.5t55.5 -27.5t46.5 -27.5t53.5 -12.5q21 0 36.5 7t26.5 19t19 28t14 34l166 -10q-11 -44 -33 -90.5t-57 -84.5t-84.5 -62.5t-116.5 -24.5q-46 0 -75 12.5t-53 27.5t-48 27.5t-59 12.5q-18 0 -31 -7t-23.5 -18t-18.5 -25.5
t-14 -29.5z" />
    <glyph glyph-name="Odieresis" unicode="&#xd6;" 
d="M518 -17q-98 0 -175.5 27.5t-135 78t-95.5 120.5t-57 155.5t-19 183t19 202.5q18 105 52 202.5t82 183t110 155.5t137 120.5t163.5 78t189.5 27.5q147 0 248 -61t158 -165t71 -244t-14 -297q-19 -105 -52.5 -202.5t-81.5 -183t-110 -155.5t-137.5 -120.5t-164 -78
t-188.5 -27.5zM896 721q11 62 19 127t9.5 126.5t-6.5 116t-29 95t-57 64.5t-92 24q-52 0 -94 -21.5t-75.5 -58t-59 -85t-45 -103t-33.5 -112t-23 -111.5q-11 -63 -19 -128.5t-9 -127.5t7 -116.5t29 -95.5t57 -65t91 -24q77 0 133 47t95 120t63.5 160t38.5 168zM538 1866h276
l-47 -266h-276zM938 1866h276l-47 -266h-276z" />
    <glyph glyph-name="multiply" unicode="&#xd7;" 
d="M212 119l-161 150l430 364l-301 365l213 151l248 -302l49 -118l43 118l353 302l161 -151l-430 -365l301 -364l-213 -150l-247 300l-49 119l-43 -119z" />
    <glyph glyph-name="Oslash" unicode="&#xd8;" 
d="M514 -17q-73 0 -134 15l-49 -98h-210l91 180l-9 8q-57 51 -95 121t-57 155.5t-19 183t19 202.5q18 105 52 202.5t82 183t110 155.5t137 120.5t163.5 78t189.5 27.5q78 0 144 -18l51 101h200l-92 -184q62 -52 103 -125q57 -104 71 -244t-14 -297q-19 -105 -52.5 -202.5
t-81.5 -183t-110 -155.5t-137.5 -120.5t-164 -78t-188.5 -27.5zM736 1274q-52 0 -94 -21.5t-75.5 -58t-59 -85t-45 -103t-33.5 -112t-23 -111.5q-11 -63 -19 -128.5t-9 -127.5q-1 -57 5 -108l425 841q-30 14 -72 14zM892 721q11 62 19 127t9 126q2 52 -4 98l-417 -836
q27 -10 63 -10q77 0 133 47t95 120t63.5 160t38.5 168z" />
    <glyph glyph-name="Ugrave" unicode="&#xd9;" 
d="M1261 1500l-170 -966q-24 -139 -79.5 -242.5t-137.5 -172t-188.5 -102.5t-232.5 -34q-136 0 -222.5 43t-131 122t-51 189.5t17.5 244.5l120 681v237l377 20l-169 -956q-14 -81 -19 -145t6.5 -108t43.5 -67t91 -23q91 0 152.5 73.5t87.5 221.5l173 984h332zM901 1600h-215
l-228 320l333 -20z" />
    <glyph glyph-name="Uacute" unicode="&#xda;" 
d="M1261 1500l-170 -966q-24 -139 -79.5 -242.5t-137.5 -172t-188.5 -102.5t-232.5 -34q-136 0 -222.5 43t-131 122t-51 189.5t17.5 244.5l120 681v237l377 20l-169 -956q-14 -81 -19 -145t6.5 -108t43.5 -67t91 -23q91 0 152.5 73.5t87.5 221.5l173 984h332zM818 1900
l341 20l-342 -320h-215z" />
    <glyph glyph-name="Ucircumflex" unicode="&#xdb;" 
d="M1261 1500l-170 -966q-24 -139 -79.5 -242.5t-137.5 -172t-188.5 -102.5t-232.5 -34q-136 0 -222.5 43t-131 122t-51 189.5t17.5 244.5l120 681v237l377 20l-169 -956q-14 -81 -19 -145t6.5 -108t43.5 -67t91 -23q91 0 152.5 73.5t87.5 221.5l173 984h332zM1135 1620
h-220l-52 103l-7 127l-53 -127l-99 -103h-239l244 280l294 20z" />
    <glyph glyph-name="Udieresis" unicode="&#xdc;" 
d="M1261 1500l-170 -966q-24 -139 -79.5 -242.5t-137.5 -172t-188.5 -102.5t-232.5 -34q-136 0 -222.5 43t-131 122t-51 189.5t17.5 244.5l120 681v237l377 20l-169 -956q-14 -81 -19 -145t6.5 -108t43.5 -67t91 -23q91 0 152.5 73.5t87.5 221.5l173 984h332zM486 1866h276
l-47 -266h-276zM886 1866h276l-47 -266h-276z" />
    <glyph glyph-name="Yacute" unicode="&#xdd;" 
d="M487 1143l42 -370l123 370l245 357h335l-583 -850l-115 -650h-351l115 650l-279 850l343 20zM616 1900l341 20l-342 -320h-215z" />
    <glyph glyph-name="Thorn" unicode="&#xde;" 
d="M310 1500h383l-34 -189h114q51 0 106.5 -9t108 -29.5t97.5 -53.5t75.5 -81t42.5 -111.5t-2 -144.5q-10 -57 -29.5 -118.5t-57 -120.5t-96.5 -112t-148 -93q-28 -12 -59 -22.5t-67 -18t-79 -12t-94 -4.5h-76l-67 -381h-342l224 1267v233zM621 1093l-86 -488h104
q49 0 89 21t70 58.5t50 88t31 109.5q17 101 -29.5 156t-143.5 55h-85z" />
    <glyph glyph-name="germandbls" unicode="&#xdf;" 
d="M417 -17l-339 17l188 1073q18 103 67.5 181t123 130.5t167 78.5t201.5 26q102 0 186 -28t135 -88q43 -51 62 -107.5t8 -138.5q-7 -53 -30 -100.5t-58 -87.5t-80 -72t-96 -56q60 -21 109.5 -52t83.5 -73t47.5 -96.5t1.5 -123.5q-15 -86 -51 -154t-86 -120t-111.5 -88.5
t-127.5 -59.5t-134.5 -33.5t-132.5 -10.5l-42 224q146 3 236.5 59t110.5 174q10 59 0.5 101.5t-35 69.5t-65.5 40t-91 13l-56 221q55 5 102 19.5t82.5 39.5t59 61t32.5 85q6 35 0.5 66t-19 54t-35 36t-46.5 13q-71 0 -112 -36.5t-56 -120.5z" />
    <glyph glyph-name="agrave" unicode="&#xe0;" 
d="M840 885q-20 3 -37 5t-24 3q-75 0 -132.5 -31t-98.5 -83t-65.5 -121.5t-32.5 -147.5q-6 -61 -3.5 -115.5t13.5 -96t31.5 -65.5t49.5 -24q34 0 64.5 11.5t57 29.5t47 39t35.5 40zM484 -16q-77 1 -134 24.5t-97.5 63.5t-65 93.5t-36 115t-12 128.5t8.5 133q9 72 33 143
t63.5 135t94 118.5t125 94t158 62t191.5 22.5q61 -1 123 -9q54 -7 117 -22t121 -43l-143 -834l-14 -209h-322l28 162l-155 -172q-11 -2 -29 -4.5t-55 -1.5zM964 1200h-215l-228 320l333 -20z" />
    <glyph glyph-name="aacute" unicode="&#xe1;" 
d="M840 885q-20 3 -37 5t-24 3q-75 0 -132.5 -31t-98.5 -83t-65.5 -121.5t-32.5 -147.5q-6 -61 -3.5 -115.5t13.5 -96t31.5 -65.5t49.5 -24q34 0 64.5 11.5t57 29.5t47 39t35.5 40zM484 -16q-77 1 -134 24.5t-97.5 63.5t-65 93.5t-36 115t-12 128.5t8.5 133q9 72 33 143
t63.5 135t94 118.5t125 94t158 62t191.5 22.5q61 -1 123 -9q54 -7 117 -22t121 -43l-143 -834l-14 -209h-322l28 162l-155 -172q-11 -2 -29 -4.5t-55 -1.5zM892 1500l341 20l-342 -320h-215z" />
    <glyph glyph-name="acircumflex" unicode="&#xe2;" 
d="M840 885q-20 3 -37 5t-24 3q-75 0 -132.5 -31t-98.5 -83t-65.5 -121.5t-32.5 -147.5q-6 -61 -3.5 -115.5t13.5 -96t31.5 -65.5t49.5 -24q34 0 64.5 11.5t57 29.5t47 39t35.5 40zM484 -16q-77 1 -134 24.5t-97.5 63.5t-65 93.5t-36 115t-12 128.5t8.5 133q9 72 33 143
t63.5 135t94 118.5t125 94t158 62t191.5 22.5q61 -1 123 -9q54 -7 117 -22t121 -43l-143 -834l-14 -209h-322l28 162l-155 -172q-11 -2 -29 -4.5t-55 -1.5zM1143 1220h-220l-52 103l-7 127l-53 -127l-99 -103h-239l244 280l294 20z" />
    <glyph glyph-name="atilde" unicode="&#xe3;" 
d="M840 885q-20 3 -37 5t-24 3q-75 0 -132.5 -31t-98.5 -83t-65.5 -121.5t-32.5 -147.5q-6 -61 -3.5 -115.5t13.5 -96t31.5 -65.5t49.5 -24q34 0 64.5 11.5t57 29.5t47 39t35.5 40zM484 -16q-77 1 -134 24.5t-97.5 63.5t-65 93.5t-36 115t-12 128.5t8.5 133q9 72 33 143
t63.5 135t94 118.5t125 94t158 62t191.5 22.5q61 -1 123 -9q54 -7 117 -22t121 -43l-143 -834l-14 -209h-322l28 162l-155 -172q-11 -2 -29 -4.5t-55 -1.5zM400 1247q11 40 35 85.5t61 83.5t87 63t113 25q49 0 80.5 -12.5t55.5 -27.5t46.5 -27.5t53.5 -12.5q21 0 36.5 7
t26.5 19t19 28t14 34l166 -10q-11 -44 -33 -90.5t-57 -84.5t-84.5 -62.5t-116.5 -24.5q-46 0 -75 12.5t-53 27.5t-48 27.5t-59 12.5q-18 0 -31 -7t-23.5 -18t-18.5 -25.5t-14 -29.5z" />
    <glyph glyph-name="adieresis" unicode="&#xe4;" 
d="M840 885q-20 3 -37 5t-24 3q-75 0 -132.5 -31t-98.5 -83t-65.5 -121.5t-32.5 -147.5q-6 -61 -3.5 -115.5t13.5 -96t31.5 -65.5t49.5 -24q34 0 64.5 11.5t57 29.5t47 39t35.5 40zM484 -16q-77 1 -134 24.5t-97.5 63.5t-65 93.5t-36 115t-12 128.5t8.5 133q9 72 33 143
t63.5 135t94 118.5t125 94t158 62t191.5 22.5q61 -1 123 -9q54 -7 117 -22t121 -43l-143 -834l-14 -209h-322l28 162l-155 -172q-11 -2 -29 -4.5t-55 -1.5zM547 1566h276l-47 -266h-276zM947 1566h276l-47 -266h-276z" />
    <glyph glyph-name="aring" unicode="&#xe5;" 
d="M900 1682q59 0 107 -22.5t79.5 -61t44.5 -90.5t3 -111q-11 -59 -42 -111.5t-76 -92t-101 -62.5q-25 -11 -50 -16q35 -3 71 -7q54 -7 117 -22t121 -43l-143 -834l-14 -209h-322l28 162l-155 -172q-11 -2 -29 -4.5t-55 -1.5q-77 1 -134 24.5t-97.5 63.5t-65 93.5t-36 115
t-12 128.5t8.5 133q9 72 33 143t63.5 135t94 118.5t125 94t157.5 61.5q57 15 120 20q-25 6 -48 17q-48 23 -80 62.5t-46 92t-3 111.5q10 59 42 111t77.5 90.5t101.5 61t115 22.5zM840 885q-20 3 -37 5t-24 3q-75 0 -132.5 -31t-98.5 -83t-65.5 -121.5t-32.5 -147.5
q-6 -61 -3.5 -115.5t13.5 -96t31.5 -65.5t49.5 -24q34 0 64.5 11.5t57 29.5t47 39t35.5 40zM833 1297q20 0 39 8t34.5 21.5t26 31.5t14.5 38q3 20 -1.5 37.5t-15 31t-27 21t-36.5 7.5t-39 -7.5t-34.5 -21t-26.5 -31t-14 -37.5q-4 -20 0.5 -38t15.5 -31.5t27.5 -21.5t36.5 -8
z" />
    <glyph glyph-name="ae" unicode="&#xe6;" 
d="M577 87q-46 -45 -115.5 -74.5t-164.5 -29.5q-176 0 -247 96t-39 279q33 192 134 285t265 93h37q17 0 33 -2q6 37 10 66t2 49.5t-12.5 31.5t-33.5 11q-38 0 -72.5 -8.5t-62.5 -19.5q-33 -12 -61 -28l-67 189q49 26 109 46q51 17 119.5 31.5t149.5 14.5q63 0 108.5 -19
t72.5 -47q52 33 114.5 49.5t128.5 16.5t123 -16t99.5 -51.5t67 -90.5t24.5 -133q0 -91 -25.5 -180.5t-63.5 -179.5h-425q-2 -11 -4 -22.5t-4 -22.5q-9 -52 -8 -99q0 -56 30.5 -87.5t88.5 -34.5q52 2 92 31.5t75 67.5l142 -138l-42 -43q-42 -40 -81 -66t-79.5 -41.5
t-84 -21.5t-94.5 -6q-26 0 -57.5 6.5t-64 19.5t-63 32.5t-54.5 45.5zM733 681h310l15 87q3 18 1.5 39.5t-11 40t-28.5 31.5t-50 13q-30 0 -53.5 -13t-41 -31.5t-29 -40t-18.5 -39.5zM441 513h-9q-25 0 -55 -8.5t-57.5 -26.5t-49 -47.5t-28.5 -71.5q-13 -71 5.5 -111
t61.5 -40q27 0 44.5 13t28.5 30q12 18 20 43z" />
    <glyph glyph-name="ccedilla" unicode="&#xe7;" 
d="M1006 772q-37 61 -91 87t-131 26q-61 0 -121.5 -23.5t-111 -66.5t-87 -104.5t-49.5 -137.5q-12 -69 4.5 -127.5t53 -100.5t88 -65.5t109.5 -23.5q52 0 96 9.5t81 26t66 37.5t51 44l86 -216q-21 -16 -61 -42t-97.5 -51t-132.5 -43q-26 -6 -53 -10q17 -17 31 -37
q15 -23 24.5 -54.5t2.5 -70.5q-9 -50 -40 -93t-76 -74.5t-100.5 -50t-112.5 -18.5q-60 0 -114.5 18t-98.5 40q-51 26 -96 59l143 159q29 -20 58 -35q24 -13 51.5 -23.5t49.5 -10.5q23 0 45.5 12.5t27.5 40.5q4 21 -4 44.5t-20 44.5t-25 36.5t-19 21.5h10q-44 11 -84 29
q-100 46 -163.5 124.5t-87 182.5t-3.5 219q12 69 36.5 138t63.5 131.5t94 116t127.5 92.5t164.5 61.5t205 22.5q134 0 237.5 -37.5t166.5 -122.5z" />
    <glyph glyph-name="egrave" unicode="&#xe8;" 
d="M1078 158q-46 -37 -98 -68.5t-112 -55t-130 -37t-152 -13.5q-144 0 -245.5 47t-161.5 125.5t-79.5 180.5t0.5 213q12 71 38 140.5t65.5 132.5t93.5 116.5t122.5 93t151.5 62t181 22.5q120 0 208 -35.5t141.5 -99.5t72 -153t-0.5 -197q-5 -27 -16 -71t-25 -95h-737
q-8 -54 -1.5 -101t34.5 -81.5t80 -54t136 -19.5q52 0 92.5 11.5t71.5 27t54 32.5t39 29zM886 672q8 46 2 87t-27 72.5t-56.5 50t-86.5 18.5t-88.5 -15t-65 -37.5t-45.5 -47.5t-29 -44l-109 -103l176 18zM901 1200h-215l-228 320l333 -20z" />
    <glyph glyph-name="eacute" unicode="&#xe9;" 
d="M1078 158q-46 -37 -98 -68.5t-112 -55t-130 -37t-152 -13.5q-144 0 -245.5 47t-161.5 125.5t-79.5 180.5t0.5 213q12 71 38 140.5t65.5 132.5t93.5 116.5t122.5 93t151.5 62t181 22.5q120 0 208 -35.5t141.5 -99.5t72 -153t-0.5 -197q-5 -27 -16 -71t-25 -95h-737
q-8 -54 -1.5 -101t34.5 -81.5t80 -54t136 -19.5q52 0 92.5 11.5t71.5 27t54 32.5t39 29zM886 672q8 46 2 87t-27 72.5t-56.5 50t-86.5 18.5t-88.5 -15t-65 -37.5t-45.5 -47.5t-29 -44l-109 -103l176 18zM818 1500l341 20l-342 -320h-215z" />
    <glyph glyph-name="ecircumflex" unicode="&#xea;" 
d="M1078 158q-46 -37 -98 -68.5t-112 -55t-130 -37t-152 -13.5q-144 0 -245.5 47t-161.5 125.5t-79.5 180.5t0.5 213q12 71 38 140.5t65.5 132.5t93.5 116.5t122.5 93t151.5 62t181 22.5q120 0 208 -35.5t141.5 -99.5t72 -153t-0.5 -197q-5 -27 -16 -71t-25 -95h-737
q-8 -54 -1.5 -101t34.5 -81.5t80 -54t136 -19.5q52 0 92.5 11.5t71.5 27t54 32.5t39 29zM886 672q8 46 2 87t-27 72.5t-56.5 50t-86.5 18.5t-88.5 -15t-65 -37.5t-45.5 -47.5t-29 -44l-109 -103l176 18zM1135 1220h-220l-52 103l-7 127l-53 -127l-99 -103h-239l244 280
l294 20z" />
    <glyph glyph-name="edieresis" unicode="&#xeb;" 
d="M1078 158q-46 -37 -98 -68.5t-112 -55t-130 -37t-152 -13.5q-144 0 -245.5 47t-161.5 125.5t-79.5 180.5t0.5 213q12 71 38 140.5t65.5 132.5t93.5 116.5t122.5 93t151.5 62t181 22.5q120 0 208 -35.5t141.5 -99.5t72 -153t-0.5 -197q-5 -27 -16 -71t-25 -95h-737
q-8 -54 -1.5 -101t34.5 -81.5t80 -54t136 -19.5q52 0 92.5 11.5t71.5 27t54 32.5t39 29zM886 672q8 46 2 87t-27 72.5t-56.5 50t-86.5 18.5t-88.5 -15t-65 -37.5t-45.5 -47.5t-29 -44l-109 -103l176 18zM535 1566h276l-47 -266h-276zM935 1566h276l-47 -266h-276z" />
    <glyph glyph-name="igrave" unicode="&#xec;" 
d="M515 834l91 62l-96 -20h-263v224h642l-119 -677q-8 -41 -3.5 -75.5t18 -59t36 -38.5t52.5 -14q33 0 62.5 5.5t57.5 16.5t56 29t58 43l18 -232q-15 -11 -40 -30t-62.5 -38t-90 -33t-123.5 -14q-115 0 -192.5 36t-121 97.5t-55.5 143t4 172.5zM891 1200h-215l-228 320
l333 -20z" />
    <glyph glyph-name="iacute" unicode="&#xed;" 
d="M515 834l91 62l-96 -20h-263v224h642l-119 -677q-8 -41 -3.5 -75.5t18 -59t36 -38.5t52.5 -14q33 0 62.5 5.5t57.5 16.5t56 29t58 43l18 -232q-15 -11 -40 -30t-62.5 -38t-90 -33t-123.5 -14q-115 0 -192.5 36t-121 97.5t-55.5 143t4 172.5zM762 1500l341 20l-342 -320
h-215z" />
    <glyph glyph-name="icircumflex" unicode="&#xee;" 
d="M515 834l91 62l-96 -20h-263v224h642l-119 -677q-8 -41 -3.5 -75.5t18 -59t36 -38.5t52.5 -14q33 0 62.5 5.5t57.5 16.5t56 29t58 43l18 -232q-15 -11 -40 -30t-62.5 -38t-90 -33t-123.5 -14q-115 0 -192.5 36t-121 97.5t-55.5 143t4 172.5zM1094 1220h-220l-52 103
l-7 127l-53 -127l-99 -103h-239l244 280l294 20z" />
    <glyph glyph-name="idieresis" unicode="&#xef;" 
d="M515 834l91 62l-96 -20h-263v224h642l-119 -677q-8 -41 -3.5 -75.5t18 -59t36 -38.5t52.5 -14q33 0 62.5 5.5t57.5 16.5t56 29t58 43l18 -232q-15 -11 -40 -30t-62.5 -38t-90 -33t-123.5 -14q-115 0 -192.5 36t-121 97.5t-55.5 143t4 172.5zM485 1566h276l-47 -266h-276z
M885 1566h276l-47 -266h-276z" />
    <glyph glyph-name="eth" unicode="&#xf0;" 
d="M496 1154l231 166l-148 -24q-42 14 -77 14q-27 0 -52.5 -2.5t-48.5 -7.5v208q33 3 55.5 5t38 3t25.5 1h20q100 0 183.5 -22t152.5 -62l172 128l110 -166l-212 -156h128q41 -62 66.5 -136t37 -155t9 -166.5t-17.5 -169.5q-9 -54 -31 -121t-58 -137t-87 -136.5t-119.5 -119
t-154.5 -84t-192 -31.5q-118 0 -203 35.5t-136 100t-67.5 154.5t3.5 199q20 112 68 199t119 145.5t162.5 89t199.5 30.5q48 0 95.5 -7t92.5 -25q1 25 -2.5 54.5t-12.5 59.5t-22.5 58t-31.5 50l-182 -133zM844 596q-14 20 -31.5 41t-40.5 37.5t-53.5 27t-70.5 10.5
q-46 0 -83.5 -20t-66.5 -54.5t-48.5 -81.5t-28.5 -101q-10 -54 -3.5 -99t26 -78t51 -51.5t71.5 -18.5q39 0 74.5 17.5t65.5 47t54 69t41 84.5q17 43 26 84t17 86z" />
    <glyph glyph-name="ntilde" unicode="&#xf1;" 
d="M411 0h-317l194 1100l320 20l-21 -120l95 100q39 10 83.5 13.5t102.5 3.5q91 0 159 -27t110 -76.5t56.5 -120t-1.5 -157.5l-129 -736h-317l129 736q7 41 0.5 70.5t-23.5 48.5t-41.5 28t-52.5 9q-63 0 -110.5 -20.5t-94.5 -63.5zM403 1247q11 40 35 85.5t61 83.5t87 63
t113 25q49 0 80.5 -12.5t55.5 -27.5t46.5 -27.5t53.5 -12.5q21 0 36.5 7t26.5 19t19 28t14 34l166 -10q-11 -44 -33 -90.5t-57 -84.5t-84.5 -62.5t-116.5 -24.5q-46 0 -75 12.5t-53 27.5t-48 27.5t-59 12.5q-18 0 -31 -7t-23.5 -18t-18.5 -25.5t-14 -29.5z" />
    <glyph glyph-name="ograve" unicode="&#xf2;" 
d="M556 -17q-120 0 -212.5 43.5t-151 120t-80.5 180.5t-1 226q21 121 78.5 224.5t142.5 179t193.5 118t231.5 42.5q120 0 211.5 -42.5t148.5 -118t77.5 -179t-0.5 -224.5q-21 -122 -77 -226t-139.5 -180.5t-190.5 -120t-231 -43.5zM863 528q12 68 12 134t-16.5 118.5
t-52 84.5t-93.5 32q-56 0 -101 -27.5t-79.5 -73.5t-57.5 -104.5t-34 -120.5q-12 -69 -11 -135t19 -117.5t54.5 -83.5t95.5 -32q54 0 98 27.5t77.5 73.5t55.5 104t33 120zM901 1200h-215l-228 320l333 -20z" />
    <glyph glyph-name="oacute" unicode="&#xf3;" 
d="M556 -17q-120 0 -212.5 43.5t-151 120t-80.5 180.5t-1 226q21 121 78.5 224.5t142.5 179t193.5 118t231.5 42.5q120 0 211.5 -42.5t148.5 -118t77.5 -179t-0.5 -224.5q-21 -122 -77 -226t-139.5 -180.5t-190.5 -120t-231 -43.5zM863 528q12 68 12 134t-16.5 118.5
t-52 84.5t-93.5 32q-56 0 -101 -27.5t-79.5 -73.5t-57.5 -104.5t-34 -120.5q-12 -69 -11 -135t19 -117.5t54.5 -83.5t95.5 -32q54 0 98 27.5t77.5 73.5t55.5 104t33 120zM915 1500l341 20l-342 -320h-215z" />
    <glyph glyph-name="ocircumflex" unicode="&#xf4;" 
d="M556 -17q-120 0 -212.5 43.5t-151 120t-80.5 180.5t-1 226q21 121 78.5 224.5t142.5 179t193.5 118t231.5 42.5q120 0 211.5 -42.5t148.5 -118t77.5 -179t-0.5 -224.5q-21 -122 -77 -226t-139.5 -180.5t-190.5 -120t-231 -43.5zM863 528q12 68 12 134t-16.5 118.5
t-52 84.5t-93.5 32q-56 0 -101 -27.5t-79.5 -73.5t-57.5 -104.5t-34 -120.5q-12 -69 -11 -135t19 -117.5t54.5 -83.5t95.5 -32q54 0 98 27.5t77.5 73.5t55.5 104t33 120zM1132 1220h-220l-52 103l-7 127l-53 -127l-99 -103h-239l244 280l294 20z" />
    <glyph glyph-name="otilde" unicode="&#xf5;" 
d="M556 -17q-120 0 -212.5 43.5t-151 120t-80.5 180.5t-1 226q21 121 78.5 224.5t142.5 179t193.5 118t231.5 42.5q120 0 211.5 -42.5t148.5 -118t77.5 -179t-0.5 -224.5q-21 -122 -77 -226t-139.5 -180.5t-190.5 -120t-231 -43.5zM863 528q12 68 12 134t-16.5 118.5
t-52 84.5t-93.5 32q-56 0 -101 -27.5t-79.5 -73.5t-57.5 -104.5t-34 -120.5q-12 -69 -11 -135t19 -117.5t54.5 -83.5t95.5 -32q54 0 98 27.5t77.5 73.5t55.5 104t33 120zM435 1247q11 40 35 85.5t61 83.5t87 63t113 25q49 0 80.5 -12.5t55.5 -27.5t46.5 -27.5t53.5 -12.5
q21 0 36.5 7t26.5 19t19 28t14 34l166 -10q-11 -44 -33 -90.5t-57 -84.5t-84.5 -62.5t-116.5 -24.5q-46 0 -75 12.5t-53 27.5t-48 27.5t-59 12.5q-18 0 -31 -7t-23.5 -18t-18.5 -25.5t-14 -29.5z" />
    <glyph glyph-name="odieresis" unicode="&#xf6;" 
d="M556 -17q-120 0 -212.5 43.5t-151 120t-80.5 180.5t-1 226q21 121 78.5 224.5t142.5 179t193.5 118t231.5 42.5q120 0 211.5 -42.5t148.5 -118t77.5 -179t-0.5 -224.5q-21 -122 -77 -226t-139.5 -180.5t-190.5 -120t-231 -43.5zM863 528q12 68 12 134t-16.5 118.5
t-52 84.5t-93.5 32q-56 0 -101 -27.5t-79.5 -73.5t-57.5 -104.5t-34 -120.5q-12 -69 -11 -135t19 -117.5t54.5 -83.5t95.5 -32q54 0 98 27.5t77.5 73.5t55.5 104t33 120zM505 1566h276l-47 -266h-276zM905 1566h276l-47 -266h-276z" />
    <glyph glyph-name="divide" unicode="&#xf7;" 
d="M451 287q5 29 20.5 54.5t38.5 45t50 30.5t56 11t52 -11t39 -30.5t22.5 -45t1.5 -54.5q-5 -28 -20.5 -54t-37.5 -45.5t-49.5 -31.5t-56.5 -12q-28 0 -52 12t-40 31.5t-22.5 45.5t-1.5 54zM566 940q5 29 20.5 54.5t38.5 45t50 30.5t56 11t52 -11t39 -30.5t22.5 -45
t1.5 -54.5q-5 -28 -20.5 -54t-37.5 -45.5t-49.5 -31.5t-56.5 -12q-28 0 -52 12t-40 31.5t-22.5 45.5t-1.5 54zM219 724h900l-39 -224h-900z" />
    <glyph glyph-name="oslash" unicode="&#xf8;" 
d="M551 -17q-106 0 -191 34l-91 -117h-259l185 236l-8 10q-58 77 -80 181t-1 226q21 121 78.5 224.5t142.5 179t193.5 118t231.5 42.5q106 0 189 -33l99 125h250l-188 -241l10 -12q57 -75 77.5 -178.5t-0.5 -224.5q-21 -122 -77 -226t-139.5 -180.5t-190.5 -120t-231 -43.5z
M708 897q-56 0 -101 -27.5t-79.5 -73.5t-57.5 -104.5t-34 -120.5q-12 -69 -11 -135v-9l356 452q-30 18 -73 18zM858 528q12 68 12 134v9l-352 -451q32 -17 76 -17q54 0 98 27.5t77.5 73.5t55.5 104t33 120z" />
    <glyph glyph-name="ugrave" unicode="&#xf9;" 
d="M891 1100l321 20l-198 -1120h-317l18 100l-99 -100q-29 -8 -59.5 -12.5t-64.5 -4.5q-134 0 -217.5 38t-126.5 101.5t-51.5 145.5t6.5 170l117 662l320 20l-121 -682q-9 -52 -7.5 -93.5t17 -71t47.5 -45t83 -15.5q33 0 63 10t54.5 26t44 34t32.5 35zM899 1200h-215
l-228 320l333 -20z" />
    <glyph glyph-name="uacute" unicode="&#xfa;" 
d="M891 1100l321 20l-198 -1120h-317l18 100l-99 -100q-29 -8 -59.5 -12.5t-64.5 -4.5q-134 0 -217.5 38t-126.5 101.5t-51.5 145.5t6.5 170l117 662l320 20l-121 -682q-9 -52 -7.5 -93.5t17 -71t47.5 -45t83 -15.5q33 0 63 10t54.5 26t44 34t32.5 35zM816 1500l341 20
l-342 -320h-215z" />
    <glyph glyph-name="ucircumflex" unicode="&#xfb;" 
d="M891 1100l321 20l-198 -1120h-317l18 100l-99 -100q-29 -8 -59.5 -12.5t-64.5 -4.5q-134 0 -217.5 38t-126.5 101.5t-51.5 145.5t6.5 170l117 662l320 20l-121 -682q-9 -52 -7.5 -93.5t17 -71t47.5 -45t83 -15.5q33 0 63 10t54.5 26t44 34t32.5 35zM1087 1220h-220
l-52 103l-7 127l-53 -127l-99 -103h-239l244 280l294 20z" />
    <glyph glyph-name="udieresis" unicode="&#xfc;" 
d="M891 1100l321 20l-198 -1120h-317l18 100l-99 -100q-29 -8 -59.5 -12.5t-64.5 -4.5q-134 0 -217.5 38t-126.5 101.5t-51.5 145.5t6.5 170l117 662l320 20l-121 -682q-9 -52 -7.5 -93.5t17 -71t47.5 -45t83 -15.5q33 0 63 10t54.5 26t44 34t32.5 35zM473 1566h276
l-47 -266h-276zM873 1566h276l-47 -266h-276z" />
    <glyph glyph-name="yacute" unicode="&#xfd;" 
d="M601 670l4 -470l142 470l239 430l333 20l-604 -1112q-45 -83 -93 -169.5t-107 -157.5t-133.5 -116t-171.5 -45q-67 0 -122.5 28t-104.5 78l155 180q20 -15 44 -27.5t51 -12.5q44 0 86.5 49.5t95.5 137.5l-217 1147l319 20zM815 1500l341 20l-342 -320h-215z" />
    <glyph glyph-name="thorn" unicode="&#xfe;" 
d="M935 528q12 68 11.5 134t-17.5 118.5t-52.5 84.5t-94.5 32q-55 0 -100 -27.5t-78.5 -73.5t-56 -104.5t-33.5 -120.5q-12 -69 -11.5 -135t17.5 -117.5t52.5 -83.5t93.5 -32q55 0 100 27.5t79 73.5t56.5 104t33.5 120zM697 1520l-56 -319l-112 -171l195 79q25 4 49.5 6
t50.5 2q120 0 212 -42.5t150 -118t79.5 -179t0.5 -224.5q-21 -122 -78 -226t-141 -180.5t-191.5 -120t-231.5 -43.5q-26 0 -50 2t-47 6l-166 84l51 -174l-50 -281h-341l332 1880z" />
    <glyph glyph-name="ydieresis" unicode="&#xff;" 
d="M601 670l4 -470l142 470l239 430l333 20l-604 -1112q-45 -83 -93 -169.5t-107 -157.5t-133.5 -116t-171.5 -45q-67 0 -122.5 28t-104.5 78l155 180q20 -15 44 -27.5t51 -12.5q44 0 86.5 49.5t95.5 137.5l-217 1147l319 20zM546 1566h276l-47 -266h-276zM946 1566h276
l-47 -266h-276z" />
    <glyph glyph-name="OE" unicode="&#x152;" 
d="M527 0l-39 60l-37 -77q-132 0 -228 42.5t-151 134.5t-67 238t24 352t99 351.5t151 238t199.5 135t243.5 42.5l9 -77l61 60h553l-40 -228h-330l-10 -138l-38 -218h249l-38 -213h-249l-60 -343l-31 -132h359l-67 -228h-563zM701 1265q-14 6 -29.5 10t-29.5 4
q-106 0 -185 -126.5t-122 -369.5q-26 -145 -29.5 -251t13 -175t53.5 -102.5t94 -33.5q25 0 53 10z" />
    <glyph glyph-name="oe" unicode="&#x153;" 
d="M501 1117q82 0 135 -33t83 -79q27 22 61 42.5t71 36t77 24.5t79 9q188 0 258 -121t30 -353q-3 -17 -10 -40t-16.5 -48t-19.5 -48.5t-19 -40.5h-446q-8 -44 -13.5 -91t1.5 -86t33 -64t82 -25q28 0 53 10.5t46.5 26t39 32.5t29.5 30l142 -138q-37 -36 -70.5 -68.5t-75 -57
t-96 -38.5t-132.5 -14q-76 0 -140.5 28t-105.5 76q-51 -48 -116 -76t-153 -28q-84 0 -141.5 24t-94.5 65t-55 97t-23 119t0.5 131t17.5 134q10 56 26.5 119.5t42.5 126t63 120.5t88 102t117.5 70t151.5 26zM351 244q44 0 73.5 25.5t49.5 66t32 91.5t21 102q6 32 12 68.5
t9 73t0.5 70t-13 59t-31.5 41t-55 15.5q-45 0 -75 -28t-50 -71t-32 -93t-20 -95q-11 -63 -17.5 -121.5t-0.5 -103.5t28 -72.5t69 -27.5zM732 681h310l16 87q3 18 1 39.5t-11.5 40t-28.5 31.5t-50 13q-30 0 -53.5 -13t-40.5 -31.5t-28.5 -40t-18.5 -39.5z" />
    <glyph glyph-name="Scaron" unicode="&#x160;" 
d="M1050 1178q-42 27 -76 45t-64 29.5t-57.5 16.5t-55.5 5q-37 0 -74.5 -7t-69.5 -24t-55.5 -45.5t-30.5 -72.5q-8 -41 7.5 -70.5t44.5 -52.5t68.5 -42t80.5 -39q93 -45 164 -95.5t115.5 -112t60.5 -139t-2 -176.5q-20 -116 -82 -195t-150 -128t-195 -70.5t-217 -21.5
q-63 0 -119 9t-107 26.5t-99 43.5t-96 59l178 227q24 -18 57.5 -36t71.5 -33t78.5 -24t78.5 -9q44 0 88.5 8t82 28.5t64.5 56t37 91.5q10 54 -7.5 93t-52 68.5t-80.5 53.5t-93 48q-66 34 -126 77t-102.5 96t-63 118t-6.5 143q18 101 73 174.5t133.5 121.5t173 71t190.5 23
q117 0 218.5 -37t199.5 -111zM1027 1596l-291 29l-125 275h230l59 -93l14 -127l56 127l92 93h205z" />
    <glyph glyph-name="scaron" unicode="&#x161;" 
d="M1107 822q-25 18 -58 32t-70 23.5t-77 15t-79 5.5q-56 0 -104 -4t-83.5 -14.5t-58 -29t-27.5 -46.5q-5 -26 19 -44.5t62.5 -32.5t85.5 -24t89 -19q66 -15 134.5 -43t122 -70.5t82 -101t15.5 -134.5q-18 -100 -74.5 -167.5t-143 -108.5t-197.5 -58.5t-237 -17.5
q-60 0 -117.5 8.5t-109 23.5t-94.5 35.5t-73 44.5l135 210q61 -42 134.5 -69.5t165.5 -27.5q22 0 53 2t65 7t68 14.5t62 24.5t47.5 36.5t24.5 51.5q5 27 -16 48t-55.5 36.5t-77 27t-80.5 19.5q-82 18 -154 48t-124 73.5t-77 101.5t-12 134t63 130t127 88.5t177 50.5t215 16
q56 0 111 -8.5t103.5 -22t88 -30.5t63.5 -34zM937 1216l-291 29l-125 275h230l59 -93l14 -127l56 127l92 93h205z" />
    <glyph glyph-name="Ydieresis" unicode="&#x178;" 
d="M521 1143l42 -370l123 370l245 357h335l-583 -850l-115 -650h-351l115 650l-279 850l343 20zM434 1866h276l-47 -266h-276zM834 1866h276l-47 -266h-276z" />
    <glyph glyph-name="florin" unicode="&#x192;" 
d="M1174 846l-96 -218h-153l-26 72q-29 -77 -62.5 -167t-70 -187t-75 -198.5t-77.5 -201.5q-30 -71 -61 -134t-77.5 -110.5t-115 -75.5t-172.5 -28q-85 0 -165 24t-139 69l111 209q27 -26 66 -38.5t77 -12.5q45 0 90 43t84 134v-1l230 603h-228l96 218h155l28 -69l141 385
q31 88 74.5 150t94.5 101.5t106.5 57.5t111.5 18q29 0 66 -2.5t76 -12t77.5 -28t69.5 -49.5l-75 -197q-34 31 -71 51.5t-85 20.5q-27 0 -56 -19.5t-43 -61.5l-129 -345h223z" />
    <glyph glyph-name="circumflex" unicode="&#x2c6;" 
d="M893 1220h-220l-52 103l-7 127l-53 -127l-99 -103h-239l244 280l294 20z" />
    <glyph glyph-name="caron" unicode="&#x2c7;" 
d="M876 1216l-291 29l-125 275h230l59 -93l14 -127l56 127l92 93h205z" />
    <glyph glyph-name="breve" unicode="&#x2d8;" 
d="M440 1519q-4 -31 5 -55q8 -20 28.5 -37t64.5 -17t73 17t47 37q21 24 33 55h221l-9 -50q-4 -23 -29.5 -59t-73 -71t-117.5 -60t-163 -25t-153.5 25t-94.5 59.5t-45.5 70.5t-7.5 59l9 51h212z" />
    <glyph glyph-name="dotaccent" unicode="&#x2d9;" 
d="M435 1500h328l-41 -231h-328z" />
    <glyph glyph-name="ring" unicode="&#x2da;" 
d="M930 1682q59 0 107 -22.5t79.5 -61t44.5 -90.5t3 -111q-11 -59 -42 -111.5t-76 -92t-100.5 -62.5t-114.5 -23t-107.5 23t-80.5 62.5t-46 92t-3 111.5q10 59 42 111t77.5 90.5t101.5 61t115 22.5zM863 1297q20 0 39 8t34.5 21.5t26 31.5t14.5 38q3 20 -1.5 37.5t-15 31
t-27 21t-36.5 7.5t-39 -7.5t-34.5 -21t-26.5 -31t-14 -37.5q-4 -20 0.5 -38t15.5 -31.5t27.5 -21.5t36.5 -8z" />
    <glyph glyph-name="ogonek" unicode="&#x2db;" 
d="M843 0q-6 -6 -19 -21.5t-25 -36.5t-20 -44.5t-4 -44.5q5 -28 27.5 -40.5t45.5 -12.5q22 0 49.5 10.5t51.5 23.5q29 15 58 35l143 -159q-45 -33 -96 -59q-44 -22 -98.5 -40t-114.5 -18q-57 0 -112.5 18.5t-100.5 50t-76 74.5t-40 93q-7 39 2.5 70.5t24.5 54.5q18 26 42 46
h262z" />
    <glyph glyph-name="tilde" unicode="&#x2dc;" 
d="M285 1307q11 40 35 85.5t61 83.5t87 63t113 25q49 0 80.5 -12.5t55.5 -27.5t46.5 -27.5t53.5 -12.5q21 0 36.5 7t26.5 19t19 28t14 34l166 -10q-11 -44 -33 -90.5t-57 -84.5t-84.5 -62.5t-116.5 -24.5q-46 0 -75 12.5t-53 27.5t-48 27.5t-59 12.5q-18 0 -31 -7t-23.5 -18
t-18.5 -25.5t-14 -29.5z" />
    <glyph glyph-name="hungarumlaut" unicode="&#x2dd;" 
d="M369 1500l334 20l-354 -403h-229zM782 1500l334 20l-354 -403h-229z" />
    <glyph glyph-name="Alpha" unicode="&#x391;" 
d="M35 0l581 1284l64 216l392 20l162 -1520h-334l-28 427h-342l-177 -427h-318zM862 1331l-99 -341l-136 -344h224l-11 344z" />
    <glyph glyph-name="Beta" unicode="&#x392;" 
d="M612 1130l-41 -230h29q47 0 96.5 13t93 40.5t75 70.5t42.5 104q10 55 -7 90t-49.5 54t-75 26t-83.5 7q-14 0 -32 -1t-34 -3zM63 0l221 1262v227q44 6 97 11t106 9t100.5 6t80.5 2q120 0 227.5 -18t185 -62t115 -117t18.5 -182t-84.5 -188t-175.5 -124q61 -22 110.5 -56
t82 -80.5t45 -105.5t0.5 -129q-24 -132 -80 -219.5t-141 -140t-197 -74t-247 -21.5h-464zM453 228h57q75 0 136 11.5t106 39.5t74.5 73t41.5 113q11 65 -2 108.5t-45.5 70t-81.5 38t-109 11.5h-95z" />
    <glyph glyph-name="Gamma" unicode="&#x393;" 
d="M588 1131l-200 -1131h-342l224 1269l22 231h949l-39 -218h-600z" />
    <glyph glyph-name="Deltagreek" unicode="&#x394;" 
d="M742 1500l336 20l216 -1520h-1288zM443 228h495l-91 889z" />
    <glyph glyph-name="Epsilon" unicode="&#x395;" 
d="M1066 228l-67 -228h-960l58 231l182 1032v237h975l-40 -228h-597l-10 -138l-38 -218h516l-38 -213h-516l-60 -343l-32 -132h627z" />
    <glyph glyph-name="Zeta" unicode="&#x396;" 
d="M1060 228l-13 -228h-1039l-18 86l735 1101l157 113l-135 -28h-458l13 228h914l31 -58l-746 -1128l-154 -114l137 28h576z" />
    <glyph glyph-name="Eta" unicode="&#x397;" 
d="M601 0l122 688h-316l-122 -688h-346l222 1263v237l393 20l-107 -604h316l103 584l350 20l-269 -1520h-346z" />
    <glyph glyph-name="Theta" unicode="&#x398;" horiz-adv-x="1200" 
d="M490 900h340l-61 -238h-340zM488 -17q-98 0 -175.5 27.5t-135 78t-95.5 120.5t-57 155.5t-19 183t19 202.5q18 105 52 202.5t82 183t110 155.5t137 120.5t163.5 78t189.5 27.5q147 0 248 -61t158 -165t71 -244t-14 -297q-19 -105 -52.5 -202.5t-81.5 -183t-110 -155.5
t-137.5 -120.5t-164 -78t-188.5 -27.5zM866 721q11 62 19 127t9.5 126.5t-6.5 116t-29 95t-57 64.5t-92 24q-52 0 -94 -21.5t-75.5 -58t-59 -85t-45 -103t-33.5 -112t-23 -111.5q-11 -63 -19 -128.5t-9 -127.5t7 -116.5t29 -95.5t57 -65t91 -24q77 0 133 47t95 120t63.5 160
t38.5 168z" />
    <glyph glyph-name="Iota" unicode="&#x399;" 
d="M353 1500h878l-40 -228h-273l-185 -1044h301l-75 -228h-878l40 228h278l185 1044h-306z" />
    <glyph glyph-name="Kappa" unicode="&#x39a;" 
d="M7 0l222 1263v237l397 20l-86 -485l383 465h368l-515 -600l-250 -100l208 -84l403 -716h-380l-304 540l-96 -540h-350z" />
    <glyph glyph-name="Lambda" unicode="&#x39b;" 
d="M29 1l582 1266l80 233l384 20l187 -1520h-329l-73 801l-17 440l-146 -440l-359 -800h-309z" />
    <glyph glyph-name="Mu" unicode="&#x39c;" 
d="M717 0l80 449l239 751h-10l-225 -500l-108 -225h-191l-25 225l-51 500h-10l-20 -751l-80 -449h-311l222 1263v237l325 20l93 -441l-3 -279l83 282l244 418l330 20l-269 -1520h-313z" />
    <glyph glyph-name="Nu" unicode="&#x39d;" 
d="M739 0l-296 950h-10l9 -301l-115 -649h-322l222 1263v237l339 20l295 -920h10l-14 252l114 648l326 20l-269 -1520h-289z" />
    <glyph glyph-name="Xi" unicode="&#x39e;" 
d="M264 916h832l-43 -241h-832zM51 241h1020l-43 -241h-1020zM272 1500h1021l-43 -241h-1021z" />
    <glyph glyph-name="Omicron" unicode="&#x39f;" 
d="M688 -17q-98 0 -175.5 27.5t-135 78t-95.5 120.5t-57 155.5t-19 183t19 202.5q18 105 52 202.5t82 183t110 155.5t137 120.5t163.5 78t189.5 27.5q147 0 248 -61t158 -165t71 -244t-14 -297q-19 -105 -52.5 -202.5t-81.5 -183t-110 -155.5t-137.5 -120.5t-164 -78
t-188.5 -27.5zM1066 721q11 62 19 127t9.5 126.5t-6.5 116t-29 95t-57 64.5t-92 24q-52 0 -94 -21.5t-75.5 -58t-59 -85t-45 -103t-33.5 -112t-23 -111.5q-11 -63 -19 -128.5t-9 -127.5t7 -116.5t29 -95.5t57 -65t91 -24q77 0 133 47t95 120t63.5 160t38.5 168z" />
    <glyph glyph-name="Rho" unicode="&#x3a1;" 
d="M360 0h-332l222 1262v222q46 7 100.5 13.5t109 10.5t105 6.5t88.5 2.5q157 0 277 -34t198.5 -94.5t113.5 -144.5t21 -183q-18 -132 -77.5 -221.5t-160 -145t-241 -81.5t-321.5 -30zM557 1121l-54 -308q105 4 181.5 19.5t129 46t83 79.5t43.5 120q9 54 -13.5 94.5
t-64.5 67t-96.5 39.5t-108.5 13h-24q-10 0 -19 -0.5t-19.5 -1t-23.5 -1.5z" />
    <glyph glyph-name="Sigma" unicode="&#x3a3;" 
d="M894 699l-400 -399l-147 -100l163 17h556l-39 -217h-1024l60 216l490 474l201 60l-180 60l-322 474l15 216h1025l-39 -217h-556l-157 17l113 -100l258 -399z" />
    <glyph glyph-name="Tau" unicode="&#x3a4;" 
d="M246 0l225 1272h-403l40 228h1134l-40 -228h-398l-225 -1272h-333z" />
    <glyph glyph-name="Upsilon" unicode="&#x3a5;" 
d="M547 1143l42 -370l123 370l245 357h335l-583 -850l-115 -650h-351l115 650l-279 850l343 20z" />
    <glyph glyph-name="Phi" unicode="&#x3a6;" 
d="M381 204l-38 9q-18 5 -36 11h1q-177 57 -249 187.5t-36 338.5q36 206 154.5 338t315.5 188h-1q20 6 40 10.5t42 9.5l36 204l345 20l-40 -224q20 -5 39 -9.5t36 -10.5h-1q177 -56 250 -188t37 -338q-37 -208 -156 -338.5t-315 -187.5h1q-20 -6 -41 -10.5t-43 -9.5
l-36 -204h-341zM532 1055q-75 -35 -131 -110t-77 -195t8.5 -195.5t91.5 -109.5zM765 444q36 18 69.5 45.5t61 66t48 87t31.5 107.5q10 60 7 108.5t-17.5 86t-38 65t-53.5 45.5z" />
    <glyph glyph-name="Chi" unicode="&#x3a7;" 
d="M857 0l-214 613l-40 -186l-250 -427h-322l522 824l-269 676l332 20l181 -470l52 181l165 269h287l-421 -645l317 -855h-340z" />
    <glyph glyph-name="Psi" unicode="&#x3a8;" 
d="M885 1520l-149 -849q16 9 33 23.5t32.5 36t28 50.5t19.5 68l115 651h317l-112 -633q-20 -113 -60.5 -191.5t-100.5 -130.5t-139.5 -81t-176.5 -42l-74 -421h-342l74 421q-97 16 -165 52.5t-107 96.5t-49 145t10 198l61 349v237l361 20l-110 -624q-7 -42 -5 -74.5t9.5 -58
t18.5 -44t23 -31.5l143 812z" />
    <glyph glyph-name="Omegagreek" unicode="&#x3a9;" 
d="M1 228h180l-8 9q-28 33 -46 87.5t-25.5 125t-3.5 153.5t19 171q29 165 77 301.5t129.5 235t203 152.5t297.5 54q172 0 274 -54t149.5 -152.5t48.5 -235t-28 -301.5q-15 -87 -41 -169t-57.5 -152t-67.5 -125t-71 -87l-17 -13h178l-40 -228h-537l41 236q75 47 119 98.5
t69.5 112.5t39.5 134t30 163q19 106 26 203t-5.5 170.5t-50 117.5t-108.5 44q-66 0 -115 -38.5t-85.5 -103.5t-61.5 -150.5t-41 -179.5q-18 -104 -32.5 -187.5t-12 -152.5t27 -125.5t83.5 -106.5l-41 -235h-537z" />
    <glyph glyph-name="alpha" unicode="&#x3b1;" 
d="M1208 962q-88 -58 -106 -133q-9 -42 -22.5 -110t-30.5 -167q-18 -100 -29.5 -163.5t-17.5 -97.5q-4 -24 -6.5 -43t0 -32.5t11.5 -21t28 -7.5q24 0 46.5 5.5t39.5 10.5l45 -168q-57 -25 -106.5 -38.5t-92.5 -13.5q-156 0 -233 85q-33 -26 -63.5 -42t-61 -26t-62 -13.5
t-66.5 -3.5q-123 0 -203 43.5t-123 120t-51 180.5t13 226q21 121 64.5 224.5t112 179t164.5 118t223 42.5q70 0 124 -20t102 -72q32 22 80.5 45t114.5 50zM718 528q12 68 20.5 134t3.5 118.5t-28.5 84.5t-74.5 32q-48 0 -80.5 -27.5t-53.5 -73.5t-34.5 -104.5t-24.5 -120.5
q-12 -69 -20.5 -135t-4 -117.5t28 -83.5t74.5 -32q48 0 80 27.5t54 73.5t35.5 104t24.5 120z" />
    <glyph glyph-name="beta" unicode="&#x3b2;" 
d="M590 -17q-35 0 -68 3t-62 7l-90 -510l-332 17l281 1601q19 106 70 184.5t125.5 130t168.5 76.5t199 25q88 0 162.5 -23.5t126.5 -69.5t75 -113.5t8 -155.5q-16 -91 -64 -163t-107 -121l-215 -62l188 -25q35 -17 62.5 -37.5t46.5 -45.5q19 -24 33 -48.5t21.5 -53
t8.5 -62.5t-7 -77q-8 -47 -27 -101t-51.5 -107t-81 -101.5t-116 -86t-155.5 -59.5t-200 -22zM490 211q22 -12 51.5 -20t58.5 -8q54 0 103.5 18t90 52.5t69.5 84.5t40 113q21 121 -23 185t-165 64l-55 200q30 2 73 12t85 36t76.5 71t46.5 116q6 35 0.5 68t-21.5 58.5
t-40.5 40.5t-55.5 15q-30 0 -57.5 -11t-50 -32.5t-38.5 -53t-23 -73.5z" />
    <glyph glyph-name="gamma" unicode="&#x3b3;" 
d="M101 1116q57 0 116.5 -4t111.5 -22.5t90 -56.5t51 -106l55 -286l5 -421l154 423l249 457l313 20l-590 -1099l-92 -521h-328l87 493l-157 841q-6 30 -22.5 47.5t-33.5 25.5q-20 10 -43 13z" />
    <glyph glyph-name="delta" unicode="&#x3b4;" 
d="M581 183q43 0 84.5 27t77 74t62 110t39.5 134q9 54 6.5 112.5t-19 107t-48.5 80t-80 31.5q-98 0 -167.5 -85.5t-97.5 -245.5q-13 -71 -9 -134t22.5 -110t51.5 -74t78 -27zM1232 1500l-94 -200h-413q-32 0 -54 -10.5t-27 -36.5q-3 -17 21.5 -32.5t62.5 -32.5t83 -37
t83 -44q85 -54 147.5 -114t99.5 -129.5t48 -152.5t-7 -183q-19 -108 -78.5 -206.5t-146 -173.5t-191.5 -120t-216 -45q-80 0 -147 22.5t-119.5 61.5t-90.5 92t-60 115t-27.5 130t6.5 136q12 66 40 135t76.5 132t119.5 117t169 91h181l-224 93q-27 15 -51 34t-41 41.5t-25 48
t-3 54.5q8 48 32.5 82.5t59.5 58.5t78.5 38t90 22t93.5 10.5t89 2.5h435z" />
    <glyph glyph-name="epsilon" unicode="&#x3b5;" 
d="M979 665l-64 -199h-269q-23 0 -43 -10.5t-36.5 -29t-28 -44t-16.5 -54.5q-5 -28 3 -54t26 -46t46 -32t64 -12q42 0 88 13t84 29q45 18 88 42l115 -137q-44 -41 -108 -74q-55 -28 -139 -51t-201 -23q-77 0 -153.5 21.5t-134.5 64.5t-88.5 108t-14.5 152q12 72 52.5 130
t100.5 103q-45 45 -65 101.5t-7 128.5q16 88 68.5 150t125 101t155.5 56.5t160 17.5q61 0 119.5 -12t105.5 -26q55 -17 103 -37l-98 -148q-35 6 -73 11q-32 5 -72.5 8.5t-81.5 3.5q-39 0 -72 -13t-57.5 -33t-40 -45.5t-19.5 -50.5q-4 -23 1 -43t16 -35t27 -23.5t36 -8.5h298
z" />
    <glyph glyph-name="zeta" unicode="&#x3b6;" 
d="M1221 1500l-58 -192q-64 -47 -138.5 -104.5t-150 -122.5t-147.5 -135t-130 -142t-98 -144.5t-52 -140.5q-16 -91 17 -162.5t119 -133.5q37 -27 77.5 -51.5t79 -50.5t71.5 -54.5t56 -62.5t33 -75t1 -91t-45 -99.5t-91.5 -95t-126.5 -86.5t-150 -74l-100 193q34 16 65 33.5
t55 36t40 37t19 37.5q7 42 -14.5 74.5t-55.5 58t-72 45t-63 35.5q-134 85 -191.5 196.5t-30.5 266.5q13 72 42.5 142.5t69.5 137.5t88 129t97 116.5t96 100.5t86 80l236 116l-244 -18h-272l62 200h820z" />
    <glyph glyph-name="eta" unicode="&#x3b7;" 
d="M453 0h-326l194 1100l329 20l-9 -53q52 20 114 35t124 15q95 0 155 -27t91.5 -76.5t36.5 -120t-10 -157.5l-218 -1236h-326l222 1261q14 82 5 119t-53 37q-17 0 -38.5 -6.5t-45.5 -17t-48.5 -24.5t-48.5 -28z" />
    <glyph glyph-name="theta" unicode="&#x3b8;" 
d="M514 -17q-100 0 -173 32.5t-123 89t-79.5 131.5t-41 160t-8 174.5t18.5 175.5t43 176.5t70 176t97.5 162t126 133.5t155.5 90t185 33t173 -33t123 -90t78.5 -133.5t40 -162t8 -176t-18.5 -176.5t-43.5 -175.5t-70 -174.5t-97 -160t-125.5 -131t-154.5 -89t-184.5 -33z
M895 845q5 49 5.5 101t-4.5 101.5t-16 93.5t-29.5 77t-44.5 52.5t-61 19.5t-68 -19.5t-63 -52.5t-57 -77t-49.5 -93.5t-40.5 -101.5t-30 -101h458zM403 651q-4 -49 -4.5 -100.5t5 -100.5t16.5 -92.5t29 -76.5t44 -52t61 -19q47 0 91.5 37.5t83.5 99t72 141t57 163.5h-455z
" />
    <glyph glyph-name="iota" unicode="&#x3b9;" 
d="M489 874v226l371 20l-127 -720q-7 -38 -12.5 -74.5t-6 -65.5t6 -47t24.5 -18q23 0 41.5 3.5t35.5 10.5l65 -174q-15 -9 -39 -18.5t-51.5 -17t-56 -12t-53.5 -4.5q-120 0 -184.5 33t-91 91t-23 136.5t19.5 169.5z" />
    <glyph glyph-name="kappa" unicode="&#x3ba;" 
d="M133 0l157 890v210l337 20l-61 -346l298 326l315 20l-440 -450l-187 -70l162 -70l314 -530h-309l-218 405l-71 -405h-297z" />
    <glyph glyph-name="lambda" unicode="&#x3bb;" 
d="M887 0l-88 452l-5 423l-154 -421l-237 -454h-312l628 1148q-2 44 -16.5 83.5t-35.5 69t-44 47t-40 17.5q-14 0 -26 -2.5t-25 -8.5t-28.5 -15t-36.5 -22l-91 158q67 50 137.5 78t137.5 28q56 0 100.5 -21t79 -57t60.5 -84t45.5 -102t33 -112t24.5 -113l206 -1092h-313z
" />
    <glyph glyph-name="uni03BC" unicode="&#x3bc;" 
d="M740 27q-35 -19 -75.5 -31.5t-87.5 -12.5q-20 0 -48 5t-56 13.5t-51.5 18.5t-33.5 20l29 -206l-59 -334h-310l281 1600l314 20l-136 -775q-7 -38 0.5 -68t24 -51t40 -32t50.5 -11q43 0 83 20t74 48l150 849l314 20l-197 -1120h-311z" />
    <glyph glyph-name="nu" unicode="&#x3bd;" 
d="M498 650l14 -400l152 400l228 450h321l-575 -1100h-354l-189 1100h320z" />
    <glyph glyph-name="xi" unicode="&#x3be;" 
d="M376 33q-45 28 -91.5 68.5t-81.5 92.5t-53 115t-5 136q12 67 36.5 118.5t57.5 91.5t73.5 69.5t84.5 52.5l162 13l-151 65q-21 25 -40 52t-31.5 57.5t-17 64t2.5 71.5q13 74 53 141.5t118 118.5q-42 12 -73.5 30t-51 45t-26 63t1.5 83h331q-1 -7 -1 -20.5t3 -27t9.5 -23.5
t19.5 -10h529l-64 -198h-315q-23 0 -59.5 -10.5t-74 -33t-68 -59.5t-39.5 -89q-9 -53 3 -90.5t34.5 -61.5t50.5 -35.5t51 -11.5h294l-72 -211q-47 0 -101 -3t-108 -12t-106 -25.5t-94 -44t-71 -67t-39 -94.5q-5 -29 3.5 -60.5t27 -62t45.5 -58.5t59 -50q88 -62 153.5 -105.5
t106.5 -84.5t57 -86t5 -109q-9 -50 -45 -99.5t-91.5 -95t-126.5 -86.5t-150 -74l-100 193q34 16 65.5 35t56 39.5t40.5 40.5t19 39q6 37 -15 66.5t-55 54.5t-71.5 45t-64.5 37z" />
    <glyph glyph-name="omicron" unicode="&#x3bf;" 
d="M554 -17q-120 0 -212.5 43.5t-151 120t-80.5 180.5t-1 226q21 121 78.5 224.5t142.5 179t193.5 118t231.5 42.5q120 0 211.5 -42.5t148.5 -118t77.5 -179t-0.5 -224.5q-21 -122 -77 -226t-139.5 -180.5t-190.5 -120t-231 -43.5zM861 528q12 68 12 134t-16.5 118.5
t-52 84.5t-93.5 32q-56 0 -101 -27.5t-79.5 -73.5t-57.5 -104.5t-34 -120.5q-12 -69 -11 -135t19 -117.5t54.5 -83.5t95.5 -32q54 0 98 27.5t77.5 73.5t55.5 104t33 120z" />
    <glyph glyph-name="pi" unicode="&#x3c0;" 
d="M1075 900l-88 -500q-12 -66 -16 -108.5t-1 -66.5t12 -33t23 -9q17 0 34.5 5t31.5 12q17 8 33 18l77 -175q-18 -8 -42 -18.5t-53.5 -19.5t-63.5 -15.5t-72 -6.5q-120 0 -184.5 33t-90.5 91t-22.5 136.5t19.5 169.5l86 487h-264l89 -148l-133 -752h-317l123 698
q19 108 22.5 156.5t-24.5 48.5q-18 0 -37 -5t-36 -10q-19 -6 -37 -14l-85 167q18 9 42 19t53 19t63 15t71 6h955l-62 -200h-106z" />
    <glyph glyph-name="sigma1" unicode="&#x3c2;" 
d="M1129 900l-70 -200q-47 0 -100.5 -3t-106.5 -12t-103.5 -25.5t-91 -44t-69 -67t-38.5 -94.5q-5 -29 -1 -58.5t26 -63t67 -72t121 -84.5q53 -33 100.5 -65.5t81 -72t48.5 -88t4 -112.5q-9 -50 -45 -99.5t-91.5 -95t-126.5 -86.5t-150 -74l-101 193q34 16 65 33.5t55 36
t40 37t19 37.5q7 40 -12 70.5t-51.5 55.5t-70.5 46t-69 41q-45 28 -91.5 69t-81.5 93t-53 115t-5 135q15 87 59 169t126.5 145.5t208.5 102t305 38.5h202z" />
    <glyph glyph-name="sigma" unicode="&#x3c3;" 
d="M46 551q19 112 68.5 214.5t129 180.5t190 124.5t251.5 46.5h584l-35 -200h-123l-138 22l152 -139q7 -34 11 -62.5t4 -57.5t-3 -60t-10 -69q-21 -116 -70.5 -219.5t-129 -181t-189.5 -122.5t-252 -45q-141 0 -235 47t-146 125.5t-65.5 181.5t6.5 214zM353 551
q-12 -65 -9 -130.5t22.5 -118.5t57.5 -86t97 -33q60 0 109.5 33t87.5 86t63.5 118.5t37.5 130.5q12 66 9 131.5t-22.5 117.5t-57.5 84.5t-98 32.5q-59 0 -108.5 -33t-88 -85.5t-64 -118t-36.5 -129.5z" />
    <glyph glyph-name="tau" unicode="&#x3c4;" 
d="M804 900l-108 -616q-6 -34 -6 -64t8 -62.5t25 -70t45 -87.5h-315q-31 25 -48 57.5t-23 72.5t-2.5 87t13.5 103l102 580h-335l62 200h928l-62 -200h-284z" />
    <glyph glyph-name="upsilon" unicode="&#x3c5;" 
d="M649 500q-14 -75 -21.5 -132t-3.5 -96t21 -58.5t53 -19.5q35 0 58.5 17t39.5 46t25.5 68t17.5 84l54 310q11 64 -0.5 106t-34 67t-50.5 35.5t-50 10.5l31 179q109 0 196.5 -25.5t145.5 -74t83 -117.5t10 -156l-61 -343q-8 -44 -20.5 -92.5t-35.5 -94.5t-58.5 -88
t-88.5 -74t-126.5 -50.5t-172.5 -18.5q-100 0 -167 20t-108.5 54t-61.5 78.5t-25.5 93.5t-0.5 99.5t13 95.5l71 400q7 38 3 60.5t-19 22.5q-18 0 -37 -32t-29 -88h-215q11 61 40.5 120.5t74.5 106t104 75t129 28.5q72 0 128 -21.5t92 -60t50 -92.5t3 -119z" />
    <glyph glyph-name="phi" unicode="&#x3c6;" 
d="M921 1120l-20 -115q84 -19 161.5 -60t132.5 -104t80.5 -147.5t6.5 -190.5q-18 -103 -70.5 -187t-127.5 -148t-168 -106t-192 -60l-88 -502h-328l88 502q-85 17 -161.5 58t-131 104.5t-79.5 148.5t-7 190q18 102 70.5 185t128 146.5t167.5 106.5t190 64l17 95zM994 503
q9 53 2 98t-26 80.5t-47.5 61t-60.5 39.5l-99 -559q37 15 74.5 41t69.5 61.5t55 80t32 97.5zM303 503q-9 -53 -1.5 -97.5t26.5 -79.5t47 -61t60 -41l98 557q-38 -15 -75 -40.5t-68.5 -60.5t-54.5 -79.5t-32 -97.5z" />
    <glyph glyph-name="chi" unicode="&#x3c7;" 
d="M675 763l54 -285l87 238l255 384h329l-544 -777l194 -549q14 -35 31.5 -54.5t33.5 -30.5q18 -12 38 -17l-33 -189q-62 0 -116 5.5t-99 24.5t-80.5 56.5t-60.5 100.5l-93 237l-54 260l-105 -238l-285 -429h-334l597 844l-189 485q-13 33 -30 53t-33 31q-18 12 -38 18
l34 189q61 0 117 -6t104.5 -25.5t87 -56.5t64.5 -100z" />
    <glyph glyph-name="psi" unicode="&#x3c8;" 
d="M1001 1117q77 -1 128.5 -17.5t83 -45.5t45 -68.5t16 -87t-4.5 -101.5t-17 -110l-34 -190q-7 -39 -19 -92t-34.5 -109t-59 -111t-92 -99t-132.5 -72.5t-182 -30.5l-85 -483h-328l85 483q-101 4 -166 33t-103.5 73t-55 99t-19.5 110.5t3.5 107.5t13.5 91l56 315l332 32
l-61 -345q-9 -52 -14.5 -101t-3 -89.5t15.5 -69t40 -40.5l159 901l330 20l-162 -926q34 6 59 33.5t43.5 69.5t31.5 94t23 108l28 163q11 64 20 114.5t16 86.5q7 41 13 74z" />
    <glyph glyph-name="omega" unicode="&#x3c9;" 
d="M837 744l-46 -257q-10 -59 -15 -112t-2 -93t14 -63.5t34 -23.5q28 0 47.5 25t34.5 69.5t27 106t25 135.5q21 118 11 197t-35 126t-56 66.5t-53 19.5l31 177q108 0 196.5 -45t147.5 -121.5t84 -178t5 -213.5l-17 -96q-10 -55 -23.5 -112t-36 -110.5t-57 -100.5t-85 -82
t-120 -55t-163.5 -20q-81 0 -131 17t-82 47q-41 -28 -99 -46t-135 -18q-93 0 -155.5 20.5t-100.5 55.5t-56 81.5t-22 100t2 110.5t16 112l17 96q13 75 44 145.5t76 132.5t101 113.5t120.5 88.5t135 57.5t142.5 20.5l-31 -177q-22 0 -58.5 -19.5t-76 -66.5t-75.5 -126
t-57 -197q-13 -74 -22.5 -135.5t-10.5 -106t9.5 -69.5t38.5 -25q22 0 42 23.5t37 63.5t30.5 93t23.5 112l52 291z" />
    <glyph glyph-name="theta1" unicode="&#x3d1;" 
d="M255 529q3 -72 17.5 -131t39 -101t60 -64.5t80.5 -22.5q46 0 91 30.5t84.5 84t72.5 125.5t56 156h-327q-59 0 -113 5t-100 19t-82 38.5t-58.5 63t-29 92.5t6.5 127q11 63 37.5 129t67.5 129t95.5 119t121 98t144 66.5t164.5 24.5t154.5 -29t116.5 -79.5t81.5 -118
t49.5 -145t19.5 -161t-6.5 -164.5h194l-65 -214h-170q-22 -78 -51.5 -154t-69.5 -145.5t-90.5 -128.5t-114 -102.5t-140.5 -68t-169 -24.5q-101 0 -175 31.5t-124.5 87.5t-80 132.5t-39.5 165.5zM643 1290q-53 0 -104.5 -32t-94.5 -82.5t-73.5 -112t-40.5 -120.5
q-8 -46 7 -71t47 -36.5t77.5 -13.5t98.5 -2h237q8 87 4 171t-22.5 150.5t-52 107.5t-83.5 41z" />
    <glyph glyph-name="Upsilon1" unicode="&#x3d2;" 
d="M1188 1336q-14 -2 -32 -12q-15 -9 -34.5 -27t-42.5 -52l-389 -583l-116 -662h-334l116 662l-184 583q-8 26 -26.5 40.5t-38.5 22.5q-23 9 -50 12l34 197q64 0 119.5 -5t101.5 -24t81.5 -56.5t60.5 -103.5l67 -171l27 -358l154 358l126 171q48 66 96.5 103.5t101 56.5
t109.5 24t122 5z" />
    <glyph glyph-name="phi1" unicode="&#x3d5;" 
d="M485 780q-26 -14 -51.5 -35t-48 -52t-40.5 -74t-28 -100q-11 -63 -5 -110t24 -81.5t44.5 -58t56.5 -39.5l97 551q10 60 42 98.5t76 60.5t94.5 30.5t98.5 8.5q101 0 187 -37t145.5 -101.5t86 -152t8.5 -189.5q-18 -106 -69 -189t-124 -144.5t-164 -101t-189 -57.5
l-90 -507h-328l90 507q-93 19 -169.5 59t-127.5 101t-71.5 144t-2.5 188q16 91 55.5 163t90.5 126.5t107.5 92.5t106.5 62zM998 519q11 63 1.5 113.5t-29 85.5t-42 53.5t-36.5 18.5q-10 0 -16.5 -4.5t-10.5 -10.5t-6 -13t-3 -12l-92 -521q36 16 73 40t69 58.5t56.5 81.5
t35.5 110z" />
    <glyph glyph-name="omega1" unicode="&#x3d6;" 
d="M1300 878h-72l2 -3q11 -28 21 -59.5t14.5 -75t1.5 -102t-17 -139.5l-8 -48q-8 -44 -20.5 -95.5t-34.5 -103.5t-56 -100.5t-85 -86t-122 -60t-166 -22.5q-83 0 -133.5 16.5t-79.5 44.5q-39 -28 -94 -44.5t-139 -16.5q-95 0 -158 22.5t-100.5 60t-54.5 86t-20.5 100.5
t2 103.5t13.5 95.5l8 48q14 81 32 139.5t37.5 102t40.5 75t42 59.5l4 3h-87l66 222h1230zM811 744l-48 -274q-10 -56 -14.5 -106t-2 -87.5t14 -59.5t34.5 -22q24 0 43.5 25.5t35 68t27.5 97.5t23 115q16 88 21 151.5t3 108t-9.5 72.5t-17.5 45h-457q-16 -17 -33.5 -45
t-35 -72.5t-34.5 -108t-33 -151.5q-11 -60 -18 -115t-7 -97.5t10.5 -68t35.5 -25.5q23 0 42.5 22t35.5 59.5t29 87.5t23 106l54 308z" />
    <glyph glyph-name="hyphentwo" unicode="&#x2010;" 
d="M366 624h627l-39 -224h-627z" />
    <glyph glyph-name="endash" unicode="&#x2013;" 
d="M319 624h700l-39 -224h-700z" />
    <glyph glyph-name="emdash" unicode="&#x2014;" 
d="M39 624h1260l-39 -224h-1259z" />
    <glyph glyph-name="quotationdash" unicode="&#x2015;" 
d="M69 624h1200l-39 -224h-1199z" />
    <glyph glyph-name="doubleverticalline" unicode="&#x2016;" 
d="M721 1500l-265 -1500h-219l265 1500h219zM1021 1500l-265 -1500h-219l265 1500h219z" />
    <glyph glyph-name="quoteleft" unicode="&#x2018;" 
d="M375 1079q-6 -31 -22.5 -59t-41 -49t-55.5 -33.5t-66 -12.5q-34 0 -62 12.5t-46.5 33.5t-26.5 49t-2 59q6 36 21 80.5t43.5 94t75 103t115.5 109.5l92 -58q-14 -18 -29.5 -41t-29.5 -48.5t-25.5 -51.5t-19.5 -50q18 -8 35 -19t28.5 -27t16.5 -38.5t-1 -53.5z" />
    <glyph glyph-name="quoteright" unicode="&#x2019;" 
d="M653 1520l366 -20l-479 -356h-307z" />
    <glyph glyph-name="quotesinglbase" unicode="&#x201a;" 
d="M225 121q6 31 22.5 59t41 49t55.5 33.5t66 12.5q34 0 62 -12.5t46.5 -33.5t26.5 -49t2 -59q-6 -36 -21 -80.5t-43.5 -94t-75 -103t-115.5 -109.5l-92 58q14 18 29.5 41t29.5 48.5t25.5 51.5t19.5 50q-18 8 -35 19t-28.5 27t-16.5 38.5t1 53.5z" />
    <glyph glyph-name="quotedblleft" unicode="&#x201c;" 
d="M375 1079q-6 -31 -22.5 -59t-41 -49t-55.5 -33.5t-66 -12.5q-34 0 -62 12.5t-46.5 33.5t-26.5 49t-2 59q6 36 21 80.5t43.5 94t75 103t115.5 109.5l92 -58q-14 -18 -29.5 -41t-29.5 -48.5t-25.5 -51.5t-19.5 -50q18 -8 35 -19t28.5 -27t16.5 -38.5t-1 -53.5zM775 1079
q-6 -31 -22.5 -59t-41 -49t-55.5 -33.5t-66 -12.5q-34 0 -62 12.5t-46.5 33.5t-26.5 49t-2 59q6 36 21 80.5t43.5 94t75 103t115.5 109.5l92 -58q-14 -18 -29.5 -41t-29.5 -48.5t-25.5 -51.5t-19.5 -50q18 -8 35 -19t28.5 -27t16.5 -38.5t-1 -53.5z" />
    <glyph glyph-name="quotedblright" unicode="&#x201d;" 
d="M225 1321q6 31 22.5 59t41 49t55.5 33.5t66 12.5q34 0 62 -12.5t46.5 -33.5t26.5 -49t2 -59q-6 -36 -21 -80.5t-43.5 -94t-75 -103t-115.5 -109.5l-92 58q14 18 29.5 41t29.5 48.5t25.5 51.5t19.5 50q-18 8 -35 19t-28.5 27t-16.5 38.5t1 53.5zM625 1321q6 31 22.5 59
t41 49t55.5 33.5t66 12.5q34 0 62 -12.5t46.5 -33.5t26.5 -49t2 -59q-6 -36 -21 -80.5t-43.5 -94t-75 -103t-115.5 -109.5l-92 58q14 18 29.5 41t29.5 48.5t25.5 51.5t19.5 50q-18 8 -35 19t-28.5 27t-16.5 38.5t1 53.5z" />
    <glyph glyph-name="quotedblbase" unicode="&#x201e;" 
d="M225 121q6 31 22.5 59t41 49t55.5 33.5t66 12.5q34 0 62 -12.5t46.5 -33.5t26.5 -49t2 -59q-6 -36 -21 -80.5t-43.5 -94t-75 -103t-115.5 -109.5l-92 58q14 18 29.5 41t29.5 48.5t25.5 51.5t19.5 50q-18 8 -35 19t-28.5 27t-16.5 38.5t1 53.5zM625 121q6 31 22.5 59
t41 49t55.5 33.5t66 12.5q34 0 62 -12.5t46.5 -33.5t26.5 -49t2 -59q-6 -36 -21 -80.5t-43.5 -94t-75 -103t-115.5 -109.5l-92 58q14 18 29.5 41t29.5 48.5t25.5 51.5t19.5 50q-18 8 -35 19t-28.5 27t-16.5 38.5t1 53.5z" />
    <glyph glyph-name="dagger" unicode="&#x2020;" 
d="M288 1117h256l67 383l286 20l-71 -403h290l-66 -217h-262l-230 -1301h-282l230 1301h-256z" />
    <glyph glyph-name="daggerdbl" unicode="&#x2021;" 
d="M361 82h-256l39 218h256l105 600h-256l39 218h256l67 382l286 20l-71 -402h289l-67 -218h-261l-105 -600h289l-67 -218h-261l-85 -482h-282z" />
    <glyph glyph-name="bullet" unicode="&#x2022;" 
d="M398 807q0 60 23.5 113.5t63.5 93t93.5 63t113.5 23.5t113.5 -23.5t93.5 -63t63.5 -93t23.5 -113.5t-23 -114.5t-62.5 -95.5t-92.5 -65t-113 -24t-114 24t-94.5 65t-64.5 95.5t-24 114.5z" />
    <glyph glyph-name="triangularbullet" unicode="&#x2023;" 
d="M400 956l500 -306l-500 -300v606z" />
    <glyph glyph-name="ellipsis" unicode="&#x2026;" 
d="M8 183q7 41 29 77t53.5 63t70 42.5t79.5 15.5t74 -15.5t55.5 -42.5t31.5 -63t2 -77q-8 -41 -29.5 -77.5t-53 -63.5t-70 -43t-79.5 -16t-74.5 16t-55.5 43t-31.5 63.5t-1.5 77.5zM498 183q7 41 29 77t53.5 63t70 42.5t79.5 15.5t74 -15.5t55.5 -42.5t31.5 -63t2 -77
q-8 -41 -29.5 -77.5t-53 -63.5t-70 -43t-79.5 -16t-74.5 16t-55.5 43t-31.5 63.5t-1.5 77.5zM988 183q7 41 29 77t53.5 63t70 42.5t79.5 15.5t74 -15.5t55.5 -42.5t31.5 -63t2 -77q-8 -41 -29.5 -77.5t-53 -63.5t-70 -43t-79.5 -16t-74.5 16t-55.5 43t-31.5 63.5t-1.5 77.5z
" />
    <glyph glyph-name="perthousand" unicode="&#x2030;" horiz-adv-x="2600" 
d="M840 -16q-86 0 -141 28.5t-84 78.5t-34 119t9 149q5 29 12 57l-261 -416h-304l505 806q-27 -18 -58 -32q-65 -28 -153 -28q-86 0 -141 28.5t-84 78.5t-34 119t9 149q14 79 42 146.5t74 116.5t111 77t154 28q85 0 140 -28t84.5 -77t34.5 -116.5t-9 -146.5q-6 -35 -15 -68
l263 420h304l-503 -803q26 17 55 29q66 28 155 28q85 0 140 -27.5t84 -77t34 -117.5q0 -2 1 -4l2 4q28 68 73.5 117.5t111 77t154.5 27.5q85 0 140 -27.5t84 -77t34.5 -117t-8.5 -146.5q-14 -80 -42.5 -149t-74 -119t-111 -78.5t-153.5 -28.5q-86 0 -141 28.5t-84 78.5
t-34 119q0 2 -1 4l-2 -4q-28 -69 -73.5 -119t-111 -78.5t-153.5 -28.5zM458 1165q4 25 7 48t0 40t-12.5 27.5t-28.5 10.5q-17 0 -28.5 -9t-19 -24.5t-12 -36t-8.5 -43.5l-16 -94q-5 -26 -7.5 -49t0 -40.5t11.5 -28t29 -10.5q16 0 27.5 9t19 24.5t12.5 35.5t9 43zM967 404
q4 25 7 47.5t0 40t-12.5 27.5t-28.5 10q-17 0 -28 -9t-18.5 -24.5t-12.5 -36t-9 -42.5l-16 -94q-5 -26 -7.5 -49.5t0.5 -41t12.5 -28t29.5 -10.5q16 0 26.5 9t18 24.5t12.5 35.5t9 43zM1567 404q4 25 7 47.5t0 40t-12.5 27.5t-28.5 10q-17 0 -28 -9t-18.5 -24.5t-12.5 -36
t-9 -42.5l-16 -94q-5 -26 -7.5 -49.5t0.5 -41t12.5 -28t29.5 -10.5q16 0 26.5 9t18 24.5t12.5 35.5t9 43z" />
    <glyph glyph-name="pertenthousandsign" unicode="&#x2031;" horiz-adv-x="2600" 
d="M840 -16q-86 0 -141 28.5t-84 78.5t-34 119t9 149q5 29 12 57l-261 -416h-304l505 806q-27 -18 -58 -32q-65 -28 -153 -28q-86 0 -141 28.5t-84 78.5t-34 119t9 149q14 79 42 146.5t74 116.5t111 77t154 28q85 0 140 -28t84.5 -77t34.5 -116.5t-9 -146.5q-6 -35 -15 -68
l263 420h304l-503 -803q26 17 55 29q66 28 155 28q85 0 140 -27.5t84 -77t34 -117.5q0 -2 1 -4l2 4q28 68 73.5 117.5t111 77t154.5 27.5q85 0 140 -27.5t84 -77t34 -117.5q0 -2 1 -4l2 4q28 68 73.5 117.5t111 77t154.5 27.5q85 0 140 -27.5t84 -77t34.5 -117t-8.5 -146.5
q-14 -80 -42.5 -149t-74 -119t-111 -78.5t-153.5 -28.5q-86 0 -141 28.5t-84 78.5t-34 119q0 2 -1 4l-2 -4q-28 -69 -73.5 -119t-111 -78.5t-153.5 -28.5q-86 0 -141 28.5t-84 78.5t-34 119q0 2 -1 4l-2 -4q-28 -69 -73.5 -119t-111 -78.5t-153.5 -28.5zM458 1165q4 25 7 48
t0 40t-12.5 27.5t-28.5 10.5q-17 0 -28.5 -9t-19 -24.5t-12 -36t-8.5 -43.5l-16 -94q-5 -26 -7.5 -49t0 -40.5t11.5 -28t29 -10.5q16 0 27.5 9t19 24.5t12.5 35.5t9 43zM1567 404q4 25 7 47.5t0 40t-12.5 27.5t-28.5 10q-17 0 -28 -9t-18.5 -24.5t-12.5 -36t-9 -42.5
l-16 -94q-5 -26 -7.5 -49.5t0.5 -41t12.5 -28t29.5 -10.5q16 0 26.5 9t18 24.5t12.5 35.5t9 43zM967 404q4 25 7 47.5t0 40t-12.5 27.5t-28.5 10q-17 0 -28 -9t-18.5 -24.5t-12.5 -36t-9 -42.5l-16 -94q-5 -26 -7.5 -49.5t0.5 -41t12.5 -28t29.5 -10.5q16 0 26.5 9t18 24.5
t12.5 35.5t9 43zM2167 404q4 25 7 47.5t0 40t-12.5 27.5t-28.5 10q-17 0 -28 -9t-18.5 -24.5t-12.5 -36t-9 -42.5l-16 -94q-5 -26 -7.5 -49.5t0.5 -41t12.5 -28t29.5 -10.5q16 0 26.5 9t18 24.5t12.5 35.5t9 43z" />
    <glyph glyph-name="prime" unicode="&#x2032;" 
d="M484 1230l-221 -345h-153l125 347l50 288l247 -20z" />
    <glyph glyph-name="doubleprime" unicode="&#x2033;" 
d="M484 1230l-221 -345h-153l125 347l50 288l247 -20zM834 1230l-221 -345h-153l125 347l50 288l247 -20z" />
    <glyph glyph-name="tripleprime" unicode="&#x2034;" 
d="M484 1230l-221 -345h-153l125 347l50 288l247 -20zM834 1230l-221 -345h-153l125 347l50 288l247 -20zM1184 1230l-221 -345h-153l125 347l50 288l247 -20z" />
    <glyph glyph-name="reversedprime" unicode="&#x2035;" 
d="M168 1500l247 20l50 -288l125 -347h-153l-221 345z" />
    <glyph glyph-name="guilsinglleft" unicode="&#x2039;" 
d="M960 1106l49 -226l-383 -297l-82 -33l69 -33l283 -293l-136 -237l-469 489l25 144z" />
    <glyph glyph-name="guilsinglright" unicode="&#x203a;" 
d="M989 619l-25 -143l-642 -489l-52 237l385 293l80 33l-69 32l-279 298l129 226z" />
    <glyph glyph-name="asterism" unicode="&#x2042;" 
d="M742 1063l35 -61l-97 -75l-44 73l-10 95l-42 -95l-63 -72l-89 62l76 85l89 45h-105l-72 25l42 109l88 -25l67 -69l-16 97l11 66l117 12l-14 -81l-56 -96l85 65l76 24l29 -106l-73 -23h-112zM1042 463l35 -61l-97 -75l-44 73l-10 95l-42 -95l-63 -72l-89 62l76 85l89 45
h-105l-72 25l42 109l88 -25l67 -69l-16 97l11 66l117 12l-14 -81l-56 -96l85 65l76 24l29 -106l-73 -23h-112zM442 463l35 -61l-97 -75l-44 73l-10 95l-42 -95l-63 -72l-89 62l76 85l89 45h-105l-72 25l42 109l88 -25l67 -69l-16 97l11 66l117 12l-14 -81l-56 -96l85 65
l76 24l29 -106l-73 -23h-112z" />
    <glyph glyph-name="twoasterisksvertical" unicode="&#x2051;" 
d="M742 1063l35 -61l-97 -75l-44 73l-10 95l-42 -95l-63 -72l-89 62l76 85l89 45h-105l-72 25l42 109l88 -25l67 -69l-16 97l11 66l117 12l-14 -81l-56 -96l85 65l76 24l29 -106l-73 -23h-112zM742 463l35 -61l-97 -75l-44 73l-10 95l-42 -95l-63 -72l-89 62l76 85l89 45
h-105l-72 25l42 109l88 -25l67 -69l-16 97l11 66l117 12l-14 -81l-56 -96l85 65l76 24l29 -106l-73 -23h-112z" />
    <glyph glyph-name="zerosuperior" unicode="&#x2070;" 
d="M446 712q-47 0 -83 16t-62 44t-42.5 65.5t-25 80t-8 88t8.5 89.5q8 45 22.5 90.5t36 88.5t50.5 80t65 64.5t79 43.5t94 16q47 0 83 -16.5t62 -44.5t43 -65.5t25 -80t7.5 -88t-7.5 -88.5q-8 -45 -23 -91t-36.5 -88.5t-50.5 -79.5t-65 -65t-79.5 -43.5t-93.5 -15.5z
M401 1115q-5 -25 -8 -56t-3.5 -62.5t3.5 -61t13 -52.5t24.5 -36.5t39.5 -13.5q21 0 39.5 10t34 28t28.5 41.5t23.5 50.5t17.5 55.5t12 55.5q5 26 8 57t3.5 62t-3.5 60.5t-13 52.5t-25 36.5t-40 13.5q-21 0 -39.5 -10t-34 -28t-28 -41.5t-23 -50.5t-18 -55.5t-11.5 -55.5z
" />
    <glyph glyph-name="superscriptsmalli" unicode="&#x2071;" 
d="M399 1470h168l-23 -130h-168zM390 1180l-82 -22h-97v112h321l-63 -339q-3 -19 -0.5 -36.5t10.5 -30t20 -19.5t27 -7q16 0 30.5 2.5t28 8t27.5 14.5t29 22l9 -116q-8 -6 -20.5 -15.5t-31 -19t-45 -16.5t-61.5 -7q-58 0 -96.5 18t-60.5 49t-28 71.5t2 86.5l32 184z" />
    <glyph glyph-name="superscriptfour" unicode="&#x2074;" 
d="M676 870h-89l-26 -150h-161l27 150h-280l18 100l336 510l139 -10l-231 -369l-110 -131h146l24 140l163 10l-27 -150h100z" />
    <glyph glyph-name="superscriptfive" unicode="&#x2075;" 
d="M391 1243q13 3 27.5 4.5t31.5 1.5q58 0 101 -17t69.5 -46.5t36.5 -68.5t2 -84q-9 -52 -37.5 -95t-69.5 -77.5t-93 -61t-108 -44t-114.5 -26.5t-112.5 -9l20 113q36 1 74.5 8t75.5 19t71 29t61 37.5t44.5 45t22.5 51.5q4 20 0.5 39.5t-13.5 34.5t-26 24.5t-38 9.5
q-19 0 -36 -3t-31 -8t-25.5 -10.5t-19.5 -10.5h-113l66 371h433l-18 -100h-259z" />
    <glyph glyph-name="superscriptsix" unicode="&#x2076;" 
d="M666 1360q-12 7 -27 8.5t-27 1.5q-35 0 -74.5 -17t-77.5 -49t-70.5 -78.5t-52.5 -105.5l96 72q29 6 51 6q49 0 92 -12.5t73.5 -38.5t44 -67t3.5 -98q-10 -55 -38.5 -104.5t-71.5 -86.5t-97.5 -58.5t-116.5 -21.5q-54 0 -92.5 16t-64.5 42.5t-41 60t-21.5 69.5t-5.5 71
t6 63q10 59 32.5 115t55.5 105.5t75.5 91t93 71t107 46t118.5 16.5q9 0 25.5 -1t40.5 -8zM460 1098q-18 0 -38 -7.5t-38.5 -19t-35 -25.5t-28.5 -26q-3 -13 -4.5 -23.5t-2 -20.5t-0.5 -19.5t1 -19.5q2 -24 7.5 -45t16 -37t24.5 -25.5t32 -9.5q27 0 49.5 14t39.5 37t28.5 51
t16.5 56q4 25 1 47t-12 38t-23.5 25.5t-33.5 9.5z" />
    <glyph glyph-name="superscriptseven" unicode="&#x2077;" 
d="M189 1470h504l-15 -81q-2 -13 -12.5 -32t-27 -42.5t-37.5 -50.5t-44 -56q-27 -35 -57 -74.5t-57 -80.5t-49 -82t-33 -78q-5 -18 -10 -40t-9.5 -45.5t-8.5 -46t-8 -41.5h-168q3 16 8 43t11.5 57t14 59t15.5 50q17 44 42 89.5t54 88.5t59.5 82.5t57.5 73.5q22 28 40.5 52
t27.5 41h-318z" />
    <glyph glyph-name="superscripteight" unicode="&#x2078;" 
d="M505 1478q51 0 92.5 -13t69 -38t39.5 -60.5t4 -79.5q-5 -26 -18.5 -47.5t-32.5 -39.5t-41.5 -32.5t-45.5 -25.5q31 -16 56 -37.5t42 -47.5t23.5 -57t0.5 -67q-10 -57 -41.5 -99t-76 -69.5t-98 -40.5t-106.5 -13q-52 0 -98 15t-78.5 44t-47.5 71.5t-5 98.5q6 36 22 66.5
t40 56t54 46t64 35.5q-21 13 -38 28.5t-28.5 32.5t-16.5 36t-1 41q6 34 21.5 62t36.5 49.5t46.5 37.5t53 26.5t55.5 15.5t53 5zM531 931q5 27 -2.5 49t-23 39.5t-35.5 31.5t-41 24q-23 -10 -44 -24t-37.5 -32t-28 -40t-16.5 -49q-4 -24 2 -44.5t19 -35t31 -22.5t37 -8
q23 0 46 7.5t42 21.5t33 34.5t18 47.5zM402 1298q-3 -17 1.5 -31.5t14.5 -26.5t23 -21.5t28 -16.5q30 14 53.5 38t28.5 56q4 19 -1 33t-14 23t-20.5 13.5t-21.5 4.5q-14 0 -29 -5.5t-28 -15.5t-22.5 -23t-12.5 -28z" />
    <glyph glyph-name="superscriptnine" unicode="&#x2079;" 
d="M194 820q34 1 69.5 11.5t68.5 28t62 41t52.5 51t39.5 57.5t22 61l-102 -76q-8 -1 -16.5 -1.5t-17.5 -0.5q-54 0 -98.5 16.5t-74 47.5t-42 75t-2.5 97q9 56 36.5 102t68.5 79t94 51t115 18q55 0 94.5 -15.5t65.5 -41t40.5 -59t21 -69.5t5.5 -71.5t-7 -65.5
q-15 -88 -57 -166t-106 -137t-148 -96.5t-184 -45.5v109zM396 1100q17 0 36 8t37.5 21t35 29.5t27.5 33.5q4 32 1.5 63.5t-12.5 57t-27 41.5t-41 16q-23 0 -45 -11t-39.5 -29t-30 -42t-17.5 -51t-2.5 -51.5t12 -43.5t25.5 -30.5t40 -11.5z" />
    <glyph glyph-name="superscriptplussign" unicode="&#x207a;" 
d="M202 1070h180l37 208h110l-37 -208h180l-18 -100h-180l-35 -200h-110l35 200h-180z" />
    <glyph glyph-name="superscriptminus" unicode="&#x207b;" 
d="M209 1070h450l-19 -112h-450z" />
    <glyph glyph-name="superscriptequalssign" unicode="&#x207c;" 
d="M252 1120h400l-20 -110h-400zM217 920h400l-20 -110h-400z" />
    <glyph glyph-name="superscriptleftparenthesis" unicode="&#x207d;" 
d="M224 1296q8 46 20.5 86.5t35 70.5t59.5 47t94 17q13 0 26.5 -2t27 -5.5t26 -8.5t21.5 -12l-55 -57q-9 0 -21.5 -2.5t-25.5 -12.5t-24 -30.5t-17 -56.5l-113 -636q-6 -37 -2 -57t13 -29.5t20 -11.5t18 -2l39 -60q-12 -6 -26 -11.5t-29 -9t-29.5 -5t-26.5 -1.5
q-57 0 -87.5 18t-42.5 49.5t-10 73t10 88.5z" />
    <glyph glyph-name="superscriptrightparenthesis" unicode="&#x207e;" 
d="M412 736q-9 -47 -21 -88.5t-35.5 -73t-60.5 -49.5t-94 -18q-12 0 -26 1.5t-27.5 5t-26 9t-21.5 11.5l60 60q7 0 18.5 2t24 11.5t23.5 29.5t18 57l112 636q6 36 2 56.5t-13 30.5t-20.5 12.5t-20.5 2.5l-35 57q11 7 25 12t29 8.5t29.5 5.5t27.5 2q57 0 87.5 -17t43 -47
t10.5 -70.5t-10 -86.5z" />
    <glyph glyph-name="superscriptsmalln" unicode="&#x207f;" 
d="M305 720h-159l97 550l160 10l-10 -60l47 50q20 5 42 6.5t51 1.5q46 0 80 -13.5t55 -38t28 -60t-1 -78.5l-64 -368h-159l65 368q3 20 0 35t-11.5 24.5t-21 14t-26.5 4.5q-31 0 -55 -10.5t-47 -31.5z" />
    <glyph glyph-name="subscriptzero" unicode="&#x2080;" 
d="M346 -517q-47 0 -83 16t-62 44t-42.5 65.5t-25 80t-8 88t8.5 89.5q8 45 22.5 90.5t36 88.5t50.5 80t65 64.5t79 43.5t94 16q47 0 83 -16.5t62 -44.5t43 -65.5t25 -80t7.5 -88t-7.5 -88.5q-8 -45 -23 -91t-36.5 -88.5t-50.5 -79.5t-65 -65t-79.5 -43.5t-93.5 -15.5z
M301 -114q-5 -25 -8 -56t-3.5 -62.5t3.5 -61t13 -52.5t24.5 -36.5t39.5 -13.5q21 0 39.5 10t34 28t28.5 41.5t23.5 50.5t17.5 55.5t12 55.5q5 26 8 57t3.5 62t-3.5 60.5t-13 52.5t-25 36.5t-40 13.5q-21 0 -39.5 -10t-34 -28t-28 -41.5t-23 -50.5t-18 -55.5t-11.5 -55.5z
" />
    <glyph glyph-name="subscriptone" unicode="&#x2081;" 
d="M420 -60l69 181l-138 -135l-48 -37l-62 92l279 219l120 -10l-115 -650h122l-18 -100h-409l18 100h122z" />
    <glyph glyph-name="subscripttwo" unicode="&#x2082;" 
d="M123 -500l16 95q30 37 68 77.5t77.5 80t76.5 74.5t65 60q33 29 55 49t37 37t23 34.5t12 40.5q4 19 1 37t-12 32.5t-24 23.5t-35 9q-41 0 -77 -27.5t-68 -74.5l-109 43q21 39 49.5 69.5t63.5 52.5t77 33.5t90 11.5q57 0 98.5 -18.5t66.5 -49t34.5 -69.5t2.5 -78
q-6 -35 -22.5 -64.5t-39.5 -57t-51.5 -54.5t-58.5 -57t-62.5 -61t-61.5 -59t-53 -51.5t-38 -38.5h321l-17 -100h-505z" />
    <glyph glyph-name="subscriptthree" unicode="&#x2083;" 
d="M279 -31q17 10 40 25t49.5 33t54 38t53.5 40.5t48 41.5t38 40l-137 -37h-166l29 100h421l-16 -87q-22 -39 -57 -72t-76 -65l-85 -42q52 0 93 -13.5t67 -39t36 -62.5t2 -83q-9 -49 -36.5 -89.5t-68 -72.5t-92 -55.5t-108 -38.5t-115 -22.5t-113.5 -7.5l18 100
q59 2 117.5 15.5t106.5 36.5t80.5 56t39.5 73q5 29 -3.5 49t-27.5 32t-46 17.5t-58 5.5q-7 0 -21.5 -1t-30.5 -1.5t-30 -1.5t-22 -1z" />
    <glyph glyph-name="subscriptfour" unicode="&#x2084;" 
d="M676 -350h-89l-26 -150h-161l27 150h-280l18 100l336 510l139 -10l-231 -369l-110 -131h146l24 140l163 10l-27 -150h100z" />
    <glyph glyph-name="subscriptfive" unicode="&#x2085;" 
d="M391 23q13 3 27.5 4.5t31.5 1.5q58 0 101 -17t69.5 -46.5t36.5 -68.5t2 -84q-9 -52 -37.5 -95t-69.5 -77.5t-93 -61t-108 -44t-114.5 -26.5t-112.5 -9l20 113q36 1 74.5 8t75.5 19t71 29t61 37.5t44.5 45t22.5 51.5q4 20 0.5 39.5t-13.5 34.5t-26 24.5t-38 9.5
q-19 0 -36 -3t-31 -8t-25.5 -10.5t-19.5 -10.5h-113l66 371h433l-18 -100h-259z" />
    <glyph glyph-name="subscriptsix" unicode="&#x2086;" 
d="M666 132q-12 7 -27 8.5t-27 1.5q-35 0 -74.5 -17t-77.5 -49t-70.5 -78.5t-52.5 -105.5l96 72q29 6 51 6q49 0 92 -12.5t73.5 -38.5t44 -67t3.5 -98q-10 -55 -38.5 -104.5t-71.5 -86.5t-97.5 -58.5t-116.5 -21.5q-54 0 -92.5 16t-64.5 42.5t-41 60t-21.5 69.5t-5.5 71
t6 63q10 59 32.5 115t55.5 105.5t75.5 91t93 71t107 46t118.5 16.5q9 0 25.5 -1t40.5 -8zM460 -130q-18 0 -38 -7.5t-38.5 -19t-35 -25.5t-28.5 -26q-3 -13 -4.5 -23.5t-2 -20.5t-0.5 -19.5t1 -19.5q2 -24 7.5 -45t16 -37t24.5 -25.5t32 -9.5q27 0 49.5 14t39.5 37t28.5 51
t16.5 56q4 25 1 47t-12 38t-23.5 25.5t-33.5 9.5z" />
    <glyph glyph-name="subscriptseven" unicode="&#x2087;" 
d="M189 250h504l-15 -81q-2 -13 -12.5 -32t-27 -42.5t-37.5 -50.5t-44 -56q-27 -35 -57 -74.5t-57 -80.5t-49 -82t-33 -78q-5 -18 -10 -40t-9.5 -45.5t-8.5 -46t-8 -41.5h-168q3 16 8 43t11.5 57t14 59t15.5 50q17 44 42 89.5t54 88.5t59.5 82.5t57.5 73.5q22 28 40.5 52
t27.5 41h-318z" />
    <glyph glyph-name="subscripteight" unicode="&#x2088;" 
d="M505 250q51 0 92.5 -13t69 -38t39.5 -60.5t4 -79.5q-5 -26 -18.5 -47.5t-32.5 -39.5t-41.5 -32.5t-45.5 -25.5q31 -16 56 -37.5t42 -47.5t23.5 -57t0.5 -67q-10 -57 -41.5 -99t-76 -69.5t-98 -40.5t-106.5 -13q-52 0 -98 15t-78.5 44t-47.5 71.5t-5 98.5q6 36 22 66.5
t40 56t54 46t64 35.5q-21 13 -38 28.5t-28.5 32.5t-16.5 36t-1 41q6 34 21.5 62t36.5 49.5t46.5 37.5t53 26.5t55.5 15.5t53 5zM531 -297q5 27 -2.5 49t-23 39.5t-35.5 31.5t-41 24q-23 -10 -44 -24t-37.5 -32t-28 -40t-16.5 -49q-4 -24 2 -44.5t19 -35t31 -22.5t37 -8
q23 0 46 7.5t42 21.5t33 34.5t18 47.5zM402 70q-3 -17 1.5 -31.5t14.5 -26.5t23 -21.5t28 -16.5q30 14 53.5 38t28.5 56q4 19 -1 33t-14 23t-20.5 13.5t-21.5 4.5q-14 0 -29 -5.5t-28 -15.5t-22.5 -23t-12.5 -28z" />
    <glyph glyph-name="subscriptnine" unicode="&#x2089;" 
d="M194 -391q34 1 69.5 11.5t68.5 28t62 41t52.5 51t39.5 57.5t22 61l-102 -76q-8 -1 -16.5 -1.5t-17.5 -0.5q-54 0 -98.5 16.5t-74 47.5t-42 75t-2.5 97q9 56 36.5 102t68.5 79t94 51t115 18q55 0 94.5 -15.5t65.5 -41t40.5 -59t21 -69.5t5.5 -71.5t-7 -65.5
q-15 -88 -57 -166t-106 -137t-148 -96.5t-184 -45.5v109zM396 -111q17 0 36 8t37.5 21t35 29.5t27.5 33.5q4 32 1.5 63.5t-12.5 57t-27 41.5t-41 16q-23 0 -45 -11t-39.5 -29t-30 -42t-17.5 -51t-2.5 -51.5t12 -43.5t25.5 -30.5t40 -11.5z" />
    <glyph glyph-name="subscriptplussign" unicode="&#x208a;" 
d="M202 -150h180l37 208h110l-37 -208h180l-18 -100h-180l-35 -200h-110l35 200h-180z" />
    <glyph glyph-name="subscriptminus" unicode="&#x208b;" 
d="M209 -150h450l-19 -112h-450z" />
    <glyph glyph-name="subscriptequals" unicode="&#x208c;" 
d="M252 -100h400l-20 -110h-400zM217 -300h400l-20 -110h-400z" />
    <glyph glyph-name="subscriptleftparenthesis" unicode="&#x208d;" 
d="M224 79q8 46 20.5 86.5t35 70.5t59.5 47t94 17q13 0 26.5 -2t27 -5.5t26 -8.5t21.5 -12l-55 -57q-9 0 -21.5 -2.5t-25.5 -12.5t-24 -30.5t-17 -56.5l-113 -636q-6 -37 -2 -57t13 -29.5t20 -11.5t18 -2l39 -60q-12 -6 -26 -11.5t-29 -9t-29.5 -5t-26.5 -1.5
q-57 0 -87.5 18t-42.5 49.5t-10 73t10 88.5z" />
    <glyph glyph-name="subscriptrightparenthesis" unicode="&#x208e;" 
d="M412 -481q-9 -47 -21 -88.5t-35.5 -73t-60.5 -49.5t-94 -18q-12 0 -26 1.5t-27.5 5t-26 9t-21.5 11.5l60 60q7 0 18.5 2t24 11.5t23.5 29.5t18 57l112 636q6 36 2 56.5t-13 30.5t-20.5 12.5t-20.5 2.5l-35 57q11 7 25 12t29 8.5t29.5 5.5t27.5 2q57 0 87.5 -17t43 -47
t10.5 -70.5t-10 -86.5z" />
    <glyph glyph-name="Euro" unicode="&#x20ac;" 
d="M538 792q-6 -24 -11.5 -55t-5.5 -56l2 -30l91 30h265l-149 -215h-206q14 -116 68 -178.5t145 -62.5q48 0 118.5 21.5t166.5 76.5l90 -209q-38 -29 -85 -53t-104 -41t-125 -27t-149 -10q-93 0 -173 36t-141.5 100.5t-101.5 153t-52 193.5h-163l38 215h132q0 26 4.5 55
t12.5 56h-130l38 215h163q44 104 111.5 194t151 156.5t179 104.5t195.5 38q80 0 145 -17t114.5 -43t81.5 -58t46 -62l-139 -199q-18 30 -39 56.5t-49.5 46.5t-66.5 31.5t-90 11.5q-44 0 -90 -19.5t-88 -54.5t-77.5 -82.5t-57.5 -103.5l-28 -70l116 70h413l-149 -215h-417z
" />
    <glyph glyph-name="indianrupee" unicode="&#x20b9;" 
d="M282 1500h955l-150 -208h-88l-135 48l75 -89q6 -20 4 -44t-5 -38h241l-151 -210h-92l-107 31l48 -65q-32 -59 -81.5 -109.5t-108.5 -89.5t-125 -64.5t-132 -34.5l140 -44l334 -583h-368l-326 573q-7 10 -18 10h-92l39 219h170q47 0 87.5 12.5t74 33.5t60 49.5t45.5 61.5
h-448l95 210h396q-3 16 -9 37.5t-21.5 40.5t-42.5 32t-71 13h-288z" />
    <glyph glyph-name="centigrade" unicode="&#x2103;" horiz-adv-x="2600" 
d="M1648 133q-115 -81 -234 -115.5t-249 -34.5q-103 0 -187.5 28.5t-149 80t-109.5 123.5t-68.5 159t-26.5 187.5t16 207.5q18 101 46 195.5t71 177.5t103.5 152t143.5 118.5t191 77t245 27.5q64 0 124.5 -11.5t114.5 -33.5t100 -54t82 -74l-180 -184q-29 22 -62 42
t-67.5 35t-70 24t-69.5 9q-95 0 -166 -39t-121.5 -106.5t-83.5 -158.5t-51 -194q-11 -61 -13.5 -124.5t4.5 -123.5t25 -113t48.5 -92.5t75 -62.5t103.5 -23q34 0 68 5.5t73 18t85.5 33t105.5 50.5zM447 1517q61 0 111.5 -21t84 -58t48.5 -86t5 -105t-42 -105t-78.5 -85.5
t-104.5 -58t-119 -21.5q-62 0 -112 21.5t-83.5 58t-48 85.5t-4.5 105t41.5 105t78 86t104 58t119.5 21zM382 1145q23 0 45 8t39.5 22t29.5 32.5t16 39.5q3 21 -2.5 39.5t-18.5 32.5t-32 22t-42 8t-45 -8t-39.5 -22t-29.5 -32.5t-15 -39.5q-4 -21 1.5 -39.5t18.5 -32.5
t32 -22t42 -8z" />
    <glyph glyph-name="fahrenheit" unicode="&#x2109;" horiz-adv-x="2600" 
d="M1083 0h-351l223 1263v237h1009l-67 -228h-604l-10 -138l-38 -218h513l-38 -213h-513zM447 1517q61 0 111.5 -21t84 -58t48.5 -86t5 -105t-42 -105t-78.5 -85.5t-104.5 -58t-119 -21.5q-62 0 -112 21.5t-83.5 58t-48 85.5t-4.5 105t41.5 105t78 86t104 58t119.5 21z
M382 1145q23 0 45 8t39.5 22t29.5 32.5t16 39.5q3 21 -2.5 39.5t-18.5 32.5t-32 22t-42 8t-45 -8t-39.5 -22t-29.5 -32.5t-15 -39.5q-4 -21 1.5 -39.5t18.5 -32.5t32 -22t42 -8z" />
    <glyph glyph-name="Ifraktur" unicode="&#x2111;" 
d="M418 1400h620l-26 -184q-39 -23 -77 -57.5t-68 -74.5t-48.5 -81t-18.5 -77q0 -44 20.5 -92.5t52 -101t67.5 -109t67.5 -117t52 -124.5t20.5 -131q0 -131 -73.5 -199.5t-214.5 -68.5q-41 0 -83 11.5t-81 28.5t-72.5 38t-57.5 41l-18 98l-150 -134l-119 90l229 197
q39 -37 81.5 -71t86 -60.5t86.5 -42t84 -15.5q22 0 42 5t35.5 15.5t25 27t9.5 40.5q0 37 -20.5 85.5t-52 104t-67.5 115.5t-67.5 119.5t-52 116.5t-20.5 107q0 26 7 63t28 79t59 87t100 87h-334q-23 -23 -31 -51t-8 -58q0 -17 4.5 -35t9.5 -32q6 -17 15 -33l-106 -60
q-59 83 -59 174q0 130 123 279z" />
    <glyph glyph-name="lsquare" unicode="&#x2113;" 
d="M300 540h100v460q0 112 15.5 207t54.5 164t104.5 107.5t165.5 38.5q56 0 104 -23t82.5 -73t54 -129.5t19.5 -191.5q0 -75 -1.5 -156t-9.5 -159t-26.5 -147.5t-51.5 -122.5t-84.5 -84t-126.5 -31h-100v-17q0 -55 5 -99.5t21 -76.5q17 -33 45 -52q32 -21 66 -25
q19 -2 30 -3t15 -1q25 0 57.5 8t51.5 19l83 -123q-21 -10 -45 -18.5t-53 -15t-65 -10t-81 -3.5q-96 0 -159.5 30.5t-101.5 84.5t-53.5 127t-15.5 158v17h-100v140zM650 540h50q29 0 49.5 19t34 51.5t21 76t11 93.5t4 103t0.5 104q0 73 -1.5 142.5t-10.5 123t-27.5 86
t-52.5 32.5q-21 0 -43.5 -16.5t-41.5 -55.5t-31 -102.5t-12 -157.5v-599z" />
    <glyph glyph-name="weierstrass" unicode="&#x2118;" 
d="M249 -358q25 0 43.5 18t30.5 46t17.5 63t5.5 70q0 36 -5.5 85.5t-14.5 100t-20.5 97t-23.5 78.5v86q-32 -54 -56.5 -119t-41.5 -134t-26 -138t-9 -131q0 -59 24.5 -90.5t75.5 -31.5zM620 1031q-62 -12 -124 -38t-112 -70t-81.5 -108t-31.5 -153q0 -42 11 -92v-122
q71 111 148.5 201t161.5 153.5t173.5 97.5t184.5 34q93 0 157.5 -32t105 -86.5t58.5 -127t18 -152.5q0 -69 -12 -139q-4 -24 -16.5 -64t-35.5 -86t-57.5 -93t-82.5 -85t-110 -62t-141 -24q-54 0 -105 18t-91.5 52.5t-65 84.5t-24.5 113q0 97 34 163.5t86 108t114 59.5
t118 18l-20 -80q-38 0 -78 -13t-73.5 -43t-55 -79.5t-21.5 -123.5q0 -32 15 -62t41 -52.5t60.5 -36t74.5 -13.5q39 0 75 20t67 54.5t56.5 79.5t43 94.5t27.5 101.5t10 99q0 55 -15.5 101.5t-44.5 80.5t-70 53t-92 19q-95 0 -173.5 -34.5t-145 -91.5t-124 -130t-111.5 -149
q30 -65 58 -134.5t49.5 -140t34 -140t12.5 -134.5q0 -61 -12.5 -125t-44 -116t-84.5 -85.5t-135 -33.5q-59 0 -98 20.5t-62.5 54.5t-33 79t-9.5 94q0 83 15.5 166t42 160.5t61 146.5t73.5 124q-15 34 -31 68.5t-29 71.5t-21.5 78t-8.5 88q0 78 21.5 144.5t58 119.5t84 93.5
t100.5 68t108 41t105 13.5z" />
    <glyph glyph-name="Rfraktur" unicode="&#x211c;" 
d="M900 1400q39 -26 75 -62.5t64 -82t44.5 -98.5t16.5 -110q0 -60 -2 -116.5t-15.5 -105t-42 -85.5t-81.5 -57q19 -19 30 -38t17 -40t8 -45t2 -53v-217q0 -17 2.5 -35t8.5 -34.5t15 -30t22 -22.5l133 53l53 -96l-230 -142q-36 9 -70 23t-60.5 38t-43 61.5t-16.5 94.5v171
q0 82 -4 146t-29 99l-206 -63v-253q0 -55 -6.5 -111.5t-28 -102t-63.5 -74.5t-113 -29h-23l-130 134l-76 -64l-82 72l158 174l131 -130q34 19 42 44t8 53v716q0 27 4.5 58t23.5 62.5t57 60.5t105 53h-297q-23 -20 -31.5 -47t-8.5 -57q0 -20 4.5 -38.5t9.5 -33.5
q6 -18 15 -33l-106 -60q-36 47 -47.5 90t-11.5 93q0 37 10 73.5t27 71t39.5 66.5t46.5 59h652zM591 628l80 92l74 29q65 25 100 64t51.5 83t19 91t2.5 89q0 32 -7.5 60.5t-16.5 49.5q-11 25 -24 46q-70 0 -117.5 -12.5t-78.5 -33.5t-48 -48.5t-24.5 -58.5t-9 -63.5
t-1.5 -62.5v-325z" />
    <glyph glyph-name="trademark" unicode="&#x2122;" 
d="M114 900l88 500h-190l17 100h581l-17 -100h-190l-88 -500h-201zM1015 900l68 390l-80 -170l-110 -170h-40l-50 170l-20 170l-68 -390h-180l105 600h220l49 -120l14 -150l66 150l91 120h220l-105 -600h-180z" />
    <glyph glyph-name="Ohm" unicode="&#x2126;" 
d="M1 228h180l-8 9q-28 33 -46 87.5t-25.5 125t-3.5 153.5t19 171q29 165 77 301.5t129.5 235t203 152.5t297.5 54q172 0 274 -54t149.5 -152.5t48.5 -235t-28 -301.5q-15 -87 -41 -169t-57.5 -152t-67.5 -125t-71 -87l-17 -13h178l-40 -228h-537l41 236q75 47 119 98.5
t69.5 112.5t39.5 134t30 163q19 106 26 203t-5.5 170.5t-50 117.5t-108.5 44q-66 0 -115 -38.5t-85.5 -103.5t-61.5 -150.5t-41 -179.5q-18 -104 -32.5 -187.5t-12 -152.5t27 -125.5t83.5 -106.5l-41 -235h-537z" />
    <glyph glyph-name="angstrom" unicode="&#x212b;" 
d="M970 1926q59 0 107 -22.5t79.5 -61t44.5 -90.5t3 -111q-11 -59 -42 -111.5t-76 -92.5l-5 -4l153 -1433h-334l-28 427h-342l-177 -427h-318l581 1284l51 174q-20 32 -30 71q-14 53 -3 112q10 59 42 111t77.5 90.5t101.5 61t115 22.5zM862 1331l-99 -341l-136 -344h224
l-11 344zM903 1541q20 0 39 8t34.5 21.5t26 31.5t14.5 38q3 20 -1.5 37.5t-15 31t-27 21t-36.5 7.5t-39 -7.5t-34.5 -21t-26.5 -31t-14 -37.5q-4 -20 0.5 -38t15.5 -31.5t27.5 -21.5t36.5 -8z" />
    <glyph glyph-name="scriptsmallo" unicode="&#x2134;" 
d="M467 -17q-70 0 -124 22t-90.5 61.5t-55.5 95t-19 122.5q0 74 18 147.5t52 140t82.5 124t109.5 99.5t133 66t153 24q69 0 123.5 -21t92 -60t57 -93.5t19.5 -120.5q0 -74 -18.5 -147.5t-52.5 -140.5t-83 -125.5t-110.5 -101.5t-133.5 -67.5t-153 -24.5zM848 558
q0 39 -7.5 73.5t-25.5 60t-47.5 40t-74.5 14.5q-54 0 -100.5 -19t-85 -51.5t-68.5 -76t-50.5 -92t-31.5 -99.5t-11 -98q0 -40 7.5 -74t25.5 -59t48 -39.5t74 -14.5q81 0 145 39t109 101.5t69 140t24 154.5z" />
    <glyph glyph-name="aleph" unicode="&#x2135;" 
d="M788 1100q4 -56 26.5 -90t54.5 -58t68 -43t66.5 -44t50.5 -62t20 -96q0 -63 -28 -139h-86q0 39 -7.5 67.5t-20 51t-30 40t-38.5 32.5q-12 -42 -33 -73.5t-53 -63.5q97 -57 158.5 -117.5t96 -119.5t47.5 -114t13 -103q0 -55 -11 -101t-20 -67h-105q0 64 -20.5 114.5
t-56.5 93.5t-85 81t-106 78.5t-120 86.5t-126 104v108q-29 -31 -46.5 -52t-27 -36.5t-12.5 -27t-3 -21.5q0 -39 19 -74t48 -68.5t62 -66t62 -67t48 -71.5t19 -79q0 -50 -31 -103h-382l40 140h175l-153 88q-26 39 -44 86.5t-18 106.5q0 36 9 72.5t24.5 71t37.5 66t49 57.5
q-61 62 -89.5 120.5t-28.5 127.5q0 36 7.5 76t22.5 88h89q0 -58 27.5 -110.5t71.5 -100t99 -89.5t111 -79v-97q39 35 63.5 61t37.5 47t17.5 39.5t4.5 39.5v12q-45 35 -65.5 68t-20.5 78q0 51 28 131h94z" />
    <glyph glyph-name="onethirds" unicode="&#x2153;" 
d="M261 0h-185l1040 1500h176zM840 469q17 10 40 25t49.5 33t54 38t53.5 40.5t48 41.5t38 40l-137 -37h-166l29 100h421l-16 -87q-22 -39 -57 -72t-76 -65l-85 -42q52 0 93 -13.5t67 -39t36 -62.5t2 -83q-9 -49 -36.5 -89.5t-68 -72.5t-92 -55.5t-108 -38.5t-115 -22.5
t-113.5 -7.5l18 100q59 2 117.5 15.5t106.5 36.5t80.5 56t39.5 73q5 29 -3.5 49t-27.5 32t-46 17.5t-58 5.5q-7 0 -21.5 -1t-30.5 -1.5t-30 -1.5t-22 -1zM320 1160l69 181l-138 -135l-48 -37l-62 92l279 219l120 -10l-115 -650h122l-18 -100h-409l18 100h122z" />
    <glyph glyph-name="twothirds" unicode="&#x2154;" 
d="M261 0h-185l1040 1500h176zM23 720l16 95q30 37 68 77.5t77.5 80t76.5 74.5t65 60q33 29 55 49t37 37t23 34.5t12 40.5q4 19 1 37t-12 32.5t-24 23.5t-35 9q-41 0 -77 -27.5t-68 -74.5l-109 43q21 39 49.5 69.5t63.5 52.5t77 33.5t90 11.5q57 0 98.5 -18.5t66.5 -49
t34.5 -69.5t2.5 -78q-6 -35 -22.5 -64.5t-39.5 -57t-51.5 -54.5t-58.5 -57t-62.5 -61t-61.5 -59t-53 -51.5t-38 -38.5h321l-17 -100h-505zM851 469q17 10 40 25t49.5 33t54 38t53.5 40.5t48 41.5t38 40l-137 -37h-166l29 100h421l-16 -87q-22 -39 -57 -72t-76 -65l-85 -42
q52 0 93 -13.5t67 -39t36 -62.5t2 -83q-9 -49 -36.5 -89.5t-68 -72.5t-92 -55.5t-108 -38.5t-115 -22.5t-113.5 -7.5l18 100q59 2 117.5 15.5t106.5 36.5t80.5 56t39.5 73q5 29 -3.5 49t-27.5 32t-46 17.5t-58 5.5q-7 0 -21.5 -1t-30.5 -1.5t-30 -1.5t-22 -1z" />
    <glyph glyph-name="onefifth" unicode="&#x2155;" 
d="M251 0h-185l1040 1500h176zM984 523q13 3 27.5 4.5t31.5 1.5q58 0 101 -17t69.5 -46.5t36.5 -68.5t2 -84q-9 -52 -37.5 -95t-69.5 -77.5t-93 -61t-108 -44t-114.5 -26.5t-112.5 -9l20 113q36 1 74.5 8t75.5 19t71 29t61 37.5t44.5 45t22.5 51.5q4 20 0.5 39.5t-13.5 34.5
t-26 24.5t-38 9.5q-19 0 -36 -3t-31 -8t-25.5 -10.5t-19.5 -10.5h-113l66 371h433l-18 -100h-259zM320 1160l69 181l-138 -135l-48 -37l-62 92l279 219l120 -10l-115 -650h122l-18 -100h-409l18 100h122z" />
    <glyph glyph-name="twofifths" unicode="&#x2156;" 
d="M261 0h-185l1040 1500h176zM23 720l16 95q30 37 68 77.5t77.5 80t76.5 74.5t65 60q33 29 55 49t37 37t23 34.5t12 40.5q4 19 1 37t-12 32.5t-24 23.5t-35 9q-41 0 -77 -27.5t-68 -74.5l-109 43q21 39 49.5 69.5t63.5 52.5t77 33.5t90 11.5q57 0 98.5 -18.5t66.5 -49
t34.5 -69.5t2.5 -78q-6 -35 -22.5 -64.5t-39.5 -57t-51.5 -54.5t-58.5 -57t-62.5 -61t-61.5 -59t-53 -51.5t-38 -38.5h321l-17 -100h-505zM984 523q13 3 27.5 4.5t31.5 1.5q58 0 101 -17t69.5 -46.5t36.5 -68.5t2 -84q-9 -52 -37.5 -95t-69.5 -77.5t-93 -61t-108 -44
t-114.5 -26.5t-112.5 -9l20 113q36 1 74.5 8t75.5 19t71 29t61 37.5t44.5 45t22.5 51.5q4 20 0.5 39.5t-13.5 34.5t-26 24.5t-38 9.5q-19 0 -36 -3t-31 -8t-25.5 -10.5t-19.5 -10.5h-113l66 371h433l-18 -100h-259z" />
    <glyph glyph-name="threefifths" unicode="&#x2157;" 
d="M241 0h-185l1040 1500h176zM984 523q13 3 27.5 4.5t31.5 1.5q58 0 101 -17t69.5 -46.5t36.5 -68.5t2 -84q-9 -52 -37.5 -95t-69.5 -77.5t-93 -61t-108 -44t-114.5 -26.5t-112.5 -9l20 113q36 1 74.5 8t75.5 19t71 29t61 37.5t44.5 45t22.5 51.5q4 20 0.5 39.5t-13.5 34.5
t-26 24.5t-38 9.5q-19 0 -36 -3t-31 -8t-25.5 -10.5t-19.5 -10.5h-113l66 371h433l-18 -100h-259zM229 1189q17 10 40 25t49.5 33t54 38t53.5 40.5t48 41.5t38 40l-137 -37h-166l29 100h421l-16 -87q-22 -39 -57 -72t-76 -65l-85 -42q52 0 93 -13.5t67 -39t36 -62.5t2 -83
q-9 -49 -36.5 -89.5t-68 -72.5t-92 -55.5t-108 -38.5t-115 -22.5t-113.5 -7.5l18 100q59 2 117.5 15.5t106.5 36.5t80.5 56t39.5 73q5 29 -3.5 49t-27.5 32t-46 17.5t-58 5.5q-7 0 -21.5 -1t-30.5 -1.5t-30 -1.5t-22 -1z" />
    <glyph glyph-name="fourfifths" unicode="&#x2158;" 
d="M251 0h-185l1040 1500h176zM984 523q13 3 27.5 4.5t31.5 1.5q58 0 101 -17t69.5 -46.5t36.5 -68.5t2 -84q-9 -52 -37.5 -95t-69.5 -77.5t-93 -61t-108 -44t-114.5 -26.5t-112.5 -9l20 113q36 1 74.5 8t75.5 19t71 29t61 37.5t44.5 45t22.5 51.5q4 20 0.5 39.5t-13.5 34.5
t-26 24.5t-38 9.5q-19 0 -36 -3t-31 -8t-25.5 -10.5t-19.5 -10.5h-113l66 371h433l-18 -100h-259zM586 870h-89l-26 -150h-161l27 150h-280l18 100l336 510l139 -10l-231 -369l-110 -131h146l24 140l163 10l-27 -150h100z" />
    <glyph glyph-name="onesixth" unicode="&#x2159;" 
d="M261 0h-185l1040 1500h176zM1178 640q-12 7 -27 8.5t-27 1.5q-35 0 -74.5 -17t-77.5 -49t-70.5 -78.5t-52.5 -105.5l96 72q29 6 51 6q49 0 92 -12.5t73.5 -38.5t44 -67t3.5 -98q-10 -55 -38.5 -104.5t-71.5 -86.5t-97.5 -58.5t-116.5 -21.5q-54 0 -92.5 16t-64.5 42.5
t-41 60t-21.5 69.5t-5.5 71t6 63q10 59 32.5 115t55.5 105.5t75.5 91t93 71t107 46t118.5 16.5q9 0 25.5 -1t40.5 -8zM972 378q-18 0 -38 -7.5t-38.5 -19t-35 -25.5t-28.5 -26q-3 -13 -4.5 -23.5t-2 -20.5t-0.5 -19.5t1 -19.5q2 -24 7.5 -45t16 -37t24.5 -25.5t32 -9.5
q27 0 49.5 14t39.5 37t28.5 51t16.5 56q4 25 1 47t-12 38t-23.5 25.5t-33.5 9.5zM320 1160l69 181l-138 -135l-48 -37l-62 92l279 219l120 -10l-115 -650h122l-18 -100h-409l18 100h122z" />
    <glyph glyph-name="fivesixths" unicode="&#x215a;" 
d="M251 0h-185l1040 1500h176zM1188 640q-12 7 -27 8.5t-27 1.5q-35 0 -74.5 -17t-77.5 -49t-70.5 -78.5t-52.5 -105.5l96 72q29 6 51 6q49 0 92 -12.5t73.5 -38.5t44 -67t3.5 -98q-10 -55 -38.5 -104.5t-71.5 -86.5t-97.5 -58.5t-116.5 -21.5q-54 0 -92.5 16t-64.5 42.5
t-41 60t-21.5 69.5t-5.5 71t6 63q10 59 32.5 115t55.5 105.5t75.5 91t93 71t107 46t118.5 16.5q9 0 25.5 -1t40.5 -8zM982 378q-18 0 -38 -7.5t-38.5 -19t-35 -25.5t-28.5 -26q-3 -13 -4.5 -23.5t-2 -20.5t-0.5 -19.5t1 -19.5q2 -24 7.5 -45t16 -37t24.5 -25.5t32 -9.5
q27 0 49.5 14t39.5 37t28.5 51t16.5 56q4 25 1 47t-12 38t-23.5 25.5t-33.5 9.5zM361 1243q13 3 27.5 4.5t31.5 1.5q58 0 101 -17t69.5 -46.5t36.5 -68.5t2 -84q-9 -52 -37.5 -95t-69.5 -77.5t-93 -61t-108 -44t-114.5 -26.5t-112.5 -9l20 113q36 1 74.5 8t75.5 19t71 29
t61 37.5t44.5 45t22.5 51.5q4 20 0.5 39.5t-13.5 34.5t-26 24.5t-38 9.5q-19 0 -36 -3t-31 -8t-25.5 -10.5t-19.5 -10.5h-113l66 371h433l-18 -100h-259z" />
    <glyph glyph-name="oneeighth" unicode="&#x215b;" 
d="M261 0h-185l1040 1500h176zM1048 758q51 0 92.5 -13t69 -38t39.5 -60.5t4 -79.5q-5 -26 -18.5 -47.5t-32.5 -39.5t-41.5 -32.5t-45.5 -25.5q31 -16 56 -37.5t42 -47.5t23.5 -57t0.5 -67q-10 -57 -41.5 -99t-76 -69.5t-98 -40.5t-106.5 -13q-52 0 -98 15t-78.5 44
t-47.5 71.5t-5 98.5q6 36 22 66.5t40 56t54 46t64 35.5q-21 13 -38 28.5t-28.5 32.5t-16.5 36t-1 41q6 34 21.5 62t36.5 49.5t46.5 37.5t53 26.5t55.5 15.5t53 5zM1074 211q5 27 -2.5 49t-23 39.5t-35.5 31.5t-41 24q-23 -10 -44 -24t-37.5 -32t-28 -40t-16.5 -49
q-4 -24 2 -44.5t19 -35t31 -22.5t37 -8q23 0 46 7.5t42 21.5t33 34.5t18 47.5zM945 578q-3 -17 1.5 -31.5t14.5 -26.5t23 -21.5t28 -16.5q30 14 53.5 38t28.5 56q4 19 -1 33t-14 23t-20.5 13.5t-21.5 4.5q-14 0 -29 -5.5t-28 -15.5t-22.5 -23t-12.5 -28zM320 1160l69 181
l-138 -135l-48 -37l-62 92l279 219l120 -10l-115 -650h122l-18 -100h-409l18 100h122z" />
    <glyph glyph-name="threeeighths" unicode="&#x215c;" 
d="M261 0h-185l1040 1500h176zM219 1189q17 10 40 25t49.5 33t54 38t53.5 40.5t48 41.5t38 40l-137 -37h-166l29 100h421l-16 -87q-22 -39 -57 -72t-76 -65l-85 -42q52 0 93 -13.5t67 -39t36 -62.5t2 -83q-9 -49 -36.5 -89.5t-68 -72.5t-92 -55.5t-108 -38.5t-115 -22.5
t-113.5 -7.5l18 100q59 2 117.5 15.5t106.5 36.5t80.5 56t39.5 73q5 29 -3.5 49t-27.5 32t-46 17.5t-58 5.5q-7 0 -21.5 -1t-30.5 -1.5t-30 -1.5t-22 -1zM1058 758q51 0 92.5 -13t69 -38t39.5 -60.5t4 -79.5q-5 -26 -18.5 -47.5t-32.5 -39.5t-41.5 -32.5t-45.5 -25.5
q31 -16 56 -37.5t42 -47.5t23.5 -57t0.5 -67q-10 -57 -41.5 -99t-76 -69.5t-98 -40.5t-106.5 -13q-52 0 -98 15t-78.5 44t-47.5 71.5t-5 98.5q6 36 22 66.5t40 56t54 46t64 35.5q-21 13 -38 28.5t-28.5 32.5t-16.5 36t-1 41q6 34 21.5 62t36.5 49.5t46.5 37.5t53 26.5
t55.5 15.5t53 5zM1084 211q5 27 -2.5 49t-23 39.5t-35.5 31.5t-41 24q-23 -10 -44 -24t-37.5 -32t-28 -40t-16.5 -49q-4 -24 2 -44.5t19 -35t31 -22.5t37 -8q23 0 46 7.5t42 21.5t33 34.5t18 47.5zM955 578q-3 -17 1.5 -31.5t14.5 -26.5t23 -21.5t28 -16.5q30 14 53.5 38
t28.5 56q4 19 -1 33t-14 23t-20.5 13.5t-21.5 4.5q-14 0 -29 -5.5t-28 -15.5t-22.5 -23t-12.5 -28z" />
    <glyph glyph-name="fiveeighths" unicode="&#x215d;" 
d="M261 0h-185l1040 1500h176zM1058 758q51 0 92.5 -13t69 -38t39.5 -60.5t4 -79.5q-5 -26 -18.5 -47.5t-32.5 -39.5t-41.5 -32.5t-45.5 -25.5q31 -16 56 -37.5t42 -47.5t23.5 -57t0.5 -67q-10 -57 -41.5 -99t-76 -69.5t-98 -40.5t-106.5 -13q-52 0 -98 15t-78.5 44
t-47.5 71.5t-5 98.5q6 36 22 66.5t40 56t54 46t64 35.5q-21 13 -38 28.5t-28.5 32.5t-16.5 36t-1 41q6 34 21.5 62t36.5 49.5t46.5 37.5t53 26.5t55.5 15.5t53 5zM1084 211q5 27 -2.5 49t-23 39.5t-35.5 31.5t-41 24q-23 -10 -44 -24t-37.5 -32t-28 -40t-16.5 -49
q-4 -24 2 -44.5t19 -35t31 -22.5t37 -8q23 0 46 7.5t42 21.5t33 34.5t18 47.5zM955 578q-3 -17 1.5 -31.5t14.5 -26.5t23 -21.5t28 -16.5q30 14 53.5 38t28.5 56q4 19 -1 33t-14 23t-20.5 13.5t-21.5 4.5q-14 0 -29 -5.5t-28 -15.5t-22.5 -23t-12.5 -28zM361 1243
q13 3 27.5 4.5t31.5 1.5q58 0 101 -17t69.5 -46.5t36.5 -68.5t2 -84q-9 -52 -37.5 -95t-69.5 -77.5t-93 -61t-108 -44t-114.5 -26.5t-112.5 -9l20 113q36 1 74.5 8t75.5 19t71 29t61 37.5t44.5 45t22.5 51.5q4 20 0.5 39.5t-13.5 34.5t-26 24.5t-38 9.5q-19 0 -36 -3t-31 -8
t-25.5 -10.5t-19.5 -10.5h-113l66 371h433l-18 -100h-259z" />
    <glyph glyph-name="seveneighths" unicode="&#x215e;" 
d="M241 0h-185l1040 1500h176zM1058 758q51 0 92.5 -13t69 -38t39.5 -60.5t4 -79.5q-5 -26 -18.5 -47.5t-32.5 -39.5t-41.5 -32.5t-45.5 -25.5q31 -16 56 -37.5t42 -47.5t23.5 -57t0.5 -67q-10 -57 -41.5 -99t-76 -69.5t-98 -40.5t-106.5 -13q-52 0 -98 15t-78.5 44
t-47.5 71.5t-5 98.5q6 36 22 66.5t40 56t54 46t64 35.5q-21 13 -38 28.5t-28.5 32.5t-16.5 36t-1 41q6 34 21.5 62t36.5 49.5t46.5 37.5t53 26.5t55.5 15.5t53 5zM1084 211q5 27 -2.5 49t-23 39.5t-35.5 31.5t-41 24q-23 -10 -44 -24t-37.5 -32t-28 -40t-16.5 -49
q-4 -24 2 -44.5t19 -35t31 -22.5t37 -8q23 0 46 7.5t42 21.5t33 34.5t18 47.5zM955 578q-3 -17 1.5 -31.5t14.5 -26.5t23 -21.5t28 -16.5q30 14 53.5 38t28.5 56q4 19 -1 33t-14 23t-20.5 13.5t-21.5 4.5q-14 0 -29 -5.5t-28 -15.5t-22.5 -23t-12.5 -28zM189 1470h504
l-15 -81q-2 -13 -12.5 -32t-27 -42.5t-37.5 -50.5t-44 -56q-27 -35 -57 -74.5t-57 -80.5t-49 -82t-33 -78q-5 -18 -10 -40t-9.5 -45.5t-8.5 -46t-8 -41.5h-168q3 16 8 43t11.5 57t14 59t15.5 50q17 44 42 89.5t54 88.5t59.5 82.5t57.5 73.5q22 28 40.5 52t27.5 41h-318z" />
    <glyph glyph-name="fractionnumeratorone" unicode="&#x215f;" 
d="M261 0h-185l1040 1500h176zM320 1160l69 181l-138 -135l-48 -37l-62 92l279 219l120 -10l-115 -650h122l-18 -100h-409l18 100h122z" />
    <glyph glyph-name="romannumeralone" unicode="&#x2160;" 
d="M353 1500h878l-40 -228h-273l-185 -1044h301l-75 -228h-878l40 228h278l185 1044h-306z" />
    <glyph glyph-name="romannumeraltwo" unicode="&#x2161;" horiz-adv-x="2600" 
d="M653 1500h1478l-40 -228h-273l-185 -1044h301l-75 -228h-1478l40 228h278l185 1044h-306zM1299 228l185 1044h-266l-185 -1044h266z" />
    <glyph glyph-name="romannumeralthree" unicode="&#x2162;" horiz-adv-x="2600" 
d="M253 1500h2083l-40 -228h-273l-185 -1044h301l-75 -228h-2083l40 228h278l185 1044h-306zM1504 228l185 1044h-271l-185 -1044h271zM1084 1272h-266l-185 -1044h266z" />
    <glyph glyph-name="romannumeralfour" unicode="&#x2163;" horiz-adv-x="2600" 
d="M403 1500h1144l104 -800l-24 -440l147 440l389 800h320l-642 -1300l-66 -217l-349 17l-181 1296l-4 -24h-273l-185 -1044h301l-75 -228h-878l40 228h278l185 1044h-306z" />
    <glyph glyph-name="romannumeralfive" unicode="&#x2164;" 
d="M1283 1500l-642 -1300l-66 -217l-349 17l-209 1500l326 20l108 -820l-24 -440l147 440l389 800h320z" />
    <glyph glyph-name="romannumeralsix" unicode="&#x2165;" horiz-adv-x="2600" 
d="M2081 1500l-40 -228h-273l-185 -1044h301l-75 -228h-878l40 228h278l185 1044h-264l-529 -1072l-66 -217l-349 17l-209 1500l326 20l108 -820l-24 -440l147 440l389 800h1118z" />
    <glyph glyph-name="romannumeralseven" unicode="&#x2166;" horiz-adv-x="2600" 
d="M963 1500h1768l-40 -228h-273l-185 -1044h301l-75 -228h-1528l40 228h278l185 1044h-264l-529 -1072l-66 -217l-349 17l-209 1500l326 20l108 -820l-24 -440l147 440zM1899 228l185 1044h-316l-185 -1044h316z" />
    <glyph glyph-name="romannumeraleight" unicode="&#x2167;" horiz-adv-x="2600" 
d="M763 1500h1768l-40 -228h-273l-185 -1044h301l-75 -228h-1528l40 228h278l185 1044h-264l-529 -1072l-66 -217l-349 17l-209 1500l326 20l108 -820l-24 -440l147 440zM1699 228l185 1044h-316l-185 -1044h316z" />
    <glyph glyph-name="romannumeralnine" unicode="&#x2168;" horiz-adv-x="2600" 
d="M503 1500h1087l175 -450l52 181l165 269h287l-421 -645l317 -855h-340l-214 613l-40 -186l-250 -427h-1090l40 228h278l185 1044h-306zM1521 824l-180 451v-3h-273l-185 -1044h260z" />
    <glyph glyph-name="romannumeralten" unicode="&#x2169;" 
d="M825 0l-214 613l-40 -186l-250 -427h-322l522 824l-269 676l332 20l181 -470l52 181l165 269h287l-421 -645l317 -855h-340z" />
    <glyph glyph-name="romannumeraleleven" unicode="&#x216a;" horiz-adv-x="2600" 
d="M982 1500h1049l-40 -228h-273l-185 -1044h301l-75 -228h-934l-214 613l-40 -186l-250 -427h-322l522 824l-269 676l332 20l181 -470l52 181zM1199 228l185 1044h-264l-272 -417l232 -627h119z" />
    <glyph glyph-name="romannumeraltwelve" unicode="&#x216b;" horiz-adv-x="2600" 
d="M825 0l-214 613l-40 -186l-250 -427h-322l522 824l-269 676l332 20l181 -470l52 181l165 269h1649l-40 -228h-273l-185 -1044h301l-75 -228h-1534zM1199 228l185 1044h-264l-272 -417l232 -627h119zM1533 228h266l185 1044h-266z" />
    <glyph glyph-name="smallromannumeralone" unicode="&#x2170;" 
d="M651 0h-300l194 1100l303 20z" />
    <glyph glyph-name="smallromannumeraltwo" unicode="&#x2171;" 
d="M451 0h-300l194 1100l303 20zM951 0h-300l194 1100l303 20z" />
    <glyph glyph-name="smallromannumeralthree" unicode="&#x2172;" 
d="M151 0h-300l194 1100l303 20zM651 0h-300l194 1100l303 20zM1151 0h-300l194 1100l303 20z" />
    <glyph glyph-name="smallromannumeralfour" unicode="&#x2173;" 
d="M191 0h-300l194 1100l303 20l-3 -18l281 18l62 -420l3 -400l143 400l201 400l317 20l-574 -1137l-313 17l-141 985z" />
    <glyph glyph-name="smallromannumeralfive" unicode="&#x2174;" 
d="M508 700l3 -400l143 400l201 400l317 20l-574 -1137l-313 17l-157 1100l318 20z" />
    <glyph glyph-name="smallromannumeralsix" unicode="&#x2175;" 
d="M1101 0h-300l174 987l-507 -1004l-313 17l-157 1100l318 20l62 -420l3 -400l143 400l201 400l317 20l-9 -18l265 18z" />
    <glyph glyph-name="smallromannumeralseven" unicode="&#x2176;" horiz-adv-x="2600" 
d="M508 700l3 -400l143 400l201 400l317 20l-574 -1137l-313 17l-157 1100l318 20zM1351 0h-300l194 1100l303 20zM1851 0h-300l194 1100l303 20z" />
    <glyph glyph-name="smallromannumeraleight" unicode="&#x2177;" horiz-adv-x="2600" 
d="M508 700l3 -400l143 400l201 400l317 20l-574 -1137l-313 17l-157 1100l318 20zM1351 0h-300l194 1100l303 20zM1851 0h-300l194 1100l303 20zM2351 0h-300l194 1100l303 20z" />
    <glyph glyph-name="smallromannumeralnine" unicode="&#x2178;" 
d="M437 0h-566l194 1100l303 20l-3 -19l317 19l102 -220l27 -200l95 200l165 200l358 20l-464 -539l306 -581h-361l-133 272l-31 202l-93 -202zM602 585l-245 475l-168 -955z" />
    <glyph glyph-name="smallromannumeralten" unicode="&#x2179;" 
d="M677 272l-31 202l-93 -202l-216 -272h-338l503 585l-265 515l345 20l102 -220l27 -200l95 200l165 200l358 20l-464 -539l306 -581h-361z" />
    <glyph glyph-name="smallromannumeraleleven" unicode="&#x217a;" 
d="M1291 0h-581l-133 272l-31 202l-93 -202l-216 -272h-338l503 585l-265 515l345 20l102 -220l27 -200l95 200l165 200l358 20l-16 -18l275 18zM1011 114l167 947l-413 -480z" />
    <glyph glyph-name="smallromannumeraltwelve" unicode="&#x217b;" horiz-adv-x="2600" 
d="M1581 0h-571l-133 272l-31 202l-93 -202l-216 -272h-338l503 585l-265 515l345 20l102 -220l27 -200l95 200l165 200l358 20l-15 -18l264 18zM1981 0h-300l194 1100l303 20zM1303 128l162 918l-400 -465z" />
    <glyph glyph-name="arrowleft" unicode="&#x2190;" 
d="M447 500l-104 12l57 -75v-237l-301 300l-119 100l120 100l300 300v-235l-57 -75l104 10h853v-200h-853z" />
    <glyph glyph-name="arrowup" unicode="&#x2191;" 
d="M500 1053l12 104l-75 -57h-237l300 301l100 119l100 -120l300 -300h-235l-75 57l10 -104v-1053h-200v1053z" />
    <glyph glyph-name="arrowright" unicode="&#x2192;" 
d="M0 500v200h853l104 -10l-57 75v235l300 -300l120 -100l-119 -100l-301 -300v237l57 75l-104 -12h-853z" />
    <glyph glyph-name="arrowdown" unicode="&#x2193;" 
d="M500 1500h200v-1053l-10 -104l75 57h235l-300 -300l-100 -120l-100 119l-300 301h237l75 -57l-12 104v1053z" />
    <glyph glyph-name="arrowboth" unicode="&#x2194;" 
d="M447 500l-104 12l57 -75v-237l-301 300l-119 100l120 100l300 300v-235l-57 -75l104 10h406l104 -10l-57 75v235l300 -300l120 -100l-119 -100l-301 -300v237l57 75l-104 -12h-406z" />
    <glyph glyph-name="arrowupdn" unicode="&#x2195;" 
d="M700 467l-12 -104l75 57h237l-300 -301l-100 -119l-100 120l-300 300h235l75 -57l-10 104v386l10 104l-75 -57h-235l300 300l100 120l100 -119l300 -301h-237l-75 57l12 -104v-386z" />
    <glyph glyph-name="arrowupleft" unicode="&#x2196;" 
d="M1090 151l-141 -141l-603 603l-67 79l-11 -93l-168 -165v404l-20 182l182 -20h404l-166 -169l-94 -12l81 -65z" />
    <glyph glyph-name="arrowupright" unicode="&#x2197;" 
d="M713 754l81 65l-94 12l-166 169h404l182 20l-20 -182v-404l-168 165l-11 93l-67 -79l-603 -603l-141 141z" />
    <glyph glyph-name="arrowdownright" unicode="&#x2198;" 
d="M110 849l141 141l603 -603l67 -79l11 93l168 165v-404l20 -182l-182 20h-404l166 169l94 12l-81 65z" />
    <glyph glyph-name="arrowdownleft" unicode="&#x2199;" 
d="M487 246l-81 -65l94 -12l166 -169h-404l-182 -20l20 182v404l168 -165l11 -93l67 79l603 603l141 -141z" />
    <glyph glyph-name="leftwardsarrowwithhook" unicode="&#x21a9;" 
d="M447 400l-104 12l57 -75v-237l-301 300l-119 100l120 100l300 300v-235l-57 -75l104 10h453q27 0 50.5 7.5t41.5 21t28 32t10 39.5t-10 39t-28 31.5t-41.5 21.5t-50.5 8v200q56 0 110 -19t96 -56.5t68 -93.5t26 -131t-26 -131.5t-68 -94t-96 -56t-110 -18.5h-453z" />
    <glyph glyph-name="rightwardsarrowwithhook" unicode="&#x21aa;" 
d="M300 400q-56 0 -110 18.5t-96 56t-68 94t-26 131.5t26 131t68 93.5t96 56.5t110 19v-200q-27 0 -50.5 -8t-41.5 -21.5t-28 -31.5t-10 -39t10 -39.5t28 -32t41.5 -21t50.5 -7.5h453l104 -10l-57 75v235l300 -300l120 -100l-119 -100l-301 -300v237l57 75l-104 -12h-453z
" />
    <glyph glyph-name="downwardsarrowwithtiprightwards" unicode="&#x21b3;" 
d="M359 500h294l104 -10l-57 75v235l300 -300l120 -100l-119 -100l-301 -300v237l57 75l-104 -12h-453v1000h159v-800z" />
    <glyph glyph-name="carriagereturn" unicode="&#x21b5;" 
d="M941 1300h159v-1000h-453l-104 12l57 -75v-237l-301 300l-119 100l120 100l300 300v-235l-57 -75l104 10h294v800z" />
    <glyph glyph-name="undo" unicode="&#x21b6;" 
d="M400 369l166 -169h-404l-182 -20l20 182v404l168 -165l11 -93l67 79l41 43q69 72 130 131t125 101.5t135.5 65.5t162.5 23q97 0 180.5 -26t145 -81t97 -140.5t37.5 -203.5h-200q0 120 -59 185.5t-188 65.5q-71 0 -127.5 -27.5t-109.5 -71t-107.5 -98t-121.5 -108.5
l-81 -65z" />
    <glyph glyph-name="redo" unicode="&#x21b7;" 
d="M994 381l-81 65q-67 54 -121.5 108.5t-107.5 98t-109.5 71t-127.5 27.5q-129 0 -188 -65.5t-59 -185.5h-200q1 118 36.5 203.5t97 140.5t145 81t181.5 26q91 0 162.5 -23t135.5 -65.5t125 -101.5t130 -131l41 -43l67 -79l11 93l168 165v-404l20 -182l-182 20h-404
l166 169z" />
    <glyph glyph-name="arrowdblleft" unicode="&#x21d0;" 
d="M7 691l366 366h170l-245 -244l100 -13h902v-116h-752l-350 28l-131 -112l131 -112l350 28h752v-116h-902l-100 -12l245 -245h-170l-366 366l-107 91z" />
    <glyph glyph-name="arrowdblup" unicode="&#x21d1;" 
d="M691 1393l366 -366v-170l-244 245l-13 -100v-1002h-116v852l28 350l-112 131l-112 -131l28 -350v-852h-116v1002l-12 100l-245 -245v170l366 366l91 107z" />
    <glyph glyph-name="arrowdblright" unicode="&#x21d2;" 
d="M1400 600l-107 -91l-366 -366h-170l245 245l-100 12h-902v116h752l350 -28l131 112l-131 112l-350 -28h-752v116h902l100 13l-245 244h170l366 -366z" />
    <glyph glyph-name="arrowdbldown" unicode="&#x21d3;" 
d="M600 0l-91 107l-366 366v170l245 -245l12 100v1002h116v-852l-28 -350l112 -131l112 131l-28 350v852h116v-1002l13 -100l244 245v-170l-366 -366z" />
    <glyph glyph-name="arrowdblleftright" unicode="&#x21d4;" 
d="M1400 600l-107 -91l-366 -366h-170l245 245l-100 12h-504l-100 -12l245 -245h-170l-366 366l-107 91l107 91l366 366h170l-245 -244l100 -13h504l100 13l-245 244h170l366 -366zM548 516h204l350 -28l131 112l-131 112l-350 -28h-204l-350 28l-131 -112l131 -112z" />
    <glyph glyph-name="arrowdblupdown" unicode="&#x21d5;" 
d="M600 0l-91 107l-366 366v170l245 -245l12 100v504l-12 100l-245 -245v170l366 366l91 107l91 -107l366 -366v-170l-244 245l-13 -100v-504l13 -100l244 245v-170l-366 -366zM516 852v-204l-28 -350l112 -131l112 131l-28 350v204l28 350l-112 131l-112 -131z" />
    <glyph glyph-name="arrowdblnorthwest" unicode="&#x21d6;" 
d="M229 1100h518l120 -121h-346l62 -79l637 -638l-82 -82l-531 532l-228 267l-172 14l14 -172l267 -228l532 -531l-82 -82l-638 637l-79 63v-347l-121 120v518l-11 140z" />
    <glyph glyph-name="arrowdblnortheast" unicode="&#x21d7;" 
d="M1211 1111l-11 -140v-518l-121 -120v347l-79 -63l-638 -637l-82 82l532 531l267 228l14 172l-172 -14l-228 -267l-531 -532l-82 82l637 638l62 79h-346l120 121h518z" />
    <glyph glyph-name="arrowdblsoutheast" unicode="&#x21d8;" 
d="M1071 0h-518l-120 121h346l-62 79l-637 638l82 82l531 -532l228 -267l172 -14l-14 172l-267 228l-532 531l82 82l638 -637l79 -63v347l121 -120v-518l11 -140z" />
    <glyph glyph-name="arrowdblsouthwest" unicode="&#x21d9;" 
d="M89 -11l11 140v518l121 120v-347l79 63l638 637l82 -82l-532 -531l-267 -228l-14 -172l172 14l228 267l531 532l82 -82l-637 -638l-62 -79h346l-120 -121h-518z" />
    <glyph glyph-name="pageup" unicode="&#x21de;" 
d="M300 500h200v160h-200v140h200v253l12 104l-75 -57h-237l300 301l100 119l100 -120l300 -300h-235l-75 57l10 -104v-253h200v-140h-200v-160h200v-140h-200v-360h-200v360h-200v140z" />
    <glyph glyph-name="pagedown" unicode="&#x21df;" 
d="M300 1140h200v360h200v-360h200v-140h-200v-160h200v-140h-200v-253l-10 -104l75 57h235l-300 -300l-100 -120l-100 119l-300 301h237l75 -57l-12 104v253h-200v140h200v160h-200v140z" />
    <glyph glyph-name="leftwardsdashedarrow" unicode="&#x21e0;" 
d="M447 500l-104 12l57 -75v-237l-301 300l-119 100l120 100l300 300v-235l-57 -75l104 10h103v-200h-103zM700 700h250v-200h-250v200zM1100 700h250v-200h-250v200z" />
    <glyph glyph-name="upwardsdashedarrow" unicode="&#x21e1;" 
d="M500 1053l12 104l-75 -57h-237l300 301l100 119l100 -120l300 -300h-235l-75 57l10 -104v-103h-200v103zM700 800v-250h-200v250h200zM700 400v-250h-200v250h200z" />
    <glyph glyph-name="rightwardsdashedarrow" unicode="&#x21e2;" 
d="M750 500v200h103l104 -10l-57 75v235l300 -300l120 -100l-119 -100l-301 -300v237l57 75l-104 -12h-103zM600 500h-250v200h250v-200zM200 500h-250v200h250v-200z" />
    <glyph glyph-name="downwardsdashedarrow" unicode="&#x21e3;" 
d="M500 550h200v-103l-10 -104l75 57h235l-300 -300l-100 -120l-100 119l-300 301h237l75 -57l-12 104v103zM500 700v250h200v-250h-200zM500 1100v250h200v-250h-200z" />
    <glyph glyph-name="shift" unicode="&#x21e7;" 
d="M600 1430l91 -107l382 -366v-102h-155l-8 -100v-755h-620v755l-9 100h-154v102l382 366zM400 662v-562h400v562l21 275h112l-333 336l-333 -336h113z" />
    <glyph glyph-name="capslock" unicode="&#x21ea;" 
d="M600 1430l91 -107l382 -366v-102h-155l-8 -100v-355h-620v355l-9 100h-154v102l382 366zM400 662v-162h400v162l21 275h112l-333 336l-333 -336h113zM910 300v-100l11 -200h-642l11 200v100h620zM400 94h400v106h-400v-106z" />
    <glyph glyph-name="universal" unicode="&#x2200;" 
d="M997 1300h190l-539 -1320l-143 20l-38 160l-439 1140h177l130 -300h531zM546 400l54 -288l54 288l156 450h-420z" />
    <glyph glyph-name="complement" unicode="&#x2201;" 
d="M670 143q105 0 167.5 66t62.5 207l174 -16q0 -92 -23.5 -168.5t-72.5 -131.5t-125.5 -86t-182.5 -31q-100 0 -173.5 25t-126 70t-85.5 107t-52 136.5t-26 158t-7 170.5t7 170.5t26 158t52 136.5t85.5 107t126 70t173.5 25q101 0 176.5 -30.5t126 -86t76 -132t25.5 -168.5
l-174 -15q0 131 -60.5 201.5t-169.5 70.5q-68 0 -114.5 -20t-78 -55.5t-49 -84t-26 -105t-10.5 -118.5t-2 -124q0 -63 2 -124.5t10.5 -118t26 -105t49 -84t78.5 -55.5t114 -20z" />
    <glyph glyph-name="partialdiff" unicode="&#x2202;" 
d="M902 634q-16 24 -42 46t-58.5 38.5t-69 26.5t-72.5 10q-75 0 -125.5 -22.5t-81.5 -65t-44 -104t-13 -140.5q0 -26 3 -56.5t10.5 -61.5t21 -60t34 -51t49 -35.5t67.5 -13.5q62 0 108.5 22t80 59t56.5 86t37.5 103.5t23.5 110.5t15 108zM1095 780q0 -81 -11 -171.5
t-35.5 -179t-63 -169.5t-94.5 -142.5t-130.5 -98t-169.5 -36.5q-104 0 -178.5 36t-121.5 95.5t-69 136.5t-22 160q0 133 31.5 224t84.5 146.5t123.5 79.5t147.5 24q66 0 117.5 -13t90.5 -32.5t67.5 -42.5t48.5 -44q0 136 -18 254.5t-59.5 205.5t-108.5 137t-164 50
q-63 0 -129.5 -9.5t-131.5 -44.5l-54 83q28 18 63.5 34t74.5 28t80.5 19t80.5 7q271 0 410.5 -185t139.5 -552z" />
    <glyph glyph-name="existential" unicode="&#x2203;" 
d="M1015 160l-15 190v300h-752l-18 150h770v150l20 200h-845v150h1017l-22 -200v-900l17 -200h-1012v160h840z" />
    <glyph glyph-name="theredoesnotexist" unicode="&#x2204;" 
d="M320 -200h-155l71 200h-161v160h219l175 490h-321l-18 150h393l125 350h-573v150h627l72 200h146l-71 -200h243l-22 -200v-900l17 -200h-697zM915 160l-15 190v300h-280l-173 -490h468zM900 800v150l20 200h-124l-123 -350h227z" />
    <glyph glyph-name="emptyset" unicode="&#x2205;" 
d="M375 -200h-155l91 254q-72 40 -128 100.5t-94.5 137t-58.5 167t-20 191.5q0 144 39.5 266t114.5 211.5t185 139.5t251 50q42 0 81 -5t75 -14l73 202h146l-89 -253q72 -40 128.5 -100t95.5 -137t59.5 -168t20.5 -192q0 -144 -39.5 -266t-114.5 -211.5t-185 -139.5
t-251 -50q-42 0 -80 5t-74 13zM595 1169q-108 0 -184 -41t-125 -109.5t-71.5 -156.5t-22.5 -182q0 -71 10 -139.5t31 -129.5t54 -113t79 -89l339 946q-51 14 -110 14zM1008 623q0 70 -10 138.5t-31.5 130t-55 113t-80.5 88.5l-335 -949q25 -6 52 -9.5t57 -3.5
q106 0 182.5 42t125.5 111t72 157.5t23 181.5z" />
    <glyph glyph-name="gradient" unicode="&#x2207;" 
d="M49 1500h1172l-473 -1500h-227zM336 1340l-123 52l82 -92l311 -1058l30 -167l30 167l311 1058l85 92l-126 -52h-600z" />
    <glyph glyph-name="element" unicode="&#x2208;" 
d="M1220 0h-377q-171 0 -308.5 40.5t-234 122t-148.5 203.5t-52 284t52 284t148.5 203.5t234 122t308.5 40.5h377l-20 -154h-353q-198 0 -333 -66.5t-195 -208.5q-28 -66 -35 -146h916v-150h-916q7 -81 35 -147q60 -142 195 -208.5t333 -66.5h353z" />
    <glyph glyph-name="notelement" unicode="&#x2209;" 
d="M1220 0h-377q-132 0 -244 24l-79 -224h-155l95 266q-90 38 -160 96q-96 82 -148 204t-52 284t52 284t148.5 203.5t234 122t308.5 40.5h59l72 200h146l-71 -200h171l-20 -154h-205l-149 -421h354v-150h-407l-142 -403q89 -19 196 -19h353zM514 1079q-135 -66 -195 -208
q-28 -66 -35 -146h412l151 421q-198 0 -333 -67zM319 428q60 -142 195 -209h1l127 356h-358q7 -81 35 -147z" />
    <glyph glyph-name="suchthat" unicode="&#x220b;" 
d="M100 153h353q198 0 333 66.5t195 208.5q28 66 35 147h-916v150h916q-7 80 -35 146q-60 142 -195 208.5t-333 66.5h-353l-20 154h377q171 0 308.5 -40.5t234 -122t148.5 -203.5t52 -284t-52 -284t-148.5 -203.5t-234 -122t-308.5 -40.5h-377z" />
    <glyph glyph-name="doesnotcontainasmember" unicode="&#x220c;" 
d="M100 153h191l151 422h-342v150h396l145 403q-86 18 -188 18h-353l-20 154h377q125 0 237 -23l80 223h146l-93 -262q177 -70 275 -217t98 -371q0 -162 -52 -284t-148.5 -203.5t-234 -122t-308.5 -40.5h-67l-70 -200h-155l71 200h-156zM453 153q198 0 333 66.5t195 208.5
q28 66 35 147h-423l-149 -422h9zM1016 725q-7 80 -35 146q-62 146 -208 214l-127 -360h370z" />
    <glyph glyph-name="minus" unicode="&#x2212;" 
d="M219 700h900l-39 -224h-900z" />
    <glyph glyph-name="minusplus" unicode="&#x2213;" 
d="M145 612h360l73 334h220l-73 -334h360l-36 -160h-360l-70 -320h-220l70 320h-360zM279 1200h900l-39 -202h-900z" />
    <glyph glyph-name="ringoperator" unicode="&#x2218;" 
d="M647 917q61 0 111.5 -21t84 -58t48.5 -86t5 -105t-42 -105t-78.5 -85.5t-104.5 -58t-119 -21.5q-62 0 -112 21.5t-83.5 58t-48 85.5t-4.5 105t41.5 105t78 86t104 58t119.5 21zM582 545q23 0 45 8t39.5 22t29.5 32.5t16 39.5q3 21 -2.5 39.5t-18.5 32.5t-32 22t-42 8
t-45 -8t-39.5 -22t-29.5 -32.5t-15 -39.5q-4 -21 1.5 -39.5t18.5 -32.5t32 -22t42 -8z" />
    <glyph glyph-name="radical" unicode="&#x221a;" 
d="M1220 1300l-20 -150h-170l-200 20l-314 -1190l-238 20l-133 550l-77 200l185 20l111 -470l36 -240l36 240l262 1000h522z" />
    <glyph glyph-name="proportional" unicode="&#x221d;" 
d="M477 330q57 0 103 33t81 82t59.5 104.5t39.5 100.5q-23 49 -51.5 103.5t-65.5 100.5t-83 76t-103 30q-47 0 -82.5 -27.5t-59 -71.5t-35 -99.5t-11.5 -111.5t15 -113t42.5 -103t66 -75t84.5 -29zM1234 189q-68 0 -121.5 23t-101.5 68t-94 113t-97 158l4 -95
q-26 -51 -58.5 -100t-75.5 -87.5t-98.5 -62t-125.5 -23.5q-97 0 -166.5 42t-113.5 109t-65 150t-21 166q0 55 8 111t25.5 108t45.5 97t68.5 78.5t94.5 53t124 19.5q67 0 121 -23.5t102 -69t94 -114t97 -158.5l-4 95q26 51 58.5 99.5t75.5 86.5t98 61t126 23l-11 -147
q-57 0 -103 -32.5t-81 -81t-59.5 -103.5t-39.5 -100q22 -49 51 -103t66 -99.5t83 -75t103 -29.5z" />
    <glyph glyph-name="infinity" unicode="&#x221e;" 
d="M337 387q57 0 95 30t63.5 75t42.5 97.5t32 97.5q-23 49 -43.5 95.5t-48.5 83t-66 59t-95 22.5q-47 0 -73 -21t-38 -57.5t-14.5 -86t-2.5 -105.5t6 -108.5t22 -93t45 -64.5t75 -24zM634 578v-115q-18 -104 -92.5 -163.5t-215.5 -59.5q-97 0 -157 37.5t-93 98.5
t-44.5 139.5t-11.5 161.5q0 55 3.5 109t14 103t31 90.5t54.5 72t84 48t119 17.5q64 0 111.5 -24.5t85 -68t69.5 -102t65 -125.5l9 -19v116q18 102 92.5 162.5t215.5 60.5q97 0 157 -37.5t93 -98.5t44.5 -140t11.5 -161q0 -55 -3.5 -109t-14 -103t-31 -90.5t-54.5 -72
t-84 -48t-119 -17.5q-67 0 -115 25.5t-86.5 71t-70.5 107.5t-68 134zM963 970q-57 0 -95 -30t-63.5 -75t-42.5 -97.5t-32 -97.5q22 -49 43 -95.5t49 -83t66 -59t95 -22.5q47 0 73 21t38 57.5t14.5 86t2.5 105.5t-6 108.5t-22 93t-45 64.5t-75 24z" />
    <glyph glyph-name="sphericalangle" unicode="&#x2222;" 
d="M100 600l1015 587l122 -91l-272 -157q56 -93 84 -192.5t28 -202.5q0 -101 -27 -201.5t-84 -197.5l242 -140l-108 -86l-1000 564v117zM862 205q46 79 68 164t22 171q0 90 -23 175.5t-68 163.5l-593 -337z" />
    <glyph glyph-name="parallelto" unicode="&#x2225;" 
d="M455 1500v-1500h-155v1500h155zM855 1500v-1500h-155v1500h155z" />
    <glyph glyph-name="logicaland" unicode="&#x2227;" 
d="M780 1320l442 -1320h-164l-336 980l-65 240l-65 -240l-337 -980h-162l429 1300z" />
    <glyph glyph-name="logicalor" unicode="&#x2228;" 
d="M522 0l-429 1300l155 20l344 -1000l65 -240l65 240l336 980l171 20l-442 -1320h-265z" />
    <glyph glyph-name="intersection" unicode="&#x2229;" 
d="M650 1140q-88 0 -149.5 -24t-103 -65.5t-65 -97.5t-35.5 -119t-15 -130t-3 -131v-573h-179v538q0 114 8.5 215t31 185.5t62 151.5t100.5 113.5t146.5 71.5t201.5 25q115 0 201 -25t147 -71.5t100 -113.5t61.5 -151.5t31 -185.5t8.5 -215v-538h-179v573q0 64 -3 131
t-15 130t-35.5 119t-64.5 97.5t-102.5 65.5t-149.5 24z" />
    <glyph glyph-name="union" unicode="&#x222a;" 
d="M649 143q88 0 149.5 24t103 65.5t65 97.5t35.5 119t15 130t3 131v570l179 20v-555q0 -114 -8.5 -215t-31 -185.5t-62 -151.5t-100.5 -113.5t-146.5 -71.5t-201.5 -25t-201.5 25t-146.5 71.5t-100 113.5t-61.5 151.5t-31 185.5t-8.5 215v535l179 20v-590q0 -64 3 -131
t15 -130t35.5 -119t64.5 -97.5t102.5 -65.5t149.5 -24z" />
    <glyph glyph-name="integral" unicode="&#x222b;" 
d="M600 1117q0 85 15.5 158t53.5 127t101.5 84.5t159.5 30.5q46 0 78.5 -3.5t58 -10t46 -15t41.5 -18.5l-63 -123q-19 11 -51.5 19t-57.5 8h-16q-4 0 -14 -0.5t-23 -3.5t-28 -9t-30 -16q-44 -31 -57.5 -87.5t-13.5 -140.5v-1138q0 -85 -15.5 -158t-53.5 -127t-101.5 -84.5
t-159.5 -30.5q-46 0 -110.5 10t-133.5 37l83 123q19 -11 51.5 -19t57.5 -8q4 0 15 1.5t29 3.5q37 4 66 24q46 31 59 87t13 141v1138z" />
    <glyph glyph-name="contourintegral" unicode="&#x222e;" 
d="M500 1117q0 85 15.5 158t53.5 127t101.5 84.5t159.5 30.5q46 0 78.5 -3.5t58 -10t46 -15t41.5 -18.5l-63 -123q-19 11 -51.5 19t-57.5 8q-24 0 -52.5 -4.5t-58.5 -24.5q-44 -31 -57.5 -87.5t-13.5 -140.5v-243q59 -15 109 -46t86.5 -74.5t57 -96.5t20.5 -111
q0 -59 -20.5 -111.5t-57 -96t-86.5 -75t-109 -46.5v-238q0 -85 -15.5 -158t-53.5 -127t-101.5 -84.5t-159.5 -30.5q-45 0 -81 3.5t-65 10t-53 15t-45 18.5l83 123q19 -11 51.5 -19t57.5 -8q4 0 15 1.5t29 3.5q37 4 66 24q46 31 59 87t13 141v238q-60 15 -110 46.5t-87 74.5
t-57.5 96t-20.5 112t20.5 112t57.5 96.5t87 74.5t110 46v242zM357 546q0 -38 10.5 -72t29 -62.5t45 -51t58.5 -36.5v444q-64 -29 -103.5 -88t-39.5 -134zM841 546q0 37 -10.5 70.5t-29 62.5t-44.5 51.5t-57 36.5v-442q63 29 102 87.5t39 133.5z" />
    <glyph glyph-name="therefore" unicode="&#x2234;" 
d="M-397 183q7 41 29 77t53.5 63t70 42.5t79.5 15.5t74 -15.5t55.5 -42.5t31.5 -63t2 -77q-8 -41 -29.5 -77.5t-53 -63.5t-70 -43t-79.5 -16t-74.5 16t-55.5 43t-31.5 63.5t-1.5 77.5zM403 183q7 41 29 77t53.5 63t70 42.5t79.5 15.5t74 -15.5t55.5 -42.5t31.5 -63t2 -77
q-8 -41 -29.5 -77.5t-53 -63.5t-70 -43t-79.5 -16t-74.5 16t-55.5 43t-31.5 63.5t-1.5 77.5zM3 1073q7 41 29 77t53.5 63t70 42.5t79.5 15.5t74 -15.5t55.5 -42.5t31.5 -63t2 -77q-8 -41 -29.5 -77.5t-53 -63.5t-70 -43t-79.5 -16t-74.5 16t-55.5 43t-31.5 63.5t-1.5 77.5z
" />
    <glyph glyph-name="because" unicode="&#x2235;" 
d="M-397 1073q7 41 29 77t53.5 63t70 42.5t79.5 15.5t74 -15.5t55.5 -42.5t31.5 -63t2 -77q-8 -41 -29.5 -77.5t-53 -63.5t-70 -43t-79.5 -16t-74.5 16t-55.5 43t-31.5 63.5t-1.5 77.5zM403 1073q7 41 29 77t53.5 63t70 42.5t79.5 15.5t74 -15.5t55.5 -42.5t31.5 -63t2 -77
q-8 -41 -29.5 -77.5t-53 -63.5t-70 -43t-79.5 -16t-74.5 16t-55.5 43t-31.5 63.5t-1.5 77.5zM3 183q7 41 29 77t53.5 63t70 42.5t79.5 15.5t74 -15.5t55.5 -42.5t31.5 -63t2 -77q-8 -41 -29.5 -77.5t-53 -63.5t-70 -43t-79.5 -16t-74.5 16t-55.5 43t-31.5 63.5t-1.5 77.5z
" />
    <glyph glyph-name="similar" unicode="&#x223c;" 
d="M1059 500q-63 -60 -126 -90t-135 -30q-47 0 -87.5 23.5t-77.5 52t-73.5 52t-75.5 23.5q-30 0 -61 -9t-62 -23.5t-60 -33.5t-55 -39l31 176q31 29 63 54.5t64.5 44t66.5 29.5t70 11q31 0 58 -11.5t51.5 -28t47.5 -36.5t47.5 -36.5t51.5 -28t58 -11.5q60 0 121 22t113 61z
" />
    <glyph glyph-name="asymptoticallyequal" unicode="&#x2243;" 
d="M216 400h800l-33 -184h-800zM1059 600q-63 -60 -126 -90t-135 -30q-47 0 -87.5 23.5t-77.5 52t-73.5 52t-75.5 23.5q-30 0 -61 -9t-62 -23.5t-60 -33.5t-55 -39l31 176q31 29 63 54.5t64.5 44t66.5 29.5t70 11q31 0 58 -11.5t51.5 -28t47.5 -36.5t47.5 -36.5t51.5 -28
t58 -11.5q60 0 121 22t113 61z" />
    <glyph glyph-name="congruent" unicode="&#x2245;" 
d="M189 300h800l-32 -184h-800zM242 600h800l-32 -184h-800zM1079 800q-63 -60 -126 -90t-135 -30q-47 0 -87.5 23.5t-77.5 52t-73.5 52t-75.5 23.5q-30 0 -61 -9t-62 -23.5t-60 -33.5t-55 -39l31 176q31 29 63 54.5t64.5 44t66.5 29.5t70 11q31 0 58 -11.5t51.5 -28
t47.5 -36.5t47.5 -36.5t51.5 -28t58 -11.5q60 0 121 22t113 61z" />
    <glyph glyph-name="approxequal" unicode="&#x2248;" 
d="M1073 600q-63 -60 -126 -90t-135 -30q-47 0 -87.5 23.5t-77.5 52t-73.5 52t-75.5 23.5q-30 0 -61 -9t-62 -23.5t-60 -33.5t-55 -39l31 176q31 29 63 54.5t64.5 44t66.5 29.5t70 11q31 0 58 -11.5t51.5 -28t47.5 -36.5t47.5 -36.5t51.5 -28t58 -11.5q60 0 121 22t113 61z
M1013 280q-63 -60 -126 -90t-135 -30q-47 0 -87.5 23.5t-77.5 52t-73.5 52t-75.5 23.5q-30 0 -61 -9t-62 -23.5t-60 -33.5t-55 -39l31 176q31 29 63 54.5t64.5 44t66.5 29.5t70 11q31 0 58 -11.5t51.5 -28t47.5 -36.5t47.5 -36.5t51.5 -28t58 -11.5q60 0 121 22t113 61z" />
    <glyph glyph-name="estimate" unicode="&#x2259;" 
d="M189 300h800l-32 -184h-800zM242 600h800l-32 -184h-800zM1015 727h-180l-144 200l-216 -199h-179l357 379l127 12z" />
    <glyph glyph-name="notequal" unicode="&#x2260;" 
d="M234 400h278l98 181h-345l39 219h423l108 200h206l-106 -200h169l-39 -219h-246l-96 -181h311l-39 -219h-388l-95 -181h-215l97 181h-199z" />
    <glyph glyph-name="equivalence" unicode="&#x2261;" 
d="M213 300h800l-33 -184h-800zM266 600h800l-33 -184h-800zM319 900h800l-33 -184h-800z" />
    <glyph glyph-name="lessequal" unicode="&#x2264;" 
d="M97 200h1007l-60 -200h-982zM1236 1296l-47 -215l-730 -284l605 -281l-47 -215l-917 409l40 180z" />
    <glyph glyph-name="greaterequal" unicode="&#x2265;" 
d="M135 200h1007l-60 -200h-982zM1237 888l-40 -180l-1097 -409l47 215l729 281l-604 284l47 215z" />
    <glyph glyph-name="propersubset" unicode="&#x2282;" 
d="M1220 0h-377q-171 0 -308.5 40.5t-234 122t-148.5 203.5t-52 284t52 284t148.5 203.5t234 122t308.5 40.5h377l-20 -154h-353q-198 0 -333 -66.5t-195 -208.5q-27 -65 -27 -222t27 -221q60 -142 195 -208.5t333 -66.5h353z" />
    <glyph glyph-name="propersuperset" unicode="&#x2283;" 
d="M100 153h353q198 0 333 66.5t195 208.5q27 64 27 221t-27 222q-60 142 -195 208.5t-333 66.5h-353l-20 154h377q171 0 308.5 -40.5t234 -122t148.5 -203.5t52 -284t-52 -284t-148.5 -203.5t-234 -122t-308.5 -40.5h-377z" />
    <glyph glyph-name="reflexsubset" unicode="&#x2286;" 
d="M200 155h1000l20 -154h-1020v154zM1220 300h-377q-172 0 -309 40.5t-234 122.5q-95 80 -148 203q-52 120 -52 234t52 234q53 123 148 203q97 82 234 122.5t309 40.5h377l-20 -154h-353q-198 0 -333 -66.5t-195 -208.5q-27 -65 -27 -172t27 -171q60 -142 195 -208.5
t333 -66.5h353z" />
    <glyph glyph-name="reflexsuperset" unicode="&#x2287;" 
d="M1100 1h-1020l20 154h1000v-154zM100 453h353q198 0 333 66.5t195 208.5q27 64 27 171t-27 172q-60 142 -195 208.5t-333 66.5h-353l-20 154h377q172 0 308.5 -40.5t233.5 -122.5q96 -79 149 -203q52 -120 52 -234t-52 -234q-53 -123 -149 -204q-97 -81 -233.5 -121.5
t-308.5 -40.5h-377z" />
    <glyph glyph-name="circleplus" unicode="&#x2295;" 
d="M-17 750q0 159 44.5 298.5t130 243.5t209.5 164.5t283 60.5t283 -60.5t209.5 -164.5t130 -243.5t44.5 -298.5t-44.5 -298.5t-130 -243.5t-209.5 -164.5t-283 -60.5t-283 60.5t-209.5 164.5t-130 243.5t-44.5 298.5zM136 675q13 -105 43.5 -198t83.5 -164.5t130 -117.5
t182 -59v539h-439zM575 1362q-105 -13 -182 -59t-130 -117t-83.5 -163.5t-43.5 -197.5h439v537zM725 136q105 13 182 59t129.5 117.5t82.5 164.5t43 198h-437v-539zM1162 825q-13 105 -43 197.5t-82.5 163.5t-129.5 117t-182 59v-537h437z" />
    <glyph glyph-name="circleminus" unicode="&#x2296;" 
d="M-17 750q0 159 44.5 298.5t130 243.5t209.5 164.5t283 60.5t283 -60.5t209.5 -164.5t130 -243.5t44.5 -298.5t-44.5 -298.5t-130 -243.5t-209.5 -164.5t-283 -60.5t-283 60.5t-209.5 164.5t-130 243.5t-44.5 298.5zM650 132q118 0 207.5 42t152.5 115t100.5 172t51.5 214
h-1026q14 -115 51.5 -214t101 -172t153 -115t208.5 -42zM650 1367q-119 0 -208.5 -42t-153 -115t-101 -172t-51.5 -213h1026q-14 114 -51.5 213t-100.5 172t-152.5 115t-207.5 42z" />
    <glyph glyph-name="circlemultiply" unicode="&#x2297;" 
d="M-17 750q0 159 44.5 298.5t130 243.5t209.5 164.5t283 60.5t283 -60.5t209.5 -164.5t130 -243.5t44.5 -298.5t-44.5 -298.5t-130 -243.5t-209.5 -164.5t-283 -60.5t-283 60.5t-209.5 164.5t-130 243.5t-44.5 298.5zM132 750q0 -54 7.5 -110t22.5 -110t37.5 -103t53.5 -88
l291 411l-291 410q-31 -39 -53.5 -88t-37.5 -102.5t-22.5 -109.5t-7.5 -110zM650 122q93 0 164.5 24.5t135.5 86.5l-300 411l-301 -411q32 -31 65.5 -52t70.5 -34t77.5 -19t87.5 -6zM650 1377q-93 0 -164.5 -25t-135.5 -86l300 -410l300 410q-64 62 -135.5 86.5t-164.5 24.5
zM1167 750q0 54 -7.5 110t-22.5 109.5t-37.5 102.5t-53.5 88l-290 -410l290 -410q31 39 53.5 88t37.5 102.5t22.5 109.5t7.5 110z" />
    <glyph glyph-name="circledivide" unicode="&#x2298;" 
d="M-17 750q0 159 44.5 298.5t130 243.5t209.5 164.5t283 60.5t283 -60.5t209.5 -164.5t130 -243.5t44.5 -298.5t-44.5 -298.5t-130 -243.5t-209.5 -164.5t-283 -60.5t-283 60.5t-209.5 164.5t-130 243.5t-44.5 298.5zM152 750q0 -54 4 -110t15.5 -110t31 -103t50.5 -88
l677 937q-28 23 -55 40t-59.5 28.5t-72 17t-93.5 5.5q-128 0 -221.5 -48.5t-155 -132t-91.5 -196t-30 -240.5zM1147 750q0 54 -4.5 110t-15.5 109.5t-30.5 102.5t-50.5 88l-677 -937q28 -23 55 -40.5t59.5 -28.5t72.5 -16.5t94 -5.5q128 0 221.5 48.5t155 132.5t91 196.5
t29.5 240.5z" />
    <glyph glyph-name="perpendicular" unicode="&#x22a5;" 
d="M700 1300v-1150h400l-20 -150h-985l20 150h385v1150h200z" />
    <glyph glyph-name="staroperator" unicode="&#x22c6;" 
d="M795 652l94 -292l-200 138l-59 58l-59 -58l-202 -138l93 292l-224 177h287l105 265l103 -265h287z" />
    <glyph glyph-name="verticalellipsis" unicode="&#x22ee;" 
d="M3 183q7 41 29 77t53.5 63t70 42.5t79.5 15.5t74 -15.5t55.5 -42.5t31.5 -63t2 -77q-8 -41 -29.5 -77.5t-53 -63.5t-70 -43t-79.5 -16t-74.5 16t-55.5 43t-31.5 63.5t-1.5 77.5zM3 783q7 41 29 77t53.5 63t70 42.5t79.5 15.5t74 -15.5t55.5 -42.5t31.5 -63t2 -77
q-8 -41 -29.5 -77.5t-53 -63.5t-70 -43t-79.5 -16t-74.5 16t-55.5 43t-31.5 63.5t-1.5 77.5zM3 1383q7 41 29 77t53.5 63t70 42.5t79.5 15.5t74 -15.5t55.5 -42.5t31.5 -63t2 -77q-8 -41 -29.5 -77.5t-53 -63.5t-70 -43t-79.5 -16t-74.5 16t-55.5 43t-31.5 63.5t-1.5 77.5z
" />
    <glyph glyph-name="house" unicode="&#x2302;" 
d="M1250 700l-50 100v-800h-1100v800l-49 -100h-51v185l100 50v265h200v-159l329 159l21 16l21 -16l629 -315v-185h-50zM1100 765l-450 235l-450 -185v-715h100v500h300v-500h500v665zM700 600h300v-300h-300v300zM500 100v400h-100v-400h100zM800 400h100v100h-100v-100z
" />
    <glyph glyph-name="leftceiling" unicode="&#x2308;" 
d="M500 0h-200v1500h600v-150h-400v-1350z" />
    <glyph glyph-name="rightceiling" unicode="&#x2309;" 
d="M800 1350h-400v150h600v-1500h-200v1350z" />
    <glyph glyph-name="leftfloor" unicode="&#x230a;" 
d="M500 150h400v-150h-600v1500h200v-1350z" />
    <glyph glyph-name="rightfloor" unicode="&#x230b;" 
d="M800 1500h200v-1500h-600v150h400v1350z" />
    <glyph glyph-name="topleftcorner" unicode="&#x231c;" 
d="M400 750h-200v750h750v-150h-550v-600z" />
    <glyph glyph-name="toprightcorner" unicode="&#x231d;" 
d="M900 1350h-550v150h750v-750h-200v600z" />
    <glyph glyph-name="bottomleftcorner" unicode="&#x231e;" 
d="M400 150h550v-150h-750v750h200v-600z" />
    <glyph glyph-name="bottomrightcorner" unicode="&#x231f;" 
d="M900 750h200v-750h-750v150h550v600z" />
    <glyph glyph-name="blackrightpointingtriangle" unicode="&#x25b6;" 
d="M251 1135l749 -435l-749 -434l25 434z" />
    <glyph glyph-name="whiterightpointingtriangle" unicode="&#x25b7;" 
d="M251 266l25 434l-25 435l749 -435zM340 991l16 -291l-16 -290l501 290z" />
    <glyph glyph-name="blackrightpointingsmall" unicode="&#x25b8;" 
d="M399 991l501 -291l-501 -290l17 290z" />
    <glyph glyph-name="whiterightpointingsmall" unicode="&#x25b9;" 
d="M399 410l17 290l-17 291l501 -291zM487 847l9 -142v-10l-9 -141l253 146z" />
    <glyph glyph-name="blackdownpointingtriangle" unicode="&#x25bc;" 
d="M100 1100h1100l-550 -900z" />
    <glyph glyph-name="whitedownpointingtriangle" unicode="&#x25bd;" 
d="M650 410l330 570h-660zM100 1100h1100l-550 -900z" />
    <glyph glyph-name="blackdownpointingsmalltriangle" unicode="&#x25be;" 
d="M265 1100h770l-385 -630z" />
    <glyph glyph-name="whitedownpointingsmalltriangle" unicode="&#x25bf;" 
d="M650 617l231 399h-462zM265 1100h770l-385 -630z" />
    <glyph glyph-name="fisheye" unicode="&#x25c9;" 
d="M600 851q31 0 58 -12t47.5 -32.5t32.5 -47.5t12 -58t-12 -58.5t-32.5 -47.5t-47.5 -32t-58 -12t-58.5 12t-47.5 32t-32 47.5t-12 58.5t12 58t32 47.5t47.5 32.5t58.5 12zM184 701q0 86 32.5 162t89 132.5t132.5 89t162 32.5t162 -32.5t132.5 -89t89 -132.5t32.5 -162
t-32.5 -162t-89 -132.5t-132.5 -89t-162 -32.5t-162 32.5t-132.5 89t-89 132.5t-32.5 162zM300 701q0 -62 23.5 -117t64 -95.5t95.5 -64t117 -23.5t117 23.5t95.5 64t64 95.5t23.5 117t-23.5 117t-64 95.5t-95.5 64t-117 23.5t-117 -23.5t-95.5 -64t-64 -95.5t-23.5 -117z
" />
    <glyph glyph-name="bullseye" unicode="&#x25ce;" 
d="M600 821q-25 0 -46.5 -9.5t-38 -26t-26 -38t-9.5 -46.5t9.5 -46.5t26 -38t38 -26t46.5 -9.5t46.5 9.5t38 26t26 38t9.5 46.5t-9.5 46.5t-26 38t-38 26t-46.5 9.5zM184 701q0 86 32.5 162t89 132.5t132.5 89t162 32.5t162 -32.5t132.5 -89t89 -132.5t32.5 -162t-32.5 -162
t-89 -132.5t-132.5 -89t-162 -32.5t-162 32.5t-132.5 89t-89 132.5t-32.5 162zM300 701q0 -62 23.5 -117t64 -95.5t95.5 -64t117 -23.5t117 23.5t95.5 64t64 95.5t23.5 117t-23.5 117t-64 95.5t-95.5 64t-117 23.5t-117 -23.5t-95.5 -64t-64 -95.5t-23.5 -117zM400 701
q0 41 16 77.5t43 63.5t63.5 43t77.5 16t77.5 -16t63.5 -43t43 -63.5t16 -77.5t-16 -77.5t-43 -63.5t-63.5 -43t-77.5 -16t-77.5 16t-63.5 43t-43 63.5t-16 77.5z" />
    <glyph glyph-name="blackcircle" unicode="&#x25cf;" 
d="M184 701q0 86 32.5 162t89 132.5t132.5 89t162 32.5t162 -32.5t132.5 -89t89 -132.5t32.5 -162t-32.5 -162t-89 -132.5t-132.5 -89t-162 -32.5t-162 32.5t-132.5 89t-89 132.5t-32.5 162z" />
    <glyph glyph-name="circlewithlefthalfblack" unicode="&#x25d0;" 
d="M184 701q0 86 32.5 162t89 132.5t132.5 89t162 32.5t162 -32.5t132.5 -89t89 -132.5t32.5 -162t-32.5 -162t-89 -132.5t-132.5 -89t-162 -32.5t-162 32.5t-132.5 89t-89 132.5t-32.5 162zM900 701q0 62 -23.5 117t-64 95.5t-95.5 64t-117 23.5v-600q62 0 117 23.5
t95.5 64t64 95.5t23.5 117z" />
    <glyph glyph-name="circlewithrighthalfblack" unicode="&#x25d1;" 
d="M184 701q0 86 32.5 162t89 132.5t132.5 89t162 32.5t162 -32.5t132.5 -89t89 -132.5t32.5 -162t-32.5 -162t-89 -132.5t-132.5 -89t-162 -32.5t-162 32.5t-132.5 89t-89 132.5t-32.5 162zM300 701q0 -62 23.5 -117t64 -95.5t95.5 -64t117 -23.5v600q-62 0 -117 -23.5
t-95.5 -64t-64 -95.5t-23.5 -117z" />
    <glyph glyph-name="circlewithlowerhalfblack" unicode="&#x25d2;" 
d="M600 1117q86 0 162 -32.5t132.5 -89t89 -132.5t32.5 -162t-32.5 -162t-89 -132.5t-132.5 -89t-162 -32.5t-162 32.5t-132.5 89t-89 132.5t-32.5 162t32.5 162t89 132.5t132.5 89t162 32.5zM600 1001q-62 0 -117 -23.5t-95.5 -64t-64 -95.5t-23.5 -117h600q0 62 -23.5 117
t-64 95.5t-95.5 64t-117 23.5z" />
    <glyph glyph-name="circlewithupperhalfblack" unicode="&#x25d3;" 
d="M600 285q-86 0 -162 32.5t-132.5 89t-89 132.5t-32.5 162t32.5 162t89 132.5t132.5 89t162 32.5t162 -32.5t132.5 -89t89 -132.5t32.5 -162t-32.5 -162t-89 -132.5t-132.5 -89t-162 -32.5zM600 401q62 0 117 23.5t95.5 64t64 95.5t23.5 117h-600q0 -62 23.5 -117
t64 -95.5t95.5 -64t117 -23.5z" />
    <glyph glyph-name="day" unicode="&#x2600;" horiz-adv-x="2600" 
d="M1829 456q-5 -28 -12 -55t-17 -54l128 -102l-18 -39l-160 38q-46 -72 -111 -130l90 -189l-31 -21l-151 143q-24 -14 -49.5 -26.5t-52.5 -21.5l22 -246l-31 -7l-95 227q-22 -3 -44 -5t-45 -2h-11.5t-11.5 1l-59 -155l-43 6l-14 164q-83 23 -157 65l-151 -143l-30 21
l89 189q-21 19 -41 39.5t-37 43.5l-226 -97l-17 27l187 160q-13 26 -23 52t-18 54l-165 7l-7 42l152 65q0 11 -0.5 21.5t-0.5 22.5q0 67 13 125l-182 100l11 35l206 -27q23 53 56 100l-162 185l21 25l210 -128q20 20 42 37.5t45 33.5l-44 160l38 19l108 -124q76 31 165 40
l38 205h38l38 -205q29 -3 57 -8.5t55 -13.5l125 212l30 -12l-56 -240q50 -26 94 -61l139 91l30 -30l-86 -141q28 -33 51 -69t40 -76l206 27l11 -35l-182 -100q5 -27 8.5 -55t4.5 -57l239 -55v-32z" />
    <glyph glyph-name="cloud" unicode="&#x2601;" horiz-adv-x="2600" 
d="M1102 1101q136 0 232.5 -67.5t140.5 -196.5q24 9 51 13.5t54 4.5q50 0 98 -17.5t85.5 -48.5t60.5 -74.5t23 -95.5q0 -21 -3 -43q55 -24 98 -63q18 -17 36 -38t31.5 -48t22 -59t8.5 -70q0 -56 -16.5 -102.5t-44.5 -82.5t-65.5 -59.5t-80.5 -33.5q-51 -15 -111.5 -17.5
t-131.5 -2.5h-749q-79 0 -158 23.5t-142 69t-102 114t-39 158.5q0 57 18 107t51.5 92t81 75.5t106.5 57.5q0 91 37.5 166t99.5 127.5t142 81.5t166 29zM727 557q-75 -29 -120.5 -80.5t-45.5 -111.5q0 -51 23.5 -90.5t62.5 -66.5t89.5 -41.5t104.5 -14.5h749q78 0 132.5 6
t89 22t50 44t15.5 73q0 34 -15 60.5t-41 49.5t-62 44.5t-78 44.5q10 14 16.5 36t6.5 48t-10 49.5t-27.5 41.5t-41 28.5t-51.5 10.5q-18 0 -35.5 -4.5t-32 -12t-26 -16t-18.5 -17.5l-134 107q-53 172 -226 172q-62 0 -114.5 -18t-90 -51.5t-58.5 -81.5t-21 -108l31 -123h-122
z" />
    <glyph glyph-name="umbrella" unicode="&#x2602;" 
d="M785 90q31 0 52.5 21.5t21.5 52.5l108 -28q0 -29 -14 -56.5t-38.5 -49t-58 -34.5t-71.5 -13q-41 0 -75 13.5t-58.5 37.5t-38 57t-13.5 73v636q-151 0 -247 -5.5t-153 -12.5q-66 -8 -100 -18q0 59 23.5 114t63.5 103.5t94 89t115 69t126 44.5t128 16q62 0 127.5 -16
t126.5 -44.5t115 -69t94 -89t63.5 -103.5t23.5 -114q-34 10 -100 18q-57 7 -153 12.5t-247 5.5v-626q0 -23 7.5 -39t19.5 -26t27 -14.5t31 -4.5z" />
    <glyph glyph-name="snowman" unicode="&#x2603;" 
d="M600 749q0 -21 15 -36t36 -15t36 15t15 36t-15 36t-36 15t-36 -15t-15 -36zM600 349q0 -21 15 -36t36 -15t36 15t15 36t-15 36t-36 15t-36 -15t-15 -36zM400 1250q0 -21 14.5 -35.5t35.5 -14.5t35.5 14.5t14.5 35.5t-14.5 35.5t-35.5 14.5t-35.5 -14.5t-14.5 -35.5z
M700 1260q0 -3 7.5 -9.5t18.5 -13t24 -11.5t24 -5t18.5 6t7.5 23q0 21 -14.5 35.5t-35.5 14.5t-35.5 -9.5t-14.5 -30.5zM1032 783q20 -31 36 -85t27 -114.5t16.5 -118.5t5.5 -97q0 -107 -40.5 -180.5t-111 -119t-164.5 -65.5t-201 -20t-201 20t-164.5 65.5t-111 119
t-40.5 180.5q0 65 15.5 139t44 147t68.5 138.5t89 113.5q54 52 113 76q-26 21 -47 40.5t-35.5 42t-22.5 49.5t-8 63q0 62 23.5 123t64 109t95.5 78t117 30t117 -30t95.5 -78t64 -109t23.5 -123q0 -36 -8 -63t-22.5 -49.5t-35.5 -42t-47 -40.5q20 -8 45 -20.5t52 -30.5
t54.5 -41t51.5 -51l-17 123l142 245l122 -70zM600 549q0 -21 15 -36t36 -15t36 15t15 36t-15 36t-36 15t-36 -15t-15 -36zM577 1208q-7 -11 -7 -25q0 -13 6.5 -24.5t18.5 -18.5q7 -5 30.5 -15t52 -20.5t56 -18.5t44.5 -8q12 0 15 5q1 1 1 4q0 12 -20 33.5t-46 43.5t-50 40
t-33 23q-11 7 -25 7q-13 0 -24.5 -6.5t-18.5 -19.5z" />
    <glyph glyph-name="blackstar" unicode="&#x2605;" 
d="M927 487l157 -487l-334 230l-98 96l-98 -96l-338 -230l156 487l-373 294h477l176 443l172 -443h477z" />
    <glyph glyph-name="phone" unicode="&#x260e;" 
d="M730 629q23 34 53.5 77.5t58.5 83t47 70t19 39.5q0 12 -23 28t-50.5 32.5t-50.5 33t-23 30.5q0 21 11.5 53.5t30.5 69.5t42 73.5t46.5 66.5t44 48.5t34.5 18.5q15 0 44 -20.5t58 -52.5t50.5 -70t21.5 -74q0 -55 -15.5 -129t-45 -157t-71.5 -171.5t-96 -172.5t-116 -160
t-125 -138t-123.5 -107.5t-110.5 -68.5q-13 -6 -28.5 -8.5t-32.5 -2.5q-33 0 -67.5 8t-64.5 20t-51 25.5t-26 24.5q-2 6 -2 12q0 17 11 45t28.5 60.5t40.5 66.5t46.5 63.5t46 51.5t40.5 30q4 2 8 2q14 0 36 -13t45.5 -28.5t44.5 -28.5t34 -13q5 0 7 1q8 3 26 33t42 72
t51.5 89.5t53.5 86.5z" />
    <glyph glyph-name="emptybox" unicode="&#x2610;" 
d="M1200 0h-1100v1100h1100v-1100zM265 165h770v770h-770v-770z" />
    <glyph glyph-name="boxwithacheck" unicode="&#x2611;" 
d="M680 400l10 200q30 85 69 165.5t82 153t88 135.5t87 114.5t78.5 89t62.5 59.5l131 -17q-45 -50 -97.5 -120.5t-105.5 -155.5t-103 -179.5t-91 -193.5t-68.5 -197.5t-35.5 -190.5l-222 17l-205 520l168 20zM265 165h770v389q25 99 66 200t99 196v-950h-1100v1100h703
q-15 -15 -32 -34.5t-33.5 -41t-32 -44.5t-25.5 -45h-415v-770z" />
    <glyph glyph-name="boxwithaX" unicode="&#x2612;" 
d="M1200 0h-1100v1100h1100v-1100zM265 165h770v770h-770v-770zM801 230l-131 170l-8 68l-157 -238h-179l222 328l-221 286l195 25l93 -136l13 -102l140 222l191 17l-204 -301l241 -339h-195z" />
    <glyph glyph-name="frowningface" unicode="&#x2639;" 
d="M83 550q0 117 44.5 220.5t121.5 180.5t180.5 121.5t220.5 44.5t220.5 -44.5t180.5 -121.5t121.5 -180.5t44.5 -220.5t-44.5 -220.5t-121.5 -180.5t-180.5 -121.5t-220.5 -44.5t-220.5 44.5t-180.5 121.5t-121.5 180.5t-44.5 220.5zM200 550q0 -93 35.5 -175t96.5 -143
t143 -96.5t175 -35.5t175 35.5t143 96.5t96.5 143t35.5 175t-35.5 175t-96.5 143t-143 96.5t-175 35.5t-175 -35.5t-143 -96.5t-96.5 -143t-35.5 -175zM650 500q56 0 110 -18t96 -50.5t68 -77.5t26 -99q-2 3 -19.5 25.5t-54 49t-92.5 48t-134 21.5t-134.5 -21.5t-92.5 -48
t-54 -49t-19 -25.5q0 54 26 99t68 77.5t96 50.5t110 18zM750 600q-21 0 -35.5 14t-14.5 35v101q0 21 14.5 35.5t35.5 14.5t35.5 -14.5t14.5 -35.5v-101q0 -21 -14.5 -35t-35.5 -14zM550 600q-21 0 -35.5 14t-14.5 35v101q0 21 14.5 35.5t35.5 14.5t35.5 -14.5t14.5 -35.5
v-101q0 -21 -14.5 -35t-35.5 -14z" />
    <glyph glyph-name="smilingface" unicode="&#x263a;" 
d="M83 550q0 117 44.5 220.5t121.5 180.5t180.5 121.5t220.5 44.5t220.5 -44.5t180.5 -121.5t121.5 -180.5t44.5 -220.5t-44.5 -220.5t-121.5 -180.5t-180.5 -121.5t-220.5 -44.5t-220.5 44.5t-180.5 121.5t-121.5 180.5t-44.5 220.5zM200 550q0 -93 35.5 -175t96.5 -143
t143 -96.5t175 -35.5t175 35.5t143 96.5t96.5 143t35.5 175t-35.5 175t-96.5 143t-143 96.5t-175 35.5t-175 -35.5t-143 -96.5t-96.5 -143t-35.5 -175zM650 400q78 0 134 21.5t92.5 47.5t54 48.5t19.5 25.5q0 -54 -26 -98.5t-68 -77t-96 -50.5t-110 -18t-110 18t-96 50.5
t-68 77t-26 98.5q1 -3 19 -25.5t54 -48.5t92.5 -47.5t134.5 -21.5zM750 600q-21 0 -35.5 14t-14.5 35v101q0 21 14.5 35.5t35.5 14.5t35.5 -14.5t14.5 -35.5v-101q0 -21 -14.5 -35t-35.5 -14zM550 600q-21 0 -35.5 14t-14.5 35v101q0 21 14.5 35.5t35.5 14.5t35.5 -14.5
t14.5 -35.5v-101q0 -21 -14.5 -35t-35.5 -14z" />
    <glyph glyph-name="sun" unicode="&#x263c;" 
d="M1087 434q-8 -44 -23 -87l102 -83l-13 -31l-129 30q-20 -29 -42 -55t-48 -49l73 -152l-25 -17l-122 115q-20 -12 -40.5 -22t-41.5 -17l18 -199l-26 -5l-77 183q-17 -2 -35 -3.5t-35 -1.5h-10t-9 1l-48 -126l-35 5l-11 132q-33 10 -65 23t-61 30l-123 -115l-23 17l72 152
q-35 30 -63 66l-182 -78l-14 22l150 129q-10 21 -18 42t-14 44l-133 5l-6 34l123 53q0 8 -0.5 16.5t-0.5 17.5q0 55 10 102l-147 80l9 28l167 -22q8 22 19.5 42t24.5 39l-130 148l17 22l169 -104q16 16 33.5 30t36.5 27l-35 129l31 16l86 -101q63 25 133 33l31 165h30
l31 -165q23 -3 45.5 -7t45.5 -11l100 171l24 -10l-45 -194q20 -10 39 -22t37 -26l112 73l24 -25l-70 -113q46 -54 74 -117l166 22l9 -28l-147 -80q5 -23 7 -45.5t3 -45.5l194 -44v-26zM623 146q74 0 140 29t115.5 79t78.5 116t29 140t-28.5 140.5t-78 116t-115.5 78.5
t-141 29t-141.5 -29t-116 -78.5t-78.5 -116t-29 -140.5q0 -75 29 -141t79 -115.5t116 -78.5t141 -29z" />
    <glyph glyph-name="night" unicode="&#x263e;" 
d="M1152 288q-31 -68 -80 -124t-110.5 -96t-134 -62.5t-151.5 -22.5q-109 0 -205 41.5t-167 112.5t-112.5 167t-41.5 205t41.5 204.5t112.5 166.5t167 112.5t205 41.5q63 0 122.5 -14.5t113.5 -41.5l-4 -21q-41 9 -83 9q-84 0 -157.5 -32t-128.5 -87t-87 -128.5t-32 -157.5
t32 -158t87 -129t128.5 -87t157.5 -32q94 0 174 39t136 106l8 -6q4 -3 9 -6z" />
    <glyph glyph-name="spade" unicode="&#x2660;" 
d="M66 591q0 64 34 127.5t84.5 125.5t109.5 122.5t109.5 118t84.5 111.5t34 104h157q0 -50 33.5 -104t84.5 -111.5t109.5 -118t109.5 -122.5t84.5 -125.5t33.5 -127.5q0 -73 -15.5 -132t-48.5 -101t-84 -64.5t-122 -22.5l-201 170q0 -40 2.5 -80.5t13.5 -78t32.5 -69.5
t59 -56t93.5 -37.5t136 -13.5v-106h-800v106q80 0 136 13.5t93.5 37.5t58.5 56t32 69.5t13.5 78t2.5 80.5l-200 -170q-71 0 -122 22.5t-84 64.5t-48.5 101t-15.5 132z" />
    <glyph glyph-name="heartsweetwhite" unicode="&#x2661;" 
d="M180 700q-36 54 -64.5 117.5t-28.5 133.5q0 81 24.5 146.5t65.5 111.5t95.5 71t114.5 25h14q35 -3 61.5 -11t49.5 -22.5t46 -37t52 -54.5l40 -158l40 158q29 32 52.5 54.5t46.5 37t49.5 22t61.5 9.5q5 0 8.5 0.5t8.5 0.5q60 0 113.5 -25t94.5 -71t65 -111t24 -146
q0 -70 -28 -133.5t-66 -117.5l-470 -700zM650 150l40 150l311 491q24 38 38 75t16 73v13q0 46 -9.5 85.5t-27 68t-42.5 44.5t-56 16q-35 0 -58.5 -11t-41.5 -31.5t-33.5 -50.5t-33.5 -67l-53 -126h-100l-54 127q-20 47 -38.5 78.5t-38 50t-41.5 26t-48 7.5q-32 0 -57 -17
t-42 -46.5t-26 -69.5t-9 -86v-11q2 -36 16 -73t38 -75l310 -491z" />
    <glyph glyph-name="diamondsweetwhite" unicode="&#x2662;" 
d="M1090 701l-490 -701l-492 699l492 701zM994 700l-120 30l-244 398l-30 110l-30 -110l-245 -398l-120 -30l120 -30l244 -397l30 -110l30 110l245 397z" />
    <glyph glyph-name="club" unicode="&#x2663;" 
d="M713 441q0 -40 2.5 -80.5t13.5 -78t32.5 -69.5t59 -56t93.5 -37.5t136 -13.5v-106h-800v106q80 0 136 13.5t93.5 37.5t58.5 56t32 69.5t13.5 78t2.5 80.5l-199 -168q-56 1 -111.5 18t-100 54t-72 94.5t-27.5 140.5q0 59 20 108.5t50 85.5t64 56.5t63 20.5l277 -151
q-75 75 -115.5 124.5t-59.5 81t-22 47t-3 23.5q0 55 23 105t63 87.5t95 59.5t119 22t119 -22t95.5 -60t63 -88t22.5 -105q0 -7 -3 -23t-22 -47t-59.5 -80.5t-115.5 -124.5l277 151q22 0 56 -19.5t65.5 -55.5t54 -86t22.5 -110q0 -83 -27.5 -141t-71.5 -95t-99.5 -54
t-111.5 -17z" />
    <glyph glyph-name="flag1" unicode="&#x2690;" 
d="M1000 1100v-559q-24 -29 -77.5 -50.5t-122.5 -21.5q-23 0 -46.5 2.5t-48 9.5t-50.5 20t-55 34q-43 31 -78 58t-65.5 46t-59 30t-58.5 11q-19 0 -39 -7v-673l-100 -20v1060l-18 235q1 0 5 2q9 3 26 9t39.5 11t50 9t59.5 4t67.5 -5.5t72 -19t73.5 -36.5t73 -58
q57 -56 105 -79t88 -23q26 0 48.5 9t42.5 23zM900 1000q-35 -11 -67 -11q-59 0 -117 29.5t-116 81.5q-34 30 -64 51t-57.5 33.5t-54 18t-52.5 5.5q-32 0 -72 -8l15 -300l-15 -100q48 0 90.5 -11.5t80 -30t69.5 -42t60 -48.5q64 -57 112 -80.5t88 -23.5q32 0 59 11t41 25v400
z" />
    <glyph glyph-name="flag2" unicode="&#x2691;" 
d="M1000 1100v-559q-24 -29 -77.5 -50.5t-122.5 -21.5q-23 0 -46.5 2.5t-48 9.5t-50.5 20t-55 34q-43 31 -78 58t-65.5 46t-59 30t-58.5 11q-19 0 -39 -7v-673l-100 -20v1060l-18 235q1 0 5 2q9 3 26 9t39.5 11t50 9t59.5 4t67.5 -5.5t72 -19t73.5 -36.5t73 -58
q57 -56 105 -79t88 -23q26 0 48.5 9t42.5 23z" />
    <glyph glyph-name="warning" unicode="&#x26a0;" horiz-adv-x="2600" 
d="M2074 261q35 -60 35 -115q0 -65 -49 -105.5t-137 -40.5h-1347q-88 0 -136 40t-48 105q0 26 8.5 55.5t26.5 60.5l674 1149q31 54 69.5 80.5t80.5 26.5q39 0 79 -27t71 -80zM2003 123l-752 1286l-747 -1286h1499zM1326 1100v-527l-150 -13v540h150zM1164 351q0 17 7 33
t18.5 28t27 19t33.5 7t34 -7t27.5 -19t18.5 -28t7 -33q0 -18 -7 -34t-18.5 -28t-27 -19t-33.5 -7t-34 7t-27.5 19t-18.5 28t-7 34z" />
    <glyph glyph-name="highvoltage" unicode="&#x26a1;" 
d="M700 1500h100l-260 -600l-40 -36l53 8l447 28l-500 -900h-100l260 600l40 34l-52 -10l-448 -24z" />
    <glyph glyph-name="plane" unicode="&#x2708;" horiz-adv-x="2600" 
d="M1096 -20l92 451l25 211h-213q-75 0 -132.5 4.5t-96.5 10.5q-46 7 -78 16l-153 -216l-63 -4l32 252l-79 36v18l79 36l-32 252l63 -4l153 -216q32 8 78 15q39 6 96.5 11t132.5 5h213l-25 211l-92 451l99 -20l345 -647l400 -15q22 -1 50 -6.5t52.5 -16.5t41 -27t16.5 -38
t-16.5 -38t-41 -27t-52.5 -16.5t-50 -6.5l-400 -15l-345 -647z" />
    <glyph glyph-name="mail" unicode="&#x2709;" 
d="M1200 0h-1200v900h1200v-900zM1041 800h-881l384 -301l56 -99l58 101zM82 766l32 -118v-348l-32 -138l296 338zM1071 100l-284 274l-26 74l-82 -73l-78 -110l-77 107l-85 76l-25 -73l-283 -275h940zM1118 161l-32 139v348l32 118l-297 -266z" />
    <glyph glyph-name="checkmark" unicode="&#x2713;" 
d="M480 400l10 200q30 85 69 165.5t82 153t88 135.5t87 114.5t78.5 89t62.5 59.5l131 -17q-45 -50 -97.5 -120.5t-105.5 -155.5t-103 -179.5t-91 -193.5t-68.5 -197.5t-35.5 -190.5l-222 17l-205 520l168 20z" />
    <glyph glyph-name="whitecircledone" unicode="&#x2780;" 
d="M10 750q17 95 54 187t91 174t122.5 151.5t148.5 120t169.5 79t184.5 28.5t174.5 -28.5t142 -79t106.5 -120t69 -151.5t30 -174t-12 -187t-54.5 -187t-91 -174t-122.5 -151.5t-149 -120t-169.5 -79t-184.5 -28.5t-174.5 28.5t-141.5 79t-106.5 120t-69 151.5t-29.5 174
t12 187zM169 750q-20 -109 -3.5 -211.5t65.5 -182.5t129 -128.5t189 -48.5t206 48.5t174 128.5t129 182.5t72 211.5q19 109 3 211.5t-65 182t-129 128t-189 48.5q-72 0 -140 -22t-128 -61.5t-112 -93t-92.5 -117t-68 -134t-40.5 -142.5zM587 858l82 218l-165 -163l-58 -44
l-74 111l335 262l144 -12l-138 -780h146l-22 -120h-490l22 120h146z" />
    <glyph glyph-name="whitecircledtwo" unicode="&#x2781;" 
d="M10 750q17 95 54 187t91 174t122.5 151.5t148.5 120t169.5 79t184.5 28.5t174.5 -28.5t142 -79t106.5 -120t69 -151.5t30 -174t-12 -187t-54.5 -187t-91 -174t-122.5 -151.5t-149 -120t-169.5 -79t-184.5 -28.5t-174.5 28.5t-141.5 79t-106.5 120t-69 151.5t-29.5 174
t12 187zM169 750q-20 -109 -3.5 -211.5t65.5 -182.5t129 -128.5t189 -48.5t206 48.5t174 128.5t129 182.5t72 211.5q19 109 3 211.5t-65 182t-129 128t-189 48.5q-72 0 -140 -22t-128 -61.5t-112 -93t-92.5 -117t-68 -134t-40.5 -142.5zM275 330l20 114q36 44 81.5 93
t92.5 96t91.5 89t78.5 73q39 35 65.5 59t44.5 44.5t28 41t14 48.5q5 22 1 44t-14.5 39.5t-28.5 28t-42 10.5q-49 0 -92.5 -33t-81.5 -89l-131 52q26 46 60 83t76 63t92 40t109 14q68 0 117.5 -22.5t80 -59t41.5 -83t2 -93.5q-7 -42 -26.5 -77.5t-47.5 -68.5t-61.5 -65
t-70.5 -68q-36 -36 -74.5 -73.5t-74 -71t-64 -61.5t-44.5 -47h385l-21 -120h-606z" />
    <glyph glyph-name="whitecircledthree" unicode="&#x2782;" 
d="M10 750q17 95 54 187t91 174t122.5 151.5t148.5 120t169.5 79t184.5 28.5t174.5 -28.5t142 -79t106.5 -120t69 -151.5t30 -174t-12 -187t-54.5 -187t-91 -174t-122.5 -151.5t-149 -120t-169.5 -79t-184.5 -28.5t-174.5 28.5t-141.5 79t-106.5 120t-69 151.5t-29.5 174
t12 187zM169 750q-20 -109 -3.5 -211.5t65.5 -182.5t129 -128.5t189 -48.5t206 48.5t174 128.5t129 182.5t72 211.5q19 109 3 211.5t-65 182t-129 128t-189 48.5q-72 0 -140 -22t-128 -61.5t-112 -93t-92.5 -117t-68 -134t-40.5 -142.5zM481 863q19 12 47 30t59.5 40
t65 45.5t64.5 48.5t57.5 50t45.5 47l-165 -44h-198l34 120h505l-19 -104q-27 -47 -68.5 -86.5t-90.5 -78.5l-103 -50q63 0 112 -16.5t80 -47t43.5 -74.5t2.5 -99q-10 -60 -43 -108.5t-82 -86.5t-110.5 -66t-129.5 -46.5t-138 -27.5t-137 -9l22 120q71 2 141 18.5t127.5 44.5
t96.5 67t48 88q6 35 -4.5 58.5t-33 38t-55 21t-69.5 6.5q-9 0 -26.5 -1t-36 -2t-36 -1.5t-26.5 -1.5z" />
    <glyph glyph-name="whitecircledfour" unicode="&#x2783;" 
d="M10 750q17 95 54 187t91 174t122.5 151.5t148.5 120t169.5 79t184.5 28.5t174.5 -28.5t142 -79t106.5 -120t69 -151.5t30 -174t-12 -187t-54.5 -187t-91 -174t-122.5 -151.5t-149 -120t-169.5 -79t-184.5 -28.5t-174.5 28.5t-141.5 79t-106.5 120t-69 151.5t-29.5 174
t12 187zM169 750q-20 -109 -3.5 -211.5t65.5 -182.5t129 -128.5t189 -48.5t206 48.5t174 128.5t129 182.5t72 211.5q19 109 3 211.5t-65 182t-129 128t-189 48.5q-72 0 -140 -22t-128 -61.5t-112 -93t-92.5 -117t-68 -134t-40.5 -142.5zM907 480h-107l-32 -180h-192l32 180
h-336l21 120l404 612l166 -12l-276 -442l-132 -158h174l30 168l195 12l-32 -180h119z" />
    <glyph glyph-name="whitecircledfive" unicode="&#x2784;" 
d="M10 750q17 95 54 187t91 174t122.5 151.5t148.5 120t169.5 79t184.5 28.5t174.5 -28.5t142 -79t106.5 -120t69 -151.5t30 -174t-12 -187t-54.5 -187t-91 -174t-122.5 -151.5t-149 -120t-169.5 -79t-184.5 -28.5t-174.5 28.5t-141.5 79t-106.5 120t-69 151.5t-29.5 174
t12 187zM169 750q-20 -109 -3.5 -211.5t65.5 -182.5t129 -128.5t189 -48.5t206 48.5t174 128.5t129 182.5t72 211.5q19 109 3 211.5t-65 182t-129 128t-189 48.5q-72 0 -140 -22t-128 -61.5t-112 -93t-92.5 -117t-68 -134t-40.5 -142.5zM644 908q15 3 32.5 5t38.5 2
q70 0 121 -20t83.5 -55.5t44 -82.5t1.5 -101q-10 -62 -44 -113.5t-83.5 -93.5t-111.5 -73.5t-129.5 -52.5t-137.5 -32t-135 -11l24 136q43 1 89.5 9.5t90.5 22.5t85 34.5t73.5 45.5t53.5 54t27 62q4 24 0 47.5t-16 41.5t-31.5 29t-45.5 11q-22 0 -42.5 -3.5t-37.5 -9
t-31 -12.5t-24 -13h-135l79 445h520l-22 -120h-310z" />
    <glyph glyph-name="whitecircledsix" unicode="&#x2785;" 
d="M10 750q17 95 54 187t91 174t122.5 151.5t148.5 120t169.5 79t184.5 28.5t174.5 -28.5t142 -79t106.5 -120t69 -151.5t30 -174t-12 -187t-54.5 -187t-91 -174t-122.5 -151.5t-149 -120t-169.5 -79t-184.5 -28.5t-174.5 28.5t-141.5 79t-106.5 120t-69 151.5t-29.5 174
t12 187zM169 750q-20 -109 -3.5 -211.5t65.5 -182.5t129 -128.5t189 -48.5t206 48.5t174 128.5t129 182.5t72 211.5q19 109 3 211.5t-65 182t-129 128t-189 48.5q-72 0 -140 -22t-128 -61.5t-112 -93t-92.5 -117t-68 -134t-40.5 -142.5zM894 1068q-14 8 -32 10t-33 2
q-41 0 -88.5 -20t-93.5 -58.5t-85 -94.5t-62 -127l115 87q34 7 61 7q59 0 110.5 -15t88 -46.5t53 -80.5t4.5 -117q-12 -67 -46 -126t-86 -103.5t-117.5 -70t-139.5 -25.5q-65 0 -111 19t-77 50.5t-49 72t-26 83.5t-7 85t7 76q12 71 39 138t67 126.5t91 109t111 85.5
t128 55.5t142 19.5q11 0 31 -1.5t48 -9.5zM647 754q-22 0 -45.5 -9t-46 -23t-42.5 -30.5t-34 -30.5q-3 -16 -5 -29t-2.5 -24.5t-0.5 -23t1 -24.5q2 -28 9 -53.5t19.5 -44.5t29 -30.5t38.5 -11.5q33 0 60 17t47.5 44.5t34 61.5t19.5 67q5 30 1.5 56t-14.5 45.5t-28.5 31
t-40.5 11.5z" />
    <glyph glyph-name="whitecircledseven" unicode="&#x2786;" 
d="M10 750q17 95 54 187t91 174t122.5 151.5t148.5 120t169.5 79t184.5 28.5t174.5 -28.5t142 -79t106.5 -120t69 -151.5t30 -174t-12 -187t-54.5 -187t-91 -174t-122.5 -151.5t-149 -120t-169.5 -79t-184.5 -28.5t-174.5 28.5t-141.5 79t-106.5 120t-69 151.5t-29.5 174
t12 187zM169 750q-20 -109 -3.5 -211.5t65.5 -182.5t129 -128.5t189 -48.5t206 48.5t174 128.5t129 182.5t72 211.5q19 109 3 211.5t-65 182t-129 128t-189 48.5q-72 0 -140 -22t-128 -61.5t-112 -93t-92.5 -117t-68 -134t-40.5 -142.5zM427 1150h605l-18 -97
q-3 -16 -15.5 -38.5t-32 -50.5t-44.5 -61t-53 -67q-32 -42 -68 -89.5t-69 -97t-59 -98t-39 -93.5q-7 -22 -13 -48.5t-11.5 -54.5t-10 -55t-8.5 -50h-203q4 19 10 51.5t14 68.5t17 71t18 60q21 53 51 107.5t65 106t71 99t69 88.5q27 34 49 62.5t33 48.5h-382z" />
    <glyph glyph-name="whitecircledeight" unicode="&#x2787;" 
d="M10 750q17 95 54 187t91 174t122.5 151.5t148.5 120t169.5 79t184.5 28.5t174.5 -28.5t142 -79t106.5 -120t69 -151.5t30 -174t-12 -187t-54.5 -187t-91 -174t-122.5 -151.5t-149 -120t-169.5 -79t-184.5 -28.5t-174.5 28.5t-141.5 79t-106.5 120t-69 151.5t-29.5 174
t12 187zM169 750q-20 -109 -3.5 -211.5t65.5 -182.5t129 -128.5t189 -48.5t206 48.5t174 128.5t129 182.5t72 211.5q19 109 3 211.5t-65 182t-129 128t-189 48.5q-72 0 -140 -22t-128 -61.5t-112 -93t-92.5 -117t-68 -134t-40.5 -142.5zM716 1210q62 0 111.5 -16t82.5 -45.5
t47.5 -72t4.5 -96.5q-5 -30 -21.5 -56t-39.5 -47.5t-50 -39t-54 -31.5q37 -19 67 -44.5t50 -57t28.5 -68.5t0.5 -80q-12 -69 -50 -119.5t-91.5 -83t-117 -48t-127.5 -15.5q-62 0 -117.5 17.5t-94.5 52.5t-57 86t-6 119q7 42 26.5 79t48 67.5t64.5 55t77 42.5
q-25 16 -45.5 34.5t-34 38.5t-19.5 43t-2 49q8 41 26 74.5t43.5 60t56 45.5t63.5 31.5t66.5 18.5t63.5 6zM748 553q5 33 -4 59t-27 47.5t-42.5 38t-49.5 29.5q-28 -13 -53 -29.5t-45 -38t-33.5 -48t-19.5 -58.5q-5 -29 2 -53.5t22.5 -42t37.5 -27.5t45 -10q27 0 54.5 9
t50.5 26t39.5 41.5t22.5 56.5zM593 994q-4 -21 1.5 -38t17.5 -31.5t27.5 -26t33.5 -20.5q36 18 64 46.5t35 66.5q4 23 -1.5 40t-16.5 27.5t-25 16t-26 5.5q-16 0 -34.5 -6.5t-34 -18.5t-27 -27.5t-14.5 -33.5z" />
    <glyph glyph-name="whitecirclednine" unicode="&#x2788;" 
d="M10 750q17 95 54 187t91 174t122.5 151.5t148.5 120t169.5 79t184.5 28.5t174.5 -28.5t142 -79t106.5 -120t69 -151.5t30 -174t-12 -187t-54.5 -187t-91 -174t-122.5 -151.5t-149 -120t-169.5 -79t-184.5 -28.5t-174.5 28.5t-141.5 79t-106.5 120t-69 151.5t-29.5 174
t12 187zM169 750q-20 -109 -3.5 -211.5t65.5 -182.5t129 -128.5t189 -48.5t206 48.5t174 128.5t129 182.5t72 211.5q19 109 3 211.5t-65 182t-129 128t-189 48.5q-72 0 -140 -22t-128 -61.5t-112 -93t-92.5 -117t-68 -134t-40.5 -142.5zM403 410q41 1 83.5 13.5t82 33.5
t74.5 49.5t63.5 61.5t47.5 69t26 73l-123 -91q-9 -1 -19.5 -2t-20.5 -1q-65 0 -118.5 20.5t-89 57.5t-50 89.5t-3.5 116.5q12 67 44.5 122t81.5 94.5t113 61.5t139 22q66 0 113 -18.5t78.5 -49.5t49 -71t25 -83t6 -85.5t-7.5 -78.5q-19 -106 -69 -199.5t-127 -164.5
t-177.5 -116t-221.5 -54v130zM645 747q21 0 44 9.5t45 25t41.5 35.5t33.5 40q5 38 1.5 76t-15 68.5t-32 49.5t-49.5 19q-28 0 -54 -13t-47.5 -34.5t-36.5 -50.5t-20 -62q-6 -32 -3.5 -61.5t14 -52t31 -36t47.5 -13.5z" />
    <glyph glyph-name="whitecircledzero" unicode="&#x2789;" 
d="M10 750q17 95 54 187t91 174t122.5 151.5t148.5 120t169.5 79t184.5 28.5t174.5 -28.5t142 -79t106.5 -120t69 -151.5t30 -174t-12 -187t-54.5 -187t-91 -174t-122.5 -151.5t-149 -120t-169.5 -79t-184.5 -28.5t-174.5 28.5t-141.5 79t-106.5 120t-69 151.5t-29.5 174
t12 187zM169 750q-20 -109 -3.5 -211.5t65.5 -182.5t129 -128.5t189 -48.5t206 48.5t174 128.5t129 182.5t72 211.5q19 109 3 211.5t-65 182t-129 128t-189 48.5q-72 0 -140 -22t-128 -61.5t-112 -93t-92.5 -117t-68 -134t-40.5 -142.5zM572 290q-56 0 -99 19.5t-74.5 53.5
t-51.5 79t-29.5 96t-9.5 105.5t10 106.5q9 54 26.5 109t43.5 106t60.5 95.5t78 78t95.5 52.5t113 19q56 0 99 -19.5t74.5 -53.5t51.5 -79t29.5 -96t9.5 -105.5t-9 -106.5q-10 -54 -27.5 -109t-43.5 -106t-60.5 -95.5t-78 -78t-95.5 -52.5t-113 -19zM518 775q-5 -31 -9 -68
t-4.5 -74.5t4 -73t16 -63t30 -44t47.5 -16.5q25 0 47 12t40.5 33.5t34.5 50t28 61t21 66t15 66.5q5 31 9 68t4 74.5t-4.5 73t-15.5 63t-30 44t-47 16.5q-26 0 -48 -12.5t-40.5 -33.5t-34 -49.5t-27.5 -61t-21 -66.5t-15 -66z" />
    <glyph glyph-name="blackcircledone" unicode="&#x278a;" 
d="M50 750q16 90 50.5 177t85 165t114.5 144t139.5 114t159.5 75t174 27t164.5 -27t133 -75t99.5 -114t64 -144t27.5 -165t-11.5 -177t-51 -177t-85.5 -165t-114.5 -144t-139.5 -114t-159.5 -75t-174 -27q-135 0 -235 59t-161.5 157t-82.5 224.5t3 261.5zM522 440h-146
l-22 -120h490l22 120h-146l138 780l-144 12l-335 -262l74 -111l58 44l165 163l-82 -218z" />
    <glyph glyph-name="blackcircledtwo" unicode="&#x278b;" 
d="M50 750q16 90 50.5 177t85 165t114.5 144t139.5 114t159.5 75t174 27t164.5 -27t133 -75t99.5 -114t64 -144t27.5 -165t-11.5 -177t-51 -177t-85.5 -165t-114.5 -144t-139.5 -114t-159.5 -75t-174 -27q-135 0 -235 59t-161.5 157t-82.5 224.5t3 261.5zM879 330l21 120
h-385q16 19 44.5 47t64 61.5t74 71t74.5 73.5q37 36 70.5 68t61.5 65t47.5 68.5t26.5 77.5q9 47 -2 93.5t-41.5 83t-80 59t-117.5 22.5q-59 0 -109 -14t-92 -40t-76 -63t-60 -83l131 -52q38 56 81.5 89t92.5 33q24 0 42 -10.5t28.5 -28t14.5 -39.5t-1 -44q-4 -28 -14 -48.5
t-28 -41t-44.5 -44.5t-65.5 -59q-34 -31 -78.5 -73t-91.5 -89t-92.5 -96t-81.5 -93l-20 -114h606z" />
    <glyph glyph-name="blackcircledthree" unicode="&#x278c;" 
d="M49 740q16 90 50.5 177.5t85.5 167t115.5 146.5t139.5 116.5t159.5 77t174.5 27.5q135 0 233.5 -59t158.5 -157t79 -224.5t-5 -261.5q-16 -90 -50 -177.5t-83.5 -167t-112.5 -146.5t-137.5 -116.5t-158 -77t-173.5 -27.5q-135 0 -235 59t-161.5 157t-82.5 224.5t3 261.5z
M451 746q9 1 26.5 1.5t36 1.5t36 2t26.5 1q37 0 69.5 -6.5t55 -21t33 -38t4.5 -58.5q-9 -49 -48 -88t-96.5 -67t-127.5 -44.5t-141 -18.5l-22 -120q67 0 137 9t138 27.5t129.5 46.5t110.5 66t82 86.5t43 108.5q10 55 -2.5 99t-43.5 74.5t-80 47t-112 16.5l103 50
q49 39 90.5 78.5t68.5 86.5l19 104h-505l-34 -120h198l165 44q-19 -22 -45.5 -47t-57.5 -50t-64.5 -48.5t-65 -45.5t-59.5 -40t-47 -30z" />
    <glyph glyph-name="blackcircledfour" unicode="&#x278d;" 
d="M50 750q16 90 50.5 177t85 165t114.5 144t139.5 114t159.5 75t174 27t164.5 -27t133 -75t99.5 -114t64 -144t27.5 -165t-11.5 -177t-51 -177t-85.5 -165t-114.5 -144t-139.5 -114t-159.5 -75t-174 -27q-135 0 -235 59t-161.5 157t-82.5 224.5t3 261.5zM941 600h-119
l32 180l-195 -12l-30 -168h-174l132 158l276 442l-166 12l-404 -612l-21 -120h336l-32 -180h192l32 180h107z" />
    <glyph glyph-name="blackcircledfive" unicode="&#x278e;" 
d="M50 750q16 90 50.5 177t85 165t114.5 144t139.5 114t159.5 75t174 27t164.5 -27t133 -75t99.5 -114t64 -144t27.5 -165t-11.5 -177t-51 -177t-85.5 -165t-114.5 -144t-139.5 -114t-159.5 -75t-174 -27q-135 0 -235 59t-161.5 157t-82.5 224.5t3 261.5zM667 1070h310
l22 120h-520l-79 -445h135q10 6 24 13t31 12.5t37.5 9t42.5 3.5q26 0 45.5 -11t31.5 -29t16 -41.5t0 -47.5q-6 -33 -27 -62t-53.5 -54t-73.5 -45.5t-85 -34.5t-90.5 -22.5t-89.5 -9.5l-24 -136q65 0 135 11t137.5 32t129.5 52.5t111.5 73.5t83.5 93.5t44 113.5
q10 54 -1.5 101t-44 82.5t-83.5 55.5t-121 20q-21 0 -38.5 -2t-32.5 -5z" />
    <glyph glyph-name="blackcircledsix" unicode="&#x278f;" 
d="M49 750q16 90 50.5 177.5t85.5 167t115.5 146.5t139.5 116.5t159.5 77t174.5 27.5t164.5 -27.5t132.5 -77t99 -116.5t64 -146.5t27 -167t-12 -177.5t-51 -177t-85.5 -165t-114.5 -144t-139.5 -114t-159.5 -75t-174 -27q-135 0 -235 59t-161.5 157t-82.5 224.5t3 261.5z
M939 1199q-28 8 -48 9.5t-31 1.5q-74 0 -142 -19.5t-128 -55.5t-111 -85.5t-91 -109t-67 -126.5t-39 -138q-6 -34 -7 -76t7 -85t26 -83.5t49 -72t77 -50.5t111 -19q74 0 139.5 25.5t117.5 70t86 103.5t46 126q12 68 -4.5 117t-53 80.5t-88 46.5t-110.5 15q-27 0 -61 -7
l-115 -87q23 71 62 127t85 94.5t93.5 58.5t88.5 20q15 0 33 -2t32 -10zM649 754q23 0 40.5 -11.5t28.5 -31t14.5 -45.5t-1.5 -56q-6 -33 -19.5 -67t-34 -61.5t-47.5 -44.5t-60 -17q-22 0 -38.5 11.5t-29 30.5t-19.5 44.5t-9 53.5q-1 13 -1 24.5t0.5 23t2.5 24.5t5 29
q14 14 34 30.5t42.5 30.5t46 23t45.5 9z" />
    <glyph glyph-name="blackcircledseven" unicode="&#x2790;" 
d="M50 750q16 90 50.5 177t85 165t114.5 144t139.5 114t159.5 75t174 27t164.5 -27t133 -75t99.5 -114t64 -144t27.5 -165t-11.5 -177t-51 -177t-85.5 -165t-114.5 -144t-139.5 -114t-159.5 -75t-174 -27q-135 0 -235 59t-161.5 157t-82.5 224.5t3 261.5zM401 1033h382
q-11 -20 -33 -48.5t-49 -62.5q-33 -41 -69 -88.5t-71 -99t-65 -106t-51 -107.5q-9 -25 -18 -60t-17 -71t-14 -68.5t-10 -51.5h203q4 23 8.5 50t10 55t11.5 54.5t13 48.5q13 45 39 93.5t59 98t69 97t68 89.5q28 34 53 67t44.5 61t32 50.5t15.5 38.5l18 97h-605z" />
    <glyph glyph-name="blackcircledeight" unicode="&#x2791;" 
d="M50 750q16 90 50.5 177t85 165t114.5 144t139.5 114t159.5 75t174 27t164.5 -27t133 -75t99.5 -114t64 -144t27.5 -165t-11.5 -177t-51 -177t-85.5 -165t-114.5 -144t-139.5 -114t-159.5 -75t-174 -27q-135 0 -235 59t-161.5 157t-82.5 224.5t3 261.5zM716 1210
q-30 0 -63.5 -6t-66.5 -18.5t-63.5 -31.5t-56 -45.5t-43.5 -60t-26 -74.5q-4 -26 2 -49t19.5 -43t34 -38.5t45.5 -34.5q-41 -18 -77 -42.5t-64.5 -55t-48 -67.5t-26.5 -79q-12 -68 6 -119t57 -86t94.5 -52.5t117.5 -17.5q64 0 127.5 15.5t117 48t91.5 83t50 119.5
q8 43 -0.5 80t-28.5 68.5t-50 57t-67 44.5q27 14 54 31.5t50 39t39.5 47.5t21.5 56q10 54 -4.5 96.5t-47.5 72t-82.5 45.5t-111.5 16zM748 553q-6 -32 -22.5 -56.5t-39.5 -41.5t-50.5 -26t-54.5 -9q-23 0 -45 10t-37.5 27.5t-22.5 42t-2 53.5q6 32 19.5 58.5t33.5 48t45 38
t53 29.5q25 -13 49.5 -29.5t42.5 -38t27 -47.5t4 -59zM593 994q3 18 14.5 33.5t27 27.5t34 18.5t34.5 6.5q12 0 26 -5.5t25 -16t16.5 -27.5t1.5 -40q-7 -38 -35 -66.5t-64 -46.5q-18 9 -33.5 20.5t-27.5 26t-17.5 31.5t-1.5 38z" />
    <glyph glyph-name="blackcirclednine" unicode="&#x2792;" 
d="M50 750q16 90 50.5 177t85 165t114.5 144t139.5 114t159.5 75t174 27t164.5 -27t133 -75t99.5 -114t64 -144t27.5 -165t-11.5 -177t-51 -177t-85.5 -165t-114.5 -144t-139.5 -114t-159.5 -75t-174 -27q-135 0 -235 59t-161.5 157t-82.5 224.5t3 261.5zM401 290
q121 9 221.5 54t177.5 116t127 164.5t69 199.5q6 36 7.5 78.5t-6 85.5t-25 83t-49 71t-78.5 49.5t-113 18.5q-75 0 -139 -22t-113 -61.5t-81.5 -94.5t-44.5 -122q-11 -64 3.5 -116.5t50 -89.5t89 -57.5t118.5 -20.5q10 0 20.5 1t19.5 2l123 91q-7 -37 -26 -73t-47.5 -69
t-63.5 -61.5t-74.5 -49.5t-82 -33.5t-83.5 -13.5v-130zM643 757q-28 0 -47.5 13.5t-31 36t-14 52t3.5 61.5q5 33 20 62t36.5 50.5t47.5 34.5t54 13q29 0 49.5 -19t32 -49.5t15 -68.5t-1.5 -76q-14 -20 -33.5 -40t-41.5 -35.5t-45 -25t-44 -9.5z" />
    <glyph glyph-name="blackcircledzero" unicode="&#x2793;" 
d="M50 750q16 90 50.5 177t85 165t114.5 144t139.5 114t159.5 75t174 27t164.5 -27t133 -75t99.5 -114t64 -144t27.5 -165t-11.5 -177t-51 -177t-85.5 -165t-114.5 -144t-139.5 -114t-159.5 -75t-174 -27q-135 0 -235 59t-161.5 157t-82.5 224.5t3 261.5zM571 290
q61 0 113 19t95.5 52.5t78 78t60.5 95.5t43.5 106t27.5 109q9 52 9 106.5t-9.5 105.5t-29.5 96t-51.5 79t-74.5 53.5t-99 19.5q-61 0 -113 -19t-95.5 -52.5t-78 -78t-60.5 -95.5t-43.5 -106t-26.5 -109q-10 -52 -10 -106.5t9.5 -105.5t29.5 -96t51.5 -79t74.5 -53.5
t99 -19.5zM517 775q6 32 15 66t21 66.5t27.5 61t34 49.5t40.5 33.5t48 12.5q28 0 47 -16.5t30 -44t15.5 -63t4.5 -73t-4 -74.5t-9 -68q-6 -33 -15 -66.5t-21 -66t-28 -61t-34.5 -50t-40.5 -33.5t-47 -12q-29 0 -47.5 16.5t-30 44t-16 63t-4 73t4.5 74.5t9 68z" />
    <glyph glyph-name="widerightwardsarrow" unicode="&#x2794;" 
d="M1300 600l-290 -220l-320 -281h-270l282 265l198 150l-218 -14h-682l30 200h652l218 -14l-198 146l-282 267h270l320 -279z" />
    <glyph glyph-name="takeoff" unicode="&#xe000;" horiz-adv-x="2600" 
d="M1495 1138l556 240q39 14 82.5 21.5t87.5 7.5q43 0 92.5 -10.5t91.5 -34t69.5 -60.5t27.5 -91q0 -44 -22 -87.5t-56.5 -81t-77.5 -67t-85 -47.5l-1048 -429q-5 0 -12 0.5t-15 0.5q-38 0 -98.5 -3.5t-131 -8.5t-144 -12t-136.5 -14t-109 -14t-61 -12l-48 132l-338 199
l224 82l334 -81l335 139l-451 359l335 122zM80 -200l20 200h1800v-200h-1820zM2000 -200v200h200v-200h-200zM2300 -200v200h100v-200h-100z" />
    <glyph glyph-name="climb" unicode="&#xe001;" horiz-adv-x="2600" 
d="M1495 1138l556 240q39 14 82.5 21.5t87.5 7.5q43 0 92.5 -10.5t91.5 -34t69.5 -60.5t27.5 -91q0 -44 -22 -87.5t-56.5 -81t-77.5 -67t-85 -47.5l-1048 -429q-5 0 -12 0.5t-15 0.5q-38 0 -98.5 -3.5t-131 -8.5t-144 -12t-136.5 -14t-109 -14t-61 -12l-48 132l-338 199
l224 82l334 -81l335 139l-451 359l335 122z" />
    <glyph glyph-name="cruise" unicode="&#xe002;" horiz-adv-x="2600" 
d="M1519 961l605 35q63 0 130 -18t121.5 -51.5t89.5 -81t35 -106.5q0 -53 -32 -96t-81.5 -73.5t-108 -48t-111.5 -19.5l-1131 -45q-25 11 -80.5 28.5t-126 37.5t-148 40.5t-145.5 37.5t-118.5 27.5t-67.5 10.5v141l-250 303h239l286 -190l363 16l-302 491h357z" />
    <glyph glyph-name="descent" unicode="&#xe003;" horiz-adv-x="2600" 
d="M1520 903l593 -123q55 -15 109.5 -44.5t97.5 -69t69.5 -87t26.5 -98.5q0 -53 -27.5 -91t-70 -62t-94.5 -35t-100 -11q-26 0 -50 2.5t-47 7.5l-1104 249q-21 17 -70.5 48.5t-112.5 69.5t-132 77.5t-130.5 73.5t-108 57t-62.5 28l37 136l-163 357l231 -62l227 -257l355 -79
l-165 553l345 -93z" />
    <glyph glyph-name="landing" unicode="&#xe004;" horiz-adv-x="2600" 
d="M1504 1021l593 -123q55 -15 109.5 -44.5t97.5 -69t69.5 -87t26.5 -98.5q0 -53 -27.5 -91t-70 -62t-94.5 -35t-100 -11q-26 0 -50 2.5t-47 7.5l-1104 249q-21 17 -70.5 48.5t-112.5 69.5t-132 77.5t-130.5 73.5t-108 57t-62.5 28l37 136l-163 357l231 -62l227 -257
l355 -79l-165 553l345 -93zM2400 -200h-1800v200h1800v-200zM500 -200h-200v200h200v-200zM200 -200h-120l20 200h100v-200z" />
    <glyph glyph-name="levelup" unicode="&#xe005;" horiz-adv-x="2600" 
d="M368 100h200q94 0 159 18.5t112.5 50t83.5 73.5t71 88q37 49 78 97t99 86q66 45 147 66t182 21h544l-244 200h146l184 -161l116 -88l-118 -92l-182 -159h-146l244 200h-544q-95 0 -160 -18.5t-112.5 -50t-83.5 -73.5t-71 -88q-37 -49 -78 -97t-99 -86q-66 -45 -146.5 -66
t-181.5 -21h-200v100zM1600 100h200v-100h-200v100zM1900 100h200v-100h-200v100zM1300 100h200v-100h-200v100zM1100 100h100v-100h-200z" />
    <glyph glyph-name="leveldown" unicode="&#xe006;" horiz-adv-x="2600" 
d="M368 800h200q101 0 181.5 -21t146.5 -66q58 -38 99 -86t78 -97q35 -46 71 -88t83.5 -73.5t112.5 -50t160 -18.5h544l-244 200h146l182 -159l118 -92l-116 -88l-184 -161h-146l244 200h-544q-101 0 -182 21t-147 66q-58 38 -99 86t-78 97q-35 46 -71 88t-83.5 73.5
t-112.5 50t-159 18.5h-200v100zM1600 800h200v-100h-200v100zM1900 800h200v-100h-200v100zM1300 800h200v-100h-200v100zM1000 800h200v-100h-100z" />
    <glyph glyph-name="slashedzero" unicode="&#xe007;" 
d="M512 -16q-93 0 -165 32.5t-124.5 88.5t-85.5 131t-49.5 160t-16 176t16.5 178q16 90 45 181.5t72.5 177t101 159.5t129.5 129.5t158.5 87t188.5 31.5q93 0 165 -32.5t124.5 -88.5t86 -131t49.5 -160t15.5 -176t-15.5 -178q-16 -90 -45.5 -181.5t-73 -177t-101 -159.5
t-129.5 -129.5t-159 -87t-188 -31.5zM423 791q-9 -52 -16 -115t-7 -127l-40 -165l485 819q-19 32 -46.5 51t-66.5 19q-42 0 -79 -20.5t-68 -56t-56.5 -83t-46 -101t-35 -110.5t-24.5 -111zM872 709q15 82 20 180l48 182l-470 -805q17 -19 40 -29.5t52 -10.5q42 0 79 20.5
t68 56t57 83t46.5 101.5t35 110.5t24.5 111.5z" />
    <glyph glyph-name="hot" unicode="&#xe020;" horiz-adv-x="2600" 
d="M800 291q10 -3 16 -7q38 -19 61 -54t23 -80q0 -31 -12 -58.5t-32 -47.5t-47.5 -32t-58.5 -12t-58 12t-47.5 32.5t-32.5 48t-12 58.5q0 49 28 87t72 53v809q0 21 14.5 35.5t35.5 14.5t35.5 -14.5t14.5 -35.5v-809zM750 -100q52 0 97.5 19.5t79.5 53.5t53.5 79.5t19.5 97.5
q0 62 -27.5 114t-72.5 86v902q0 31 -12.5 58t-33 47t-47.5 31.5t-57 11.5t-57 -12t-48 -32t-33 -47.5t-12 -58.5v-900q-45 -34 -72.5 -86t-27.5 -114q0 -52 19.5 -97.5t53.5 -79.5t79.5 -53.5t97.5 -19.5zM750 -200q-72 0 -135.5 28t-111.5 75.5t-75.5 111t-27.5 135.5
q0 69 26 135t74 115v852q0 52 20 97t54.5 78.5t80 53t95.5 19.5q51 0 96 -19.5t79.5 -53.5t54.5 -79.5t20 -97.5v-850q48 -49 74 -115t26 -135q0 -72 -27.5 -135.5t-75.5 -111.5t-111.5 -75.5t-135.5 -27.5zM2016 507q-7 -27 -16.5 -53.5t-21.5 -52.5l119 -113l-22 -37
l-156 52q-26 -35 -56.5 -64.5t-65.5 -55.5l74 -196l-33 -18l-138 155q-26 -12 -52 -22t-53 -17v-247l-32 -4l-75 234q-9 0 -18 -0.5t-18 -0.5q-13 0 -29 1t-47 4l-72 -149l-42 10v164q-33 12 -63 27q0 6 0.5 12.5t0.5 13.5q0 77 -26 151.5t-74 135.5v682q17 13 34.5 24
t35.5 21l-30 164l39 15l97 -133q41 13 82.5 19t85.5 7l56 201l37 -4l20 -207q56 -10 110 -32l143 200l29 -14l-77 -234q24 -15 46 -32t43 -37l146 78l27 -32l-98 -133q25 -35 44.5 -73t33.5 -80l208 9l8 -35l-190 -84q2 -19 3 -37.5t1 -37.5v-19t-1 -19l233 -76l-3 -31h-247
z" />
    <glyph glyph-name="cold" unicode="&#xe021;" horiz-adv-x="2600" 
d="M800 291q10 -3 16 -7q38 -19 61 -54t23 -80q0 -31 -12 -58.5t-32 -47.5t-47.5 -32t-58.5 -12t-58 12t-47.5 32.5t-32.5 48t-12 58.5q0 49 28 87t72 53v209q0 21 14.5 35.5t35.5 14.5t35.5 -14.5t14.5 -35.5v-209zM750 -100q52 0 97.5 19.5t79.5 53.5t53.5 79.5t19.5 97.5
q0 62 -27.5 114t-72.5 86v902q0 31 -12.5 58t-33 47t-47.5 31.5t-57 11.5t-57 -12t-48 -32t-33 -47.5t-12 -58.5v-900q-45 -34 -72.5 -86t-27.5 -114q0 -52 19.5 -97.5t53.5 -79.5t79.5 -53.5t97.5 -19.5zM750 -200q-72 0 -135.5 28t-111.5 75.5t-75.5 111t-27.5 135.5
q0 69 26 135t74 115v852q0 52 20 97t54.5 78.5t80 53t95.5 19.5q51 0 96 -19.5t79.5 -53.5t54.5 -79.5t20 -97.5v-850q48 -49 74 -115t26 -135q0 -72 -27.5 -135.5t-75.5 -111.5t-111.5 -75.5t-135.5 -27.5zM1200 170l100 58v385l-200 -118v116l150 89l-150 85v115l200 -114
v385l-184 108l50 86l134 -78v213l100 20v-232l133 77l50 -86l-183 -107v-386l334 193v212l100 20v-174l183 106l50 -86l-184 -106l134 -78l-50 -86l-183 106l-335 -193l335 -194l183 107l50 -86l-134 -78l184 -106l-50 -86l-183 105v-153l-100 -20v231l-334 193v-386
l183 -106l-50 -86l-133 76v-211l-100 -20v232l-100 -57v115z" />
    <glyph glyph-name="dry" unicode="&#xe022;" 
d="M1214 -100h-164l-998 1100h166zM650 1124l300 -713q9 -26 13 -52t5 -54l-452 502zM386 498l425 -471q-35 -21 -75.5 -32.5t-85.5 -11.5q-66 0 -124 25t-101.5 68.5t-68.5 101.5t-25 124q0 37 8.5 71.5t22.5 68.5z" />
    </font>
</defs>
</svg>
